%TF.GenerationSoftware,KiCad,Pcbnew,5.1.6-c6e7f7d~86~ubuntu18.04.1*%
%TF.CreationDate,2021-07-04T16:44:21-07:00*%
%TF.ProjectId,arrow_deca_retro_cape,6172726f-775f-4646-9563-615f72657472,rev?*%
%TF.SameCoordinates,Original*%
%TF.FileFunction,Copper,L3,Inr*%
%TF.FilePolarity,Positive*%
%FSLAX46Y46*%
G04 Gerber Fmt 4.6, Leading zero omitted, Abs format (unit mm)*
G04 Created by KiCad (PCBNEW 5.1.6-c6e7f7d~86~ubuntu18.04.1) date 2021-07-04 16:44:21*
%MOMM*%
%LPD*%
G01*
G04 APERTURE LIST*
%TA.AperFunction,ViaPad*%
%ADD10O,1.700000X1.700000*%
%TD*%
%TA.AperFunction,ViaPad*%
%ADD11R,1.700000X1.700000*%
%TD*%
%TA.AperFunction,ViaPad*%
%ADD12C,4.216000*%
%TD*%
%TA.AperFunction,ViaPad*%
%ADD13C,1.408000*%
%TD*%
%TA.AperFunction,ViaPad*%
%ADD14R,1.408000X1.408000*%
%TD*%
%TA.AperFunction,ViaPad*%
%ADD15C,1.498600*%
%TD*%
%TA.AperFunction,ViaPad*%
%ADD16C,0.762000*%
%TD*%
%TA.AperFunction,ViaPad*%
%ADD17C,1.270000*%
%TD*%
%TA.AperFunction,ViaPad*%
%ADD18C,1.016000*%
%TD*%
%TA.AperFunction,ViaPad*%
%ADD19C,0.508000*%
%TD*%
%TA.AperFunction,Conductor*%
%ADD20C,0.254000*%
%TD*%
G04 APERTURE END LIST*
D10*
%TO.N,GND*%
%TO.C,J8*%
X96393000Y-78359000D03*
%TO.N,/GPIO3*%
X96393000Y-75819000D03*
%TO.N,/GPIO2*%
X96393000Y-73279000D03*
%TO.N,/GPIO1*%
X96393000Y-70739000D03*
%TO.N,/GPIO0*%
X96393000Y-68199000D03*
D11*
%TO.N,+3V3*%
X96393000Y-65659000D03*
%TD*%
D10*
%TO.N,/3V3_LDO*%
%TO.C,J7*%
X87249000Y-49403000D03*
%TO.N,+3V3*%
X87249000Y-46863000D03*
D11*
%TO.N,+3.3VP*%
X87249000Y-44323000D03*
%TD*%
D12*
%TO.N,N/C*%
%TO.C,J4*%
X55245000Y-51914000D03*
X55245000Y-26924000D03*
D13*
%TO.N,/JOY0_PADDLE_A*%
X53975000Y-43574000D03*
%TO.N,GND*%
X53975000Y-40804000D03*
%TO.N,+5V*%
X53975000Y-38034000D03*
%TO.N,/JOY0_TRIGGER*%
X53975000Y-35264000D03*
%TO.N,/JOY0_PADDLE_B*%
X56515000Y-44959000D03*
%TO.N,/JOY0_RIGHT*%
X56515000Y-42189000D03*
%TO.N,/JOY0_LEFT*%
X56515000Y-39419000D03*
%TO.N,/JOY0_DOWN*%
X56515000Y-36649000D03*
D14*
%TO.N,/JOY0_UP*%
X56515000Y-33879000D03*
%TD*%
D12*
%TO.N,N/C*%
%TO.C,J6*%
X55245000Y-83651000D03*
X55245000Y-58661000D03*
D13*
%TO.N,/JOY1_PADDLE_A*%
X53975000Y-75311000D03*
%TO.N,GND*%
X53975000Y-72541000D03*
%TO.N,+5V*%
X53975000Y-69771000D03*
%TO.N,/JOY1_TRIGGER*%
X53975000Y-67001000D03*
%TO.N,/JOY1_PADDLE_B*%
X56515000Y-76696000D03*
%TO.N,/JOY1_RIGHT*%
X56515000Y-73926000D03*
%TO.N,/JOY1_LEFT*%
X56515000Y-71156000D03*
%TO.N,/JOY1_DOWN*%
X56515000Y-68386000D03*
D14*
%TO.N,/JOY1_UP*%
X56515000Y-65616000D03*
%TD*%
D15*
%TO.N,N/C*%
%TO.C,J5*%
X96250002Y-23900001D03*
%TO.N,/PS2_CLK_5V*%
X102750001Y-23900001D03*
%TO.N,GND*%
X102750070Y-26400001D03*
%TO.N,N/C*%
X96250070Y-26400001D03*
%TO.N,+5V*%
X98200000Y-26400001D03*
%TO.N,/PS2_DATA_5V*%
X100800000Y-26400001D03*
%TD*%
D10*
%TO.N,/A3*%
%TO.C,J2*%
X124140000Y-81280000D03*
%TO.N,/A2*%
X121600000Y-81280000D03*
%TO.N,/A1*%
X124140000Y-78740000D03*
%TO.N,/A0*%
X121600000Y-78740000D03*
%TO.N,/A10*%
X124140000Y-76200000D03*
%TO.N,/BA1*%
X121600000Y-76200000D03*
%TO.N,/BA0*%
X124140000Y-73660000D03*
%TO.N,/nCS0*%
X121600000Y-73660000D03*
%TO.N,/nRAS*%
X124140000Y-71120000D03*
%TO.N,/nCAS*%
X121600000Y-71120000D03*
%TO.N,/GPIO3*%
X124140000Y-68580000D03*
%TO.N,/GPIO2*%
X121600000Y-68580000D03*
%TO.N,/A4*%
X124140000Y-66040000D03*
%TO.N,/nWE*%
X121600000Y-66040000D03*
%TO.N,/A6*%
X124140000Y-63500000D03*
%TO.N,/A5*%
X121600000Y-63500000D03*
%TO.N,/A8*%
X124140000Y-60960000D03*
%TO.N,/A7*%
X121600000Y-60960000D03*
%TO.N,/A11*%
X124140000Y-58420000D03*
%TO.N,/A9*%
X121600000Y-58420000D03*
%TO.N,/CLK*%
X124140000Y-55880000D03*
%TO.N,/A12*%
X121600000Y-55880000D03*
%TO.N,/DQ8*%
X124140000Y-53340000D03*
%TO.N,/DQ9*%
X121600000Y-53340000D03*
%TO.N,/DQ10*%
X124140000Y-50800000D03*
%TO.N,/DQ11*%
X121600000Y-50800000D03*
%TO.N,/DQ12*%
X124140000Y-48260000D03*
%TO.N,/DQ13*%
X121600000Y-48260000D03*
%TO.N,/UDQM*%
X124140000Y-45720000D03*
%TO.N,/LDQM*%
X121600000Y-45720000D03*
%TO.N,/DQ15*%
X124140000Y-43180000D03*
%TO.N,/DQ14*%
X121600000Y-43180000D03*
%TO.N,/DQ7*%
X124140000Y-40640000D03*
%TO.N,/DQ6*%
X121600000Y-40640000D03*
%TO.N,/DQ5*%
X124140000Y-38100000D03*
%TO.N,/DQ4*%
X121600000Y-38100000D03*
%TO.N,/DQ3*%
X124140000Y-35560000D03*
%TO.N,/DQ2*%
X121600000Y-35560000D03*
%TO.N,/DQ1*%
X124140000Y-33020000D03*
%TO.N,/DQ0*%
X121600000Y-33020000D03*
%TO.N,/PS2_DATA*%
X124140000Y-30480000D03*
%TO.N,/GPIO1*%
X121600000Y-30480000D03*
%TO.N,/PS2_CLK*%
X124140000Y-27940000D03*
%TO.N,/GPIO0*%
X121600000Y-27940000D03*
%TO.N,GND*%
X124140000Y-25400000D03*
D11*
X121600000Y-25400000D03*
%TD*%
D10*
%TO.N,GND*%
%TO.C,J3*%
X68580000Y-81280000D03*
X66040000Y-81280000D03*
X68580000Y-78740000D03*
X66040000Y-78740000D03*
%TO.N,/J1_PADDLE_B*%
X68580000Y-76200000D03*
%TO.N,N/C*%
X66040000Y-76200000D03*
X68580000Y-73660000D03*
X66040000Y-73660000D03*
X68580000Y-71120000D03*
X66040000Y-71120000D03*
X68580000Y-68580000D03*
X66040000Y-68580000D03*
X68580000Y-66040000D03*
X66040000Y-66040000D03*
X68580000Y-63500000D03*
%TO.N,/J1_PADDLE_A*%
X66040000Y-63500000D03*
%TO.N,/J1_RIGHT*%
X68580000Y-60960000D03*
%TO.N,/J1_LEFT*%
X66040000Y-60960000D03*
%TO.N,/J1_DOWN*%
X68580000Y-58420000D03*
%TO.N,/J1_TRIGGER*%
X66040000Y-58420000D03*
%TO.N,/J1_UP*%
X68580000Y-55880000D03*
%TO.N,/J0_PADDLE_B*%
X66040000Y-55880000D03*
%TO.N,/J0_PADDLE_A*%
X68580000Y-53340000D03*
%TO.N,/J0_RIGHT*%
X66040000Y-53340000D03*
%TO.N,/J0_LEFT*%
X68580000Y-50800000D03*
%TO.N,/J0_DOWN*%
X66040000Y-50800000D03*
%TO.N,/J0_TRIGGER*%
X68580000Y-48260000D03*
%TO.N,/J0_UP*%
X66040000Y-48260000D03*
%TO.N,/PMOD_D1*%
X68580000Y-45720000D03*
%TO.N,/PMOD_D0*%
X66040000Y-45720000D03*
%TO.N,/PMOD_D3*%
X68580000Y-43180000D03*
%TO.N,/PMOD_D2*%
X66040000Y-43180000D03*
%TO.N,/PMOD_D5*%
X68580000Y-40640000D03*
%TO.N,/PMOD_D4*%
X66040000Y-40640000D03*
%TO.N,/PMOD_D7*%
X68580000Y-38100000D03*
%TO.N,/PMOD_D6*%
X66040000Y-38100000D03*
%TO.N,N/C*%
X68580000Y-35560000D03*
X66040000Y-35560000D03*
%TO.N,+5V*%
X68580000Y-33020000D03*
X66040000Y-33020000D03*
X68580000Y-30480000D03*
X66040000Y-30480000D03*
%TO.N,+3.3VP*%
X68580000Y-27940000D03*
X66040000Y-27940000D03*
%TO.N,GND*%
X68580000Y-25400000D03*
D11*
X66040000Y-25400000D03*
%TD*%
D10*
%TO.N,/PMOD_D5*%
%TO.C,J1*%
X77343000Y-33909000D03*
%TO.N,/PMOD_D3*%
X79883000Y-33909000D03*
D11*
%TO.N,/PMOD_D7*%
X74803000Y-33909000D03*
D10*
%TO.N,+3V3*%
X87503000Y-31369000D03*
%TO.N,GND*%
X84963000Y-31369000D03*
%TO.N,/PMOD_D6*%
X74803000Y-31369000D03*
%TO.N,+3V3*%
X87503000Y-33909000D03*
%TO.N,/PMOD_D2*%
X79883000Y-31369000D03*
%TO.N,/PMOD_D0*%
X82423000Y-31369000D03*
%TO.N,GND*%
X84963000Y-33909000D03*
%TO.N,/PMOD_D1*%
X82423000Y-33909000D03*
%TO.N,/PMOD_D4*%
X77343000Y-31369000D03*
%TD*%
D16*
%TO.N,GND*%
X102673184Y-58181645D03*
X96266000Y-47498000D03*
X103800000Y-70000000D03*
X103800000Y-65200000D03*
X103808909Y-45382853D03*
X103800000Y-40600000D03*
X113000000Y-82000000D03*
X113000000Y-71600000D03*
X113000000Y-67600000D03*
X113000000Y-62800000D03*
X113000000Y-61200000D03*
X113000000Y-57400000D03*
X113000000Y-36600000D03*
X113000000Y-38200000D03*
X113000000Y-43000000D03*
X113000000Y-47000000D03*
X110998000Y-32804910D03*
D17*
X84328000Y-43434000D03*
D18*
X73406000Y-44450000D03*
D17*
%TO.N,+5V*%
X72009000Y-49022000D03*
D16*
%TO.N,+3V3*%
X113030000Y-69850000D03*
X108712000Y-31496000D03*
X96266000Y-51816000D03*
X103828000Y-82028000D03*
X103800000Y-71600000D03*
X103800000Y-67600000D03*
X103800000Y-62800000D03*
X103800000Y-61200000D03*
X103795881Y-47004119D03*
X103800000Y-43000000D03*
X103800000Y-38200000D03*
X103800000Y-57400000D03*
X113000000Y-74800000D03*
X113000000Y-65200000D03*
X113000000Y-40600000D03*
X113000000Y-45400000D03*
X113000000Y-50200000D03*
X120142000Y-29464000D03*
D19*
%TO.N,/A3*%
X101800000Y-81200000D03*
X99000000Y-56600000D03*
X103800000Y-56600000D03*
%TO.N,/A2*%
X101800000Y-80400000D03*
X99200000Y-55800000D03*
X103800000Y-55800000D03*
%TO.N,/A1*%
X101800000Y-79600000D03*
X99400000Y-55000000D03*
X103800000Y-55000000D03*
%TO.N,/A0*%
X99800000Y-54200000D03*
X101800000Y-78800000D03*
X103800000Y-54200000D03*
%TO.N,/A10*%
X101800000Y-78000000D03*
X100000000Y-53400000D03*
X103800000Y-53400000D03*
%TO.N,/BA1*%
X101800000Y-77200000D03*
X100200000Y-52600000D03*
X103800000Y-52600000D03*
%TO.N,/BA0*%
X101800000Y-76400000D03*
X100400000Y-51800000D03*
X103800000Y-51800000D03*
%TO.N,/nCS0*%
X103800000Y-51000000D03*
%TO.N,/nRAS*%
X101800000Y-74800000D03*
X100847455Y-50200000D03*
X103800000Y-50200000D03*
%TO.N,/nCAS*%
X101800000Y-74000000D03*
X101101436Y-49400000D03*
X103800000Y-49400000D03*
%TO.N,/UDQM*%
X115316000Y-56896000D03*
X116900000Y-48300000D03*
%TO.N,/LDQM*%
X101600000Y-47800000D03*
X101800000Y-72400000D03*
X103800000Y-47800000D03*
%TO.N,/nWE*%
X103800000Y-48600000D03*
X101799149Y-73235011D03*
X101200000Y-48600000D03*
%TO.N,/A6*%
X117589382Y-55000000D03*
X117589368Y-58634912D03*
%TO.N,/A5*%
X117843371Y-58000000D03*
X117843372Y-55800000D03*
%TO.N,/A8*%
X117081346Y-53400000D03*
X116857063Y-59642938D03*
%TO.N,/A7*%
X117335361Y-54200000D03*
X117400000Y-59300000D03*
%TO.N,/A11*%
X116100000Y-58600000D03*
X116544510Y-51864916D03*
%TO.N,/A9*%
X116400831Y-59199170D03*
X116865185Y-52734815D03*
%TO.N,/CLK*%
X117094000Y-50292000D03*
X115676721Y-57418608D03*
%TO.N,/A12*%
X116210000Y-50990000D03*
X115760512Y-58063355D03*
%TO.N,/DQ7*%
X103800000Y-46200000D03*
%TO.N,/DQ6*%
X103800000Y-44600000D03*
%TO.N,/DQ5*%
X103800000Y-43800000D03*
%TO.N,/DQ4*%
X103800000Y-42200000D03*
%TO.N,/DQ3*%
X103800000Y-41400000D03*
%TO.N,/DQ2*%
X103800000Y-39800000D03*
%TO.N,/DQ1*%
X103800000Y-39000000D03*
%TO.N,/DQ0*%
X103800000Y-37400000D03*
%TD*%
D20*
%TO.N,+3.3VP*%
X66040000Y-27940000D02*
X68580000Y-27940000D01*
%TO.N,+3V3*%
X108966000Y-44450000D02*
X108966000Y-45720000D01*
X107442000Y-62738000D02*
X108966000Y-61214000D01*
X107442000Y-67564000D02*
X108966000Y-66040000D01*
X108966000Y-63754000D02*
X108966000Y-66040000D01*
X108204000Y-71628000D02*
X108966000Y-70866000D01*
X108966000Y-68834000D02*
X108966000Y-70866000D01*
X109982000Y-69850000D02*
X108966000Y-68834000D01*
X113030000Y-69850000D02*
X109982000Y-69850000D01*
X108966000Y-66040000D02*
X108966000Y-68834000D01*
X108966000Y-70866000D02*
X108966000Y-73152000D01*
X108966000Y-55626000D02*
X107188000Y-57404000D01*
X108966000Y-49022000D02*
X108966000Y-55626000D01*
X107188000Y-57404000D02*
X103886000Y-57404000D01*
X108712000Y-31496000D02*
X108966000Y-31750000D01*
X108966000Y-59944000D02*
X108966000Y-61214000D01*
X104322000Y-81534000D02*
X103828000Y-82028000D01*
X108966000Y-73152000D02*
X108966000Y-81534000D01*
X108966000Y-81534000D02*
X104322000Y-81534000D01*
X103828000Y-71628000D02*
X103800000Y-71600000D01*
X108204000Y-71628000D02*
X103828000Y-71628000D01*
X103836000Y-67564000D02*
X103800000Y-67600000D01*
X107442000Y-67564000D02*
X103836000Y-67564000D01*
X103862000Y-62738000D02*
X103800000Y-62800000D01*
X107442000Y-62738000D02*
X103862000Y-62738000D01*
X108966000Y-59766000D02*
X108834000Y-59766000D01*
X108966000Y-55626000D02*
X108966000Y-59766000D01*
X108966000Y-59766000D02*
X108966000Y-59944000D01*
X107400000Y-61200000D02*
X103800000Y-61200000D01*
X108834000Y-59766000D02*
X107400000Y-61200000D01*
X96266000Y-51816000D02*
X101082000Y-47000000D01*
X101082000Y-47000000D02*
X103791762Y-47000000D01*
X107681881Y-47004119D02*
X104334696Y-47004119D01*
X108966000Y-45720000D02*
X107681881Y-47004119D01*
X104334696Y-47004119D02*
X103795881Y-47004119D01*
X103791762Y-47000000D02*
X103795881Y-47004119D01*
X108966000Y-41634000D02*
X108966000Y-42164000D01*
X107200000Y-43000000D02*
X103800000Y-43000000D01*
X107200000Y-43000000D02*
X108966000Y-41234000D01*
X108966000Y-41234000D02*
X108966000Y-41634000D01*
X108966000Y-39878000D02*
X108966000Y-41234000D01*
X108966000Y-36966000D02*
X108966000Y-37234000D01*
X108966000Y-31750000D02*
X108966000Y-36966000D01*
X108966000Y-36966000D02*
X108966000Y-37592000D01*
X108000000Y-38200000D02*
X103800000Y-38200000D01*
X108966000Y-37234000D02*
X108000000Y-38200000D01*
X110000000Y-74800000D02*
X113000000Y-74800000D01*
X108966000Y-73766000D02*
X110000000Y-74800000D01*
X108966000Y-73152000D02*
X108966000Y-73766000D01*
X108966000Y-63034000D02*
X108966000Y-64366000D01*
X108966000Y-61214000D02*
X108966000Y-63034000D01*
X109800000Y-65200000D02*
X113000000Y-65200000D01*
X108966000Y-64366000D02*
X109800000Y-65200000D01*
X108966000Y-38766000D02*
X108966000Y-39166000D01*
X108966000Y-37592000D02*
X108966000Y-38766000D01*
X108966000Y-38766000D02*
X108966000Y-39878000D01*
X110400000Y-40600000D02*
X113000000Y-40600000D01*
X108966000Y-39166000D02*
X110400000Y-40600000D01*
X108966000Y-43366000D02*
X111000000Y-45400000D01*
X108966000Y-42164000D02*
X108966000Y-43366000D01*
X108966000Y-43366000D02*
X108966000Y-44450000D01*
X111000000Y-45400000D02*
X113000000Y-45400000D01*
X108966000Y-47966000D02*
X108966000Y-48766000D01*
X108966000Y-45720000D02*
X108966000Y-47966000D01*
X108966000Y-47966000D02*
X108966000Y-49022000D01*
X110400000Y-50200000D02*
X113000000Y-50200000D01*
X108966000Y-48766000D02*
X110400000Y-50200000D01*
X108616000Y-31400000D02*
X108712000Y-31496000D01*
X87503000Y-31369000D02*
X87503000Y-33909000D01*
X87503000Y-33909000D02*
X91948000Y-38354000D01*
X103646000Y-38354000D02*
X103800000Y-38200000D01*
X91948000Y-38354000D02*
X103646000Y-38354000D01*
X110744000Y-29464000D02*
X108712000Y-31496000D01*
X120142000Y-29464000D02*
X110744000Y-29464000D01*
X87249000Y-46863000D02*
X93345000Y-46863000D01*
X96266000Y-49784000D02*
X96266000Y-51816000D01*
X93345000Y-46863000D02*
X96266000Y-49784000D01*
%TO.N,+3.3VP*%
X87249000Y-44323000D02*
X78105000Y-44323000D01*
X78105000Y-44323000D02*
X70485000Y-36703000D01*
X70485000Y-29845000D02*
X68580000Y-27940000D01*
X70485000Y-36703000D02*
X70485000Y-29845000D01*
%TD*%
%TO.N,+3.3VP*%
G36*
X70993000Y-36957000D02*
G01*
X70995440Y-36981776D01*
X71002667Y-37005601D01*
X71014403Y-37027557D01*
X71030197Y-37046803D01*
X71049443Y-37062597D01*
X71071399Y-37074333D01*
X71095224Y-37081560D01*
X71120000Y-37084000D01*
X84272474Y-37084000D01*
X88900000Y-42086731D01*
X88900000Y-45212000D01*
X74260446Y-45212000D01*
X74293826Y-45178620D01*
X74418913Y-44991413D01*
X74505075Y-44783401D01*
X74549000Y-44562576D01*
X74549000Y-44337424D01*
X74505075Y-44116599D01*
X74418913Y-43908587D01*
X74293826Y-43721380D01*
X74134620Y-43562174D01*
X73947413Y-43437087D01*
X73739401Y-43350925D01*
X73528209Y-43308916D01*
X83058000Y-43308916D01*
X83058000Y-43559084D01*
X83106805Y-43804445D01*
X83202541Y-44035571D01*
X83341527Y-44243578D01*
X83518422Y-44420473D01*
X83726429Y-44559459D01*
X83957555Y-44655195D01*
X84202916Y-44704000D01*
X84453084Y-44704000D01*
X84698445Y-44655195D01*
X84929571Y-44559459D01*
X85137578Y-44420473D01*
X85314473Y-44243578D01*
X85453459Y-44035571D01*
X85549195Y-43804445D01*
X85598000Y-43559084D01*
X85598000Y-43308916D01*
X85549195Y-43063555D01*
X85453459Y-42832429D01*
X85314473Y-42624422D01*
X85137578Y-42447527D01*
X84929571Y-42308541D01*
X84698445Y-42212805D01*
X84453084Y-42164000D01*
X84202916Y-42164000D01*
X83957555Y-42212805D01*
X83726429Y-42308541D01*
X83518422Y-42447527D01*
X83341527Y-42624422D01*
X83202541Y-42832429D01*
X83106805Y-43063555D01*
X83058000Y-43308916D01*
X73528209Y-43308916D01*
X73518576Y-43307000D01*
X73293424Y-43307000D01*
X73072599Y-43350925D01*
X72864587Y-43437087D01*
X72677380Y-43562174D01*
X72518174Y-43721380D01*
X72393087Y-43908587D01*
X72306925Y-44116599D01*
X72263000Y-44337424D01*
X72263000Y-44562576D01*
X72306925Y-44783401D01*
X72393087Y-44991413D01*
X72518174Y-45178620D01*
X72551554Y-45212000D01*
X69976932Y-45212000D01*
X69895990Y-45016589D01*
X69733475Y-44773368D01*
X69526632Y-44566525D01*
X69352240Y-44450000D01*
X69526632Y-44333475D01*
X69733475Y-44126632D01*
X69895990Y-43883411D01*
X70007932Y-43613158D01*
X70065000Y-43326260D01*
X70065000Y-43033740D01*
X70007932Y-42746842D01*
X69895990Y-42476589D01*
X69733475Y-42233368D01*
X69526632Y-42026525D01*
X69352240Y-41910000D01*
X69526632Y-41793475D01*
X69733475Y-41586632D01*
X69895990Y-41343411D01*
X70007932Y-41073158D01*
X70065000Y-40786260D01*
X70065000Y-40493740D01*
X70007932Y-40206842D01*
X69895990Y-39936589D01*
X69733475Y-39693368D01*
X69526632Y-39486525D01*
X69352240Y-39370000D01*
X69526632Y-39253475D01*
X69733475Y-39046632D01*
X69895990Y-38803411D01*
X70007932Y-38533158D01*
X70065000Y-38246260D01*
X70065000Y-37953740D01*
X70007932Y-37666842D01*
X69895990Y-37396589D01*
X69733475Y-37153368D01*
X69526632Y-36946525D01*
X69352240Y-36830000D01*
X69526632Y-36713475D01*
X69733475Y-36506632D01*
X69895990Y-36263411D01*
X70007932Y-35993158D01*
X70065000Y-35706260D01*
X70065000Y-35413740D01*
X70007932Y-35126842D01*
X69895990Y-34856589D01*
X69733475Y-34613368D01*
X69526632Y-34406525D01*
X69352240Y-34290000D01*
X69526632Y-34173475D01*
X69733475Y-33966632D01*
X69895990Y-33723411D01*
X70007932Y-33453158D01*
X70065000Y-33166260D01*
X70065000Y-32873740D01*
X70007932Y-32586842D01*
X69895990Y-32316589D01*
X69733475Y-32073368D01*
X69526632Y-31866525D01*
X69352240Y-31750000D01*
X69526632Y-31633475D01*
X69733475Y-31426632D01*
X69895990Y-31183411D01*
X70007932Y-30913158D01*
X70065000Y-30626260D01*
X70065000Y-30333740D01*
X70007932Y-30046842D01*
X69895990Y-29776589D01*
X69733475Y-29533368D01*
X69526632Y-29326525D01*
X69283411Y-29164010D01*
X69013158Y-29052068D01*
X68726260Y-28995000D01*
X68433740Y-28995000D01*
X68146842Y-29052068D01*
X67876589Y-29164010D01*
X67633368Y-29326525D01*
X67426525Y-29533368D01*
X67310000Y-29707760D01*
X67193475Y-29533368D01*
X66986632Y-29326525D01*
X66743411Y-29164010D01*
X66473158Y-29052068D01*
X66186260Y-28995000D01*
X65893740Y-28995000D01*
X65606842Y-29052068D01*
X65336589Y-29164010D01*
X65093368Y-29326525D01*
X64886525Y-29533368D01*
X64724010Y-29776589D01*
X64612068Y-30046842D01*
X64555000Y-30333740D01*
X64555000Y-30626260D01*
X64612068Y-30913158D01*
X64724010Y-31183411D01*
X64886525Y-31426632D01*
X65093368Y-31633475D01*
X65267760Y-31750000D01*
X65093368Y-31866525D01*
X64886525Y-32073368D01*
X64724010Y-32316589D01*
X64612068Y-32586842D01*
X64555000Y-32873740D01*
X64555000Y-33166260D01*
X64612068Y-33453158D01*
X64724010Y-33723411D01*
X64886525Y-33966632D01*
X65093368Y-34173475D01*
X65267760Y-34290000D01*
X65093368Y-34406525D01*
X64886525Y-34613368D01*
X64724010Y-34856589D01*
X64612068Y-35126842D01*
X64555000Y-35413740D01*
X64555000Y-35706260D01*
X64612068Y-35993158D01*
X64724010Y-36263411D01*
X64886525Y-36506632D01*
X65093368Y-36713475D01*
X65267760Y-36830000D01*
X65093368Y-36946525D01*
X64886525Y-37153368D01*
X64724010Y-37396589D01*
X64612068Y-37666842D01*
X64555000Y-37953740D01*
X64555000Y-38246260D01*
X64612068Y-38533158D01*
X64724010Y-38803411D01*
X64886525Y-39046632D01*
X65093368Y-39253475D01*
X65267760Y-39370000D01*
X65093368Y-39486525D01*
X64886525Y-39693368D01*
X64724010Y-39936589D01*
X64612068Y-40206842D01*
X64555000Y-40493740D01*
X64555000Y-40786260D01*
X64612068Y-41073158D01*
X64724010Y-41343411D01*
X64886525Y-41586632D01*
X65093368Y-41793475D01*
X65267760Y-41910000D01*
X65093368Y-42026525D01*
X64886525Y-42233368D01*
X64724010Y-42476589D01*
X64612068Y-42746842D01*
X64555000Y-43033740D01*
X64555000Y-43326260D01*
X64612068Y-43613158D01*
X64724010Y-43883411D01*
X64886525Y-44126632D01*
X65093368Y-44333475D01*
X65267760Y-44450000D01*
X65093368Y-44566525D01*
X64886525Y-44773368D01*
X64724010Y-45016589D01*
X64643068Y-45212000D01*
X57829908Y-45212000D01*
X57854000Y-45090880D01*
X57854000Y-44827120D01*
X57802543Y-44568428D01*
X57701607Y-44324746D01*
X57555069Y-44105437D01*
X57368563Y-43918931D01*
X57149254Y-43772393D01*
X56905572Y-43671457D01*
X56646880Y-43620000D01*
X56383120Y-43620000D01*
X56124428Y-43671457D01*
X55880746Y-43772393D01*
X55661437Y-43918931D01*
X55474931Y-44105437D01*
X55328393Y-44324746D01*
X55227457Y-44568428D01*
X55176000Y-44827120D01*
X55176000Y-45090880D01*
X55200092Y-45212000D01*
X51206000Y-45212000D01*
X51206000Y-43442120D01*
X52636000Y-43442120D01*
X52636000Y-43705880D01*
X52687457Y-43964572D01*
X52788393Y-44208254D01*
X52934931Y-44427563D01*
X53121437Y-44614069D01*
X53340746Y-44760607D01*
X53584428Y-44861543D01*
X53843120Y-44913000D01*
X54106880Y-44913000D01*
X54365572Y-44861543D01*
X54609254Y-44760607D01*
X54828563Y-44614069D01*
X55015069Y-44427563D01*
X55161607Y-44208254D01*
X55262543Y-43964572D01*
X55314000Y-43705880D01*
X55314000Y-43442120D01*
X55262543Y-43183428D01*
X55161607Y-42939746D01*
X55015069Y-42720437D01*
X54828563Y-42533931D01*
X54609254Y-42387393D01*
X54365572Y-42286457D01*
X54106880Y-42235000D01*
X53843120Y-42235000D01*
X53584428Y-42286457D01*
X53340746Y-42387393D01*
X53121437Y-42533931D01*
X52934931Y-42720437D01*
X52788393Y-42939746D01*
X52687457Y-43183428D01*
X52636000Y-43442120D01*
X51206000Y-43442120D01*
X51206000Y-40672120D01*
X52636000Y-40672120D01*
X52636000Y-40935880D01*
X52687457Y-41194572D01*
X52788393Y-41438254D01*
X52934931Y-41657563D01*
X53121437Y-41844069D01*
X53340746Y-41990607D01*
X53584428Y-42091543D01*
X53843120Y-42143000D01*
X54106880Y-42143000D01*
X54365572Y-42091543D01*
X54448676Y-42057120D01*
X55176000Y-42057120D01*
X55176000Y-42320880D01*
X55227457Y-42579572D01*
X55328393Y-42823254D01*
X55474931Y-43042563D01*
X55661437Y-43229069D01*
X55880746Y-43375607D01*
X56124428Y-43476543D01*
X56383120Y-43528000D01*
X56646880Y-43528000D01*
X56905572Y-43476543D01*
X57149254Y-43375607D01*
X57368563Y-43229069D01*
X57555069Y-43042563D01*
X57701607Y-42823254D01*
X57802543Y-42579572D01*
X57854000Y-42320880D01*
X57854000Y-42057120D01*
X57802543Y-41798428D01*
X57701607Y-41554746D01*
X57555069Y-41335437D01*
X57368563Y-41148931D01*
X57149254Y-41002393D01*
X56905572Y-40901457D01*
X56646880Y-40850000D01*
X56383120Y-40850000D01*
X56124428Y-40901457D01*
X55880746Y-41002393D01*
X55661437Y-41148931D01*
X55474931Y-41335437D01*
X55328393Y-41554746D01*
X55227457Y-41798428D01*
X55176000Y-42057120D01*
X54448676Y-42057120D01*
X54609254Y-41990607D01*
X54828563Y-41844069D01*
X55015069Y-41657563D01*
X55161607Y-41438254D01*
X55262543Y-41194572D01*
X55314000Y-40935880D01*
X55314000Y-40672120D01*
X55262543Y-40413428D01*
X55161607Y-40169746D01*
X55015069Y-39950437D01*
X54828563Y-39763931D01*
X54609254Y-39617393D01*
X54365572Y-39516457D01*
X54106880Y-39465000D01*
X53843120Y-39465000D01*
X53584428Y-39516457D01*
X53340746Y-39617393D01*
X53121437Y-39763931D01*
X52934931Y-39950437D01*
X52788393Y-40169746D01*
X52687457Y-40413428D01*
X52636000Y-40672120D01*
X51206000Y-40672120D01*
X51206000Y-37902120D01*
X52636000Y-37902120D01*
X52636000Y-38165880D01*
X52687457Y-38424572D01*
X52788393Y-38668254D01*
X52934931Y-38887563D01*
X53121437Y-39074069D01*
X53340746Y-39220607D01*
X53584428Y-39321543D01*
X53843120Y-39373000D01*
X54106880Y-39373000D01*
X54365572Y-39321543D01*
X54448676Y-39287120D01*
X55176000Y-39287120D01*
X55176000Y-39550880D01*
X55227457Y-39809572D01*
X55328393Y-40053254D01*
X55474931Y-40272563D01*
X55661437Y-40459069D01*
X55880746Y-40605607D01*
X56124428Y-40706543D01*
X56383120Y-40758000D01*
X56646880Y-40758000D01*
X56905572Y-40706543D01*
X57149254Y-40605607D01*
X57368563Y-40459069D01*
X57555069Y-40272563D01*
X57701607Y-40053254D01*
X57802543Y-39809572D01*
X57854000Y-39550880D01*
X57854000Y-39287120D01*
X57802543Y-39028428D01*
X57701607Y-38784746D01*
X57555069Y-38565437D01*
X57368563Y-38378931D01*
X57149254Y-38232393D01*
X56905572Y-38131457D01*
X56646880Y-38080000D01*
X56383120Y-38080000D01*
X56124428Y-38131457D01*
X55880746Y-38232393D01*
X55661437Y-38378931D01*
X55474931Y-38565437D01*
X55328393Y-38784746D01*
X55227457Y-39028428D01*
X55176000Y-39287120D01*
X54448676Y-39287120D01*
X54609254Y-39220607D01*
X54828563Y-39074069D01*
X55015069Y-38887563D01*
X55161607Y-38668254D01*
X55262543Y-38424572D01*
X55314000Y-38165880D01*
X55314000Y-37902120D01*
X55262543Y-37643428D01*
X55161607Y-37399746D01*
X55015069Y-37180437D01*
X54828563Y-36993931D01*
X54609254Y-36847393D01*
X54365572Y-36746457D01*
X54106880Y-36695000D01*
X53843120Y-36695000D01*
X53584428Y-36746457D01*
X53340746Y-36847393D01*
X53121437Y-36993931D01*
X52934931Y-37180437D01*
X52788393Y-37399746D01*
X52687457Y-37643428D01*
X52636000Y-37902120D01*
X51206000Y-37902120D01*
X51206000Y-35132120D01*
X52636000Y-35132120D01*
X52636000Y-35395880D01*
X52687457Y-35654572D01*
X52788393Y-35898254D01*
X52934931Y-36117563D01*
X53121437Y-36304069D01*
X53340746Y-36450607D01*
X53584428Y-36551543D01*
X53843120Y-36603000D01*
X54106880Y-36603000D01*
X54365572Y-36551543D01*
X54448676Y-36517120D01*
X55176000Y-36517120D01*
X55176000Y-36780880D01*
X55227457Y-37039572D01*
X55328393Y-37283254D01*
X55474931Y-37502563D01*
X55661437Y-37689069D01*
X55880746Y-37835607D01*
X56124428Y-37936543D01*
X56383120Y-37988000D01*
X56646880Y-37988000D01*
X56905572Y-37936543D01*
X57149254Y-37835607D01*
X57368563Y-37689069D01*
X57555069Y-37502563D01*
X57701607Y-37283254D01*
X57802543Y-37039572D01*
X57854000Y-36780880D01*
X57854000Y-36517120D01*
X57802543Y-36258428D01*
X57701607Y-36014746D01*
X57555069Y-35795437D01*
X57368563Y-35608931D01*
X57149254Y-35462393D01*
X56905572Y-35361457D01*
X56646880Y-35310000D01*
X56383120Y-35310000D01*
X56124428Y-35361457D01*
X55880746Y-35462393D01*
X55661437Y-35608931D01*
X55474931Y-35795437D01*
X55328393Y-36014746D01*
X55227457Y-36258428D01*
X55176000Y-36517120D01*
X54448676Y-36517120D01*
X54609254Y-36450607D01*
X54828563Y-36304069D01*
X55015069Y-36117563D01*
X55161607Y-35898254D01*
X55262543Y-35654572D01*
X55314000Y-35395880D01*
X55314000Y-35132120D01*
X55272218Y-34922070D01*
X55280463Y-34937494D01*
X55359815Y-35034185D01*
X55456506Y-35113537D01*
X55566820Y-35172502D01*
X55686518Y-35208812D01*
X55811000Y-35221072D01*
X57219000Y-35221072D01*
X57343482Y-35208812D01*
X57463180Y-35172502D01*
X57573494Y-35113537D01*
X57670185Y-35034185D01*
X57749537Y-34937494D01*
X57808502Y-34827180D01*
X57844812Y-34707482D01*
X57857072Y-34583000D01*
X57857072Y-33175000D01*
X57844812Y-33050518D01*
X57808502Y-32930820D01*
X57749537Y-32820506D01*
X57670185Y-32723815D01*
X57573494Y-32644463D01*
X57463180Y-32585498D01*
X57343482Y-32549188D01*
X57219000Y-32536928D01*
X55811000Y-32536928D01*
X55686518Y-32549188D01*
X55566820Y-32585498D01*
X55456506Y-32644463D01*
X55359815Y-32723815D01*
X55280463Y-32820506D01*
X55221498Y-32930820D01*
X55185188Y-33050518D01*
X55172928Y-33175000D01*
X55172928Y-34583000D01*
X55182500Y-34680185D01*
X55161607Y-34629746D01*
X55015069Y-34410437D01*
X54828563Y-34223931D01*
X54609254Y-34077393D01*
X54365572Y-33976457D01*
X54106880Y-33925000D01*
X53843120Y-33925000D01*
X53584428Y-33976457D01*
X53340746Y-34077393D01*
X53121437Y-34223931D01*
X52934931Y-34410437D01*
X52788393Y-34629746D01*
X52687457Y-34873428D01*
X52636000Y-35132120D01*
X51206000Y-35132120D01*
X51206000Y-26653838D01*
X52502000Y-26653838D01*
X52502000Y-27194162D01*
X52607412Y-27724104D01*
X52814185Y-28223298D01*
X53114373Y-28672560D01*
X53496440Y-29054627D01*
X53945702Y-29354815D01*
X54444896Y-29561588D01*
X54974838Y-29667000D01*
X55515162Y-29667000D01*
X56045104Y-29561588D01*
X56544298Y-29354815D01*
X56993560Y-29054627D01*
X57375627Y-28672560D01*
X57675815Y-28223298D01*
X57882588Y-27724104D01*
X57988000Y-27194162D01*
X57988000Y-26653838D01*
X57882588Y-26123896D01*
X57675815Y-25624702D01*
X57375627Y-25175440D01*
X56993560Y-24793373D01*
X56629328Y-24550000D01*
X64551928Y-24550000D01*
X64551928Y-26250000D01*
X64564188Y-26374482D01*
X64600498Y-26494180D01*
X64659463Y-26604494D01*
X64738815Y-26701185D01*
X64835506Y-26780537D01*
X64945820Y-26839502D01*
X65065518Y-26875812D01*
X65190000Y-26888072D01*
X66890000Y-26888072D01*
X67014482Y-26875812D01*
X67134180Y-26839502D01*
X67244494Y-26780537D01*
X67341185Y-26701185D01*
X67420537Y-26604494D01*
X67479502Y-26494180D01*
X67501513Y-26421620D01*
X67633368Y-26553475D01*
X67876589Y-26715990D01*
X68146842Y-26827932D01*
X68433740Y-26885000D01*
X68726260Y-26885000D01*
X69013158Y-26827932D01*
X69283411Y-26715990D01*
X69526632Y-26553475D01*
X69733475Y-26346632D01*
X69895990Y-26103411D01*
X70007932Y-25833158D01*
X70065000Y-25546260D01*
X70065000Y-25253740D01*
X70007932Y-24966842D01*
X69895990Y-24696589D01*
X69733475Y-24453368D01*
X69526632Y-24246525D01*
X69283411Y-24084010D01*
X69013158Y-23972068D01*
X68726260Y-23915000D01*
X68433740Y-23915000D01*
X68146842Y-23972068D01*
X67876589Y-24084010D01*
X67633368Y-24246525D01*
X67501513Y-24378380D01*
X67479502Y-24305820D01*
X67420537Y-24195506D01*
X67341185Y-24098815D01*
X67244494Y-24019463D01*
X67134180Y-23960498D01*
X67014482Y-23924188D01*
X66890000Y-23911928D01*
X65190000Y-23911928D01*
X65065518Y-23924188D01*
X64945820Y-23960498D01*
X64835506Y-24019463D01*
X64738815Y-24098815D01*
X64659463Y-24195506D01*
X64600498Y-24305820D01*
X64564188Y-24425518D01*
X64551928Y-24550000D01*
X56629328Y-24550000D01*
X56544298Y-24493185D01*
X56045104Y-24286412D01*
X55515162Y-24181000D01*
X54974838Y-24181000D01*
X54444896Y-24286412D01*
X53945702Y-24493185D01*
X53496440Y-24793373D01*
X53114373Y-25175440D01*
X52814185Y-25624702D01*
X52607412Y-26123896D01*
X52502000Y-26653838D01*
X51206000Y-26653838D01*
X51206000Y-23400279D01*
X51213466Y-23324137D01*
X51226205Y-23281942D01*
X51246898Y-23243024D01*
X51274755Y-23208868D01*
X51308714Y-23180775D01*
X51347485Y-23159812D01*
X51389593Y-23146777D01*
X51463588Y-23139000D01*
X70993000Y-23139000D01*
X70993000Y-36957000D01*
G37*
X70993000Y-36957000D02*
X70995440Y-36981776D01*
X71002667Y-37005601D01*
X71014403Y-37027557D01*
X71030197Y-37046803D01*
X71049443Y-37062597D01*
X71071399Y-37074333D01*
X71095224Y-37081560D01*
X71120000Y-37084000D01*
X84272474Y-37084000D01*
X88900000Y-42086731D01*
X88900000Y-45212000D01*
X74260446Y-45212000D01*
X74293826Y-45178620D01*
X74418913Y-44991413D01*
X74505075Y-44783401D01*
X74549000Y-44562576D01*
X74549000Y-44337424D01*
X74505075Y-44116599D01*
X74418913Y-43908587D01*
X74293826Y-43721380D01*
X74134620Y-43562174D01*
X73947413Y-43437087D01*
X73739401Y-43350925D01*
X73528209Y-43308916D01*
X83058000Y-43308916D01*
X83058000Y-43559084D01*
X83106805Y-43804445D01*
X83202541Y-44035571D01*
X83341527Y-44243578D01*
X83518422Y-44420473D01*
X83726429Y-44559459D01*
X83957555Y-44655195D01*
X84202916Y-44704000D01*
X84453084Y-44704000D01*
X84698445Y-44655195D01*
X84929571Y-44559459D01*
X85137578Y-44420473D01*
X85314473Y-44243578D01*
X85453459Y-44035571D01*
X85549195Y-43804445D01*
X85598000Y-43559084D01*
X85598000Y-43308916D01*
X85549195Y-43063555D01*
X85453459Y-42832429D01*
X85314473Y-42624422D01*
X85137578Y-42447527D01*
X84929571Y-42308541D01*
X84698445Y-42212805D01*
X84453084Y-42164000D01*
X84202916Y-42164000D01*
X83957555Y-42212805D01*
X83726429Y-42308541D01*
X83518422Y-42447527D01*
X83341527Y-42624422D01*
X83202541Y-42832429D01*
X83106805Y-43063555D01*
X83058000Y-43308916D01*
X73528209Y-43308916D01*
X73518576Y-43307000D01*
X73293424Y-43307000D01*
X73072599Y-43350925D01*
X72864587Y-43437087D01*
X72677380Y-43562174D01*
X72518174Y-43721380D01*
X72393087Y-43908587D01*
X72306925Y-44116599D01*
X72263000Y-44337424D01*
X72263000Y-44562576D01*
X72306925Y-44783401D01*
X72393087Y-44991413D01*
X72518174Y-45178620D01*
X72551554Y-45212000D01*
X69976932Y-45212000D01*
X69895990Y-45016589D01*
X69733475Y-44773368D01*
X69526632Y-44566525D01*
X69352240Y-44450000D01*
X69526632Y-44333475D01*
X69733475Y-44126632D01*
X69895990Y-43883411D01*
X70007932Y-43613158D01*
X70065000Y-43326260D01*
X70065000Y-43033740D01*
X70007932Y-42746842D01*
X69895990Y-42476589D01*
X69733475Y-42233368D01*
X69526632Y-42026525D01*
X69352240Y-41910000D01*
X69526632Y-41793475D01*
X69733475Y-41586632D01*
X69895990Y-41343411D01*
X70007932Y-41073158D01*
X70065000Y-40786260D01*
X70065000Y-40493740D01*
X70007932Y-40206842D01*
X69895990Y-39936589D01*
X69733475Y-39693368D01*
X69526632Y-39486525D01*
X69352240Y-39370000D01*
X69526632Y-39253475D01*
X69733475Y-39046632D01*
X69895990Y-38803411D01*
X70007932Y-38533158D01*
X70065000Y-38246260D01*
X70065000Y-37953740D01*
X70007932Y-37666842D01*
X69895990Y-37396589D01*
X69733475Y-37153368D01*
X69526632Y-36946525D01*
X69352240Y-36830000D01*
X69526632Y-36713475D01*
X69733475Y-36506632D01*
X69895990Y-36263411D01*
X70007932Y-35993158D01*
X70065000Y-35706260D01*
X70065000Y-35413740D01*
X70007932Y-35126842D01*
X69895990Y-34856589D01*
X69733475Y-34613368D01*
X69526632Y-34406525D01*
X69352240Y-34290000D01*
X69526632Y-34173475D01*
X69733475Y-33966632D01*
X69895990Y-33723411D01*
X70007932Y-33453158D01*
X70065000Y-33166260D01*
X70065000Y-32873740D01*
X70007932Y-32586842D01*
X69895990Y-32316589D01*
X69733475Y-32073368D01*
X69526632Y-31866525D01*
X69352240Y-31750000D01*
X69526632Y-31633475D01*
X69733475Y-31426632D01*
X69895990Y-31183411D01*
X70007932Y-30913158D01*
X70065000Y-30626260D01*
X70065000Y-30333740D01*
X70007932Y-30046842D01*
X69895990Y-29776589D01*
X69733475Y-29533368D01*
X69526632Y-29326525D01*
X69283411Y-29164010D01*
X69013158Y-29052068D01*
X68726260Y-28995000D01*
X68433740Y-28995000D01*
X68146842Y-29052068D01*
X67876589Y-29164010D01*
X67633368Y-29326525D01*
X67426525Y-29533368D01*
X67310000Y-29707760D01*
X67193475Y-29533368D01*
X66986632Y-29326525D01*
X66743411Y-29164010D01*
X66473158Y-29052068D01*
X66186260Y-28995000D01*
X65893740Y-28995000D01*
X65606842Y-29052068D01*
X65336589Y-29164010D01*
X65093368Y-29326525D01*
X64886525Y-29533368D01*
X64724010Y-29776589D01*
X64612068Y-30046842D01*
X64555000Y-30333740D01*
X64555000Y-30626260D01*
X64612068Y-30913158D01*
X64724010Y-31183411D01*
X64886525Y-31426632D01*
X65093368Y-31633475D01*
X65267760Y-31750000D01*
X65093368Y-31866525D01*
X64886525Y-32073368D01*
X64724010Y-32316589D01*
X64612068Y-32586842D01*
X64555000Y-32873740D01*
X64555000Y-33166260D01*
X64612068Y-33453158D01*
X64724010Y-33723411D01*
X64886525Y-33966632D01*
X65093368Y-34173475D01*
X65267760Y-34290000D01*
X65093368Y-34406525D01*
X64886525Y-34613368D01*
X64724010Y-34856589D01*
X64612068Y-35126842D01*
X64555000Y-35413740D01*
X64555000Y-35706260D01*
X64612068Y-35993158D01*
X64724010Y-36263411D01*
X64886525Y-36506632D01*
X65093368Y-36713475D01*
X65267760Y-36830000D01*
X65093368Y-36946525D01*
X64886525Y-37153368D01*
X64724010Y-37396589D01*
X64612068Y-37666842D01*
X64555000Y-37953740D01*
X64555000Y-38246260D01*
X64612068Y-38533158D01*
X64724010Y-38803411D01*
X64886525Y-39046632D01*
X65093368Y-39253475D01*
X65267760Y-39370000D01*
X65093368Y-39486525D01*
X64886525Y-39693368D01*
X64724010Y-39936589D01*
X64612068Y-40206842D01*
X64555000Y-40493740D01*
X64555000Y-40786260D01*
X64612068Y-41073158D01*
X64724010Y-41343411D01*
X64886525Y-41586632D01*
X65093368Y-41793475D01*
X65267760Y-41910000D01*
X65093368Y-42026525D01*
X64886525Y-42233368D01*
X64724010Y-42476589D01*
X64612068Y-42746842D01*
X64555000Y-43033740D01*
X64555000Y-43326260D01*
X64612068Y-43613158D01*
X64724010Y-43883411D01*
X64886525Y-44126632D01*
X65093368Y-44333475D01*
X65267760Y-44450000D01*
X65093368Y-44566525D01*
X64886525Y-44773368D01*
X64724010Y-45016589D01*
X64643068Y-45212000D01*
X57829908Y-45212000D01*
X57854000Y-45090880D01*
X57854000Y-44827120D01*
X57802543Y-44568428D01*
X57701607Y-44324746D01*
X57555069Y-44105437D01*
X57368563Y-43918931D01*
X57149254Y-43772393D01*
X56905572Y-43671457D01*
X56646880Y-43620000D01*
X56383120Y-43620000D01*
X56124428Y-43671457D01*
X55880746Y-43772393D01*
X55661437Y-43918931D01*
X55474931Y-44105437D01*
X55328393Y-44324746D01*
X55227457Y-44568428D01*
X55176000Y-44827120D01*
X55176000Y-45090880D01*
X55200092Y-45212000D01*
X51206000Y-45212000D01*
X51206000Y-43442120D01*
X52636000Y-43442120D01*
X52636000Y-43705880D01*
X52687457Y-43964572D01*
X52788393Y-44208254D01*
X52934931Y-44427563D01*
X53121437Y-44614069D01*
X53340746Y-44760607D01*
X53584428Y-44861543D01*
X53843120Y-44913000D01*
X54106880Y-44913000D01*
X54365572Y-44861543D01*
X54609254Y-44760607D01*
X54828563Y-44614069D01*
X55015069Y-44427563D01*
X55161607Y-44208254D01*
X55262543Y-43964572D01*
X55314000Y-43705880D01*
X55314000Y-43442120D01*
X55262543Y-43183428D01*
X55161607Y-42939746D01*
X55015069Y-42720437D01*
X54828563Y-42533931D01*
X54609254Y-42387393D01*
X54365572Y-42286457D01*
X54106880Y-42235000D01*
X53843120Y-42235000D01*
X53584428Y-42286457D01*
X53340746Y-42387393D01*
X53121437Y-42533931D01*
X52934931Y-42720437D01*
X52788393Y-42939746D01*
X52687457Y-43183428D01*
X52636000Y-43442120D01*
X51206000Y-43442120D01*
X51206000Y-40672120D01*
X52636000Y-40672120D01*
X52636000Y-40935880D01*
X52687457Y-41194572D01*
X52788393Y-41438254D01*
X52934931Y-41657563D01*
X53121437Y-41844069D01*
X53340746Y-41990607D01*
X53584428Y-42091543D01*
X53843120Y-42143000D01*
X54106880Y-42143000D01*
X54365572Y-42091543D01*
X54448676Y-42057120D01*
X55176000Y-42057120D01*
X55176000Y-42320880D01*
X55227457Y-42579572D01*
X55328393Y-42823254D01*
X55474931Y-43042563D01*
X55661437Y-43229069D01*
X55880746Y-43375607D01*
X56124428Y-43476543D01*
X56383120Y-43528000D01*
X56646880Y-43528000D01*
X56905572Y-43476543D01*
X57149254Y-43375607D01*
X57368563Y-43229069D01*
X57555069Y-43042563D01*
X57701607Y-42823254D01*
X57802543Y-42579572D01*
X57854000Y-42320880D01*
X57854000Y-42057120D01*
X57802543Y-41798428D01*
X57701607Y-41554746D01*
X57555069Y-41335437D01*
X57368563Y-41148931D01*
X57149254Y-41002393D01*
X56905572Y-40901457D01*
X56646880Y-40850000D01*
X56383120Y-40850000D01*
X56124428Y-40901457D01*
X55880746Y-41002393D01*
X55661437Y-41148931D01*
X55474931Y-41335437D01*
X55328393Y-41554746D01*
X55227457Y-41798428D01*
X55176000Y-42057120D01*
X54448676Y-42057120D01*
X54609254Y-41990607D01*
X54828563Y-41844069D01*
X55015069Y-41657563D01*
X55161607Y-41438254D01*
X55262543Y-41194572D01*
X55314000Y-40935880D01*
X55314000Y-40672120D01*
X55262543Y-40413428D01*
X55161607Y-40169746D01*
X55015069Y-39950437D01*
X54828563Y-39763931D01*
X54609254Y-39617393D01*
X54365572Y-39516457D01*
X54106880Y-39465000D01*
X53843120Y-39465000D01*
X53584428Y-39516457D01*
X53340746Y-39617393D01*
X53121437Y-39763931D01*
X52934931Y-39950437D01*
X52788393Y-40169746D01*
X52687457Y-40413428D01*
X52636000Y-40672120D01*
X51206000Y-40672120D01*
X51206000Y-37902120D01*
X52636000Y-37902120D01*
X52636000Y-38165880D01*
X52687457Y-38424572D01*
X52788393Y-38668254D01*
X52934931Y-38887563D01*
X53121437Y-39074069D01*
X53340746Y-39220607D01*
X53584428Y-39321543D01*
X53843120Y-39373000D01*
X54106880Y-39373000D01*
X54365572Y-39321543D01*
X54448676Y-39287120D01*
X55176000Y-39287120D01*
X55176000Y-39550880D01*
X55227457Y-39809572D01*
X55328393Y-40053254D01*
X55474931Y-40272563D01*
X55661437Y-40459069D01*
X55880746Y-40605607D01*
X56124428Y-40706543D01*
X56383120Y-40758000D01*
X56646880Y-40758000D01*
X56905572Y-40706543D01*
X57149254Y-40605607D01*
X57368563Y-40459069D01*
X57555069Y-40272563D01*
X57701607Y-40053254D01*
X57802543Y-39809572D01*
X57854000Y-39550880D01*
X57854000Y-39287120D01*
X57802543Y-39028428D01*
X57701607Y-38784746D01*
X57555069Y-38565437D01*
X57368563Y-38378931D01*
X57149254Y-38232393D01*
X56905572Y-38131457D01*
X56646880Y-38080000D01*
X56383120Y-38080000D01*
X56124428Y-38131457D01*
X55880746Y-38232393D01*
X55661437Y-38378931D01*
X55474931Y-38565437D01*
X55328393Y-38784746D01*
X55227457Y-39028428D01*
X55176000Y-39287120D01*
X54448676Y-39287120D01*
X54609254Y-39220607D01*
X54828563Y-39074069D01*
X55015069Y-38887563D01*
X55161607Y-38668254D01*
X55262543Y-38424572D01*
X55314000Y-38165880D01*
X55314000Y-37902120D01*
X55262543Y-37643428D01*
X55161607Y-37399746D01*
X55015069Y-37180437D01*
X54828563Y-36993931D01*
X54609254Y-36847393D01*
X54365572Y-36746457D01*
X54106880Y-36695000D01*
X53843120Y-36695000D01*
X53584428Y-36746457D01*
X53340746Y-36847393D01*
X53121437Y-36993931D01*
X52934931Y-37180437D01*
X52788393Y-37399746D01*
X52687457Y-37643428D01*
X52636000Y-37902120D01*
X51206000Y-37902120D01*
X51206000Y-35132120D01*
X52636000Y-35132120D01*
X52636000Y-35395880D01*
X52687457Y-35654572D01*
X52788393Y-35898254D01*
X52934931Y-36117563D01*
X53121437Y-36304069D01*
X53340746Y-36450607D01*
X53584428Y-36551543D01*
X53843120Y-36603000D01*
X54106880Y-36603000D01*
X54365572Y-36551543D01*
X54448676Y-36517120D01*
X55176000Y-36517120D01*
X55176000Y-36780880D01*
X55227457Y-37039572D01*
X55328393Y-37283254D01*
X55474931Y-37502563D01*
X55661437Y-37689069D01*
X55880746Y-37835607D01*
X56124428Y-37936543D01*
X56383120Y-37988000D01*
X56646880Y-37988000D01*
X56905572Y-37936543D01*
X57149254Y-37835607D01*
X57368563Y-37689069D01*
X57555069Y-37502563D01*
X57701607Y-37283254D01*
X57802543Y-37039572D01*
X57854000Y-36780880D01*
X57854000Y-36517120D01*
X57802543Y-36258428D01*
X57701607Y-36014746D01*
X57555069Y-35795437D01*
X57368563Y-35608931D01*
X57149254Y-35462393D01*
X56905572Y-35361457D01*
X56646880Y-35310000D01*
X56383120Y-35310000D01*
X56124428Y-35361457D01*
X55880746Y-35462393D01*
X55661437Y-35608931D01*
X55474931Y-35795437D01*
X55328393Y-36014746D01*
X55227457Y-36258428D01*
X55176000Y-36517120D01*
X54448676Y-36517120D01*
X54609254Y-36450607D01*
X54828563Y-36304069D01*
X55015069Y-36117563D01*
X55161607Y-35898254D01*
X55262543Y-35654572D01*
X55314000Y-35395880D01*
X55314000Y-35132120D01*
X55272218Y-34922070D01*
X55280463Y-34937494D01*
X55359815Y-35034185D01*
X55456506Y-35113537D01*
X55566820Y-35172502D01*
X55686518Y-35208812D01*
X55811000Y-35221072D01*
X57219000Y-35221072D01*
X57343482Y-35208812D01*
X57463180Y-35172502D01*
X57573494Y-35113537D01*
X57670185Y-35034185D01*
X57749537Y-34937494D01*
X57808502Y-34827180D01*
X57844812Y-34707482D01*
X57857072Y-34583000D01*
X57857072Y-33175000D01*
X57844812Y-33050518D01*
X57808502Y-32930820D01*
X57749537Y-32820506D01*
X57670185Y-32723815D01*
X57573494Y-32644463D01*
X57463180Y-32585498D01*
X57343482Y-32549188D01*
X57219000Y-32536928D01*
X55811000Y-32536928D01*
X55686518Y-32549188D01*
X55566820Y-32585498D01*
X55456506Y-32644463D01*
X55359815Y-32723815D01*
X55280463Y-32820506D01*
X55221498Y-32930820D01*
X55185188Y-33050518D01*
X55172928Y-33175000D01*
X55172928Y-34583000D01*
X55182500Y-34680185D01*
X55161607Y-34629746D01*
X55015069Y-34410437D01*
X54828563Y-34223931D01*
X54609254Y-34077393D01*
X54365572Y-33976457D01*
X54106880Y-33925000D01*
X53843120Y-33925000D01*
X53584428Y-33976457D01*
X53340746Y-34077393D01*
X53121437Y-34223931D01*
X52934931Y-34410437D01*
X52788393Y-34629746D01*
X52687457Y-34873428D01*
X52636000Y-35132120D01*
X51206000Y-35132120D01*
X51206000Y-26653838D01*
X52502000Y-26653838D01*
X52502000Y-27194162D01*
X52607412Y-27724104D01*
X52814185Y-28223298D01*
X53114373Y-28672560D01*
X53496440Y-29054627D01*
X53945702Y-29354815D01*
X54444896Y-29561588D01*
X54974838Y-29667000D01*
X55515162Y-29667000D01*
X56045104Y-29561588D01*
X56544298Y-29354815D01*
X56993560Y-29054627D01*
X57375627Y-28672560D01*
X57675815Y-28223298D01*
X57882588Y-27724104D01*
X57988000Y-27194162D01*
X57988000Y-26653838D01*
X57882588Y-26123896D01*
X57675815Y-25624702D01*
X57375627Y-25175440D01*
X56993560Y-24793373D01*
X56629328Y-24550000D01*
X64551928Y-24550000D01*
X64551928Y-26250000D01*
X64564188Y-26374482D01*
X64600498Y-26494180D01*
X64659463Y-26604494D01*
X64738815Y-26701185D01*
X64835506Y-26780537D01*
X64945820Y-26839502D01*
X65065518Y-26875812D01*
X65190000Y-26888072D01*
X66890000Y-26888072D01*
X67014482Y-26875812D01*
X67134180Y-26839502D01*
X67244494Y-26780537D01*
X67341185Y-26701185D01*
X67420537Y-26604494D01*
X67479502Y-26494180D01*
X67501513Y-26421620D01*
X67633368Y-26553475D01*
X67876589Y-26715990D01*
X68146842Y-26827932D01*
X68433740Y-26885000D01*
X68726260Y-26885000D01*
X69013158Y-26827932D01*
X69283411Y-26715990D01*
X69526632Y-26553475D01*
X69733475Y-26346632D01*
X69895990Y-26103411D01*
X70007932Y-25833158D01*
X70065000Y-25546260D01*
X70065000Y-25253740D01*
X70007932Y-24966842D01*
X69895990Y-24696589D01*
X69733475Y-24453368D01*
X69526632Y-24246525D01*
X69283411Y-24084010D01*
X69013158Y-23972068D01*
X68726260Y-23915000D01*
X68433740Y-23915000D01*
X68146842Y-23972068D01*
X67876589Y-24084010D01*
X67633368Y-24246525D01*
X67501513Y-24378380D01*
X67479502Y-24305820D01*
X67420537Y-24195506D01*
X67341185Y-24098815D01*
X67244494Y-24019463D01*
X67134180Y-23960498D01*
X67014482Y-23924188D01*
X66890000Y-23911928D01*
X65190000Y-23911928D01*
X65065518Y-23924188D01*
X64945820Y-23960498D01*
X64835506Y-24019463D01*
X64738815Y-24098815D01*
X64659463Y-24195506D01*
X64600498Y-24305820D01*
X64564188Y-24425518D01*
X64551928Y-24550000D01*
X56629328Y-24550000D01*
X56544298Y-24493185D01*
X56045104Y-24286412D01*
X55515162Y-24181000D01*
X54974838Y-24181000D01*
X54444896Y-24286412D01*
X53945702Y-24493185D01*
X53496440Y-24793373D01*
X53114373Y-25175440D01*
X52814185Y-25624702D01*
X52607412Y-26123896D01*
X52502000Y-26653838D01*
X51206000Y-26653838D01*
X51206000Y-23400279D01*
X51213466Y-23324137D01*
X51226205Y-23281942D01*
X51246898Y-23243024D01*
X51274755Y-23208868D01*
X51308714Y-23180775D01*
X51347485Y-23159812D01*
X51389593Y-23146777D01*
X51463588Y-23139000D01*
X70993000Y-23139000D01*
X70993000Y-36957000D01*
%TO.N,+3V3*%
G36*
X95023251Y-23244289D02*
G01*
X94918900Y-23496216D01*
X94865702Y-23763659D01*
X94865702Y-24036343D01*
X94918900Y-24303786D01*
X95023251Y-24555713D01*
X95174746Y-24782441D01*
X95367562Y-24975257D01*
X95594290Y-25126752D01*
X95650452Y-25150015D01*
X95594358Y-25173250D01*
X95367630Y-25324745D01*
X95174814Y-25517561D01*
X95023319Y-25744289D01*
X94918968Y-25996216D01*
X94865770Y-26263659D01*
X94865770Y-26536343D01*
X94918968Y-26803786D01*
X95023319Y-27055713D01*
X95174814Y-27282441D01*
X95367630Y-27475257D01*
X95594358Y-27626752D01*
X95846285Y-27731103D01*
X96113728Y-27784301D01*
X96386412Y-27784301D01*
X96653855Y-27731103D01*
X96905782Y-27626752D01*
X97132510Y-27475257D01*
X97225035Y-27382732D01*
X97317560Y-27475257D01*
X97544288Y-27626752D01*
X97796215Y-27731103D01*
X98063658Y-27784301D01*
X98336342Y-27784301D01*
X98603785Y-27731103D01*
X98855712Y-27626752D01*
X99082440Y-27475257D01*
X99275256Y-27282441D01*
X99426751Y-27055713D01*
X99500000Y-26878873D01*
X99573249Y-27055713D01*
X99724744Y-27282441D01*
X99917560Y-27475257D01*
X100144288Y-27626752D01*
X100396215Y-27731103D01*
X100663658Y-27784301D01*
X100936342Y-27784301D01*
X101203785Y-27731103D01*
X101455712Y-27626752D01*
X101682440Y-27475257D01*
X101775035Y-27382662D01*
X101867630Y-27475257D01*
X102094358Y-27626752D01*
X102346285Y-27731103D01*
X102613728Y-27784301D01*
X102886412Y-27784301D01*
X103153855Y-27731103D01*
X103405782Y-27626752D01*
X103632510Y-27475257D01*
X103825326Y-27282441D01*
X103976821Y-27055713D01*
X104081172Y-26803786D01*
X104134370Y-26536343D01*
X104134370Y-26263659D01*
X104081172Y-25996216D01*
X103976821Y-25744289D01*
X103825326Y-25517561D01*
X103632510Y-25324745D01*
X103405782Y-25173250D01*
X103349619Y-25149987D01*
X103405713Y-25126752D01*
X103632441Y-24975257D01*
X103825257Y-24782441D01*
X103976752Y-24555713D01*
X103979118Y-24550000D01*
X120111928Y-24550000D01*
X120111928Y-26250000D01*
X120124188Y-26374482D01*
X120160498Y-26494180D01*
X120219463Y-26604494D01*
X120298815Y-26701185D01*
X120395506Y-26780537D01*
X120505820Y-26839502D01*
X120578380Y-26861513D01*
X120446525Y-26993368D01*
X120284010Y-27236589D01*
X120172068Y-27506842D01*
X120115000Y-27793740D01*
X120115000Y-28086260D01*
X120172068Y-28373158D01*
X120284010Y-28643411D01*
X120446525Y-28886632D01*
X120653368Y-29093475D01*
X120827760Y-29210000D01*
X120653368Y-29326525D01*
X120446525Y-29533368D01*
X120284010Y-29776589D01*
X120172068Y-30046842D01*
X120115000Y-30333740D01*
X120115000Y-30626260D01*
X120172068Y-30913158D01*
X120284010Y-31183411D01*
X120446525Y-31426632D01*
X120653368Y-31633475D01*
X120827760Y-31750000D01*
X120653368Y-31866525D01*
X120446525Y-32073368D01*
X120284010Y-32316589D01*
X120172068Y-32586842D01*
X120115000Y-32873740D01*
X120115000Y-33166260D01*
X120172068Y-33453158D01*
X120284010Y-33723411D01*
X120446525Y-33966632D01*
X120653368Y-34173475D01*
X120827760Y-34290000D01*
X120653368Y-34406525D01*
X120446525Y-34613368D01*
X120284010Y-34856589D01*
X120172068Y-35126842D01*
X120115000Y-35413740D01*
X120115000Y-35706260D01*
X120172068Y-35993158D01*
X120284010Y-36263411D01*
X120446525Y-36506632D01*
X120653368Y-36713475D01*
X120827760Y-36830000D01*
X120653368Y-36946525D01*
X120446525Y-37153368D01*
X120284010Y-37396589D01*
X120172068Y-37666842D01*
X120115000Y-37953740D01*
X120115000Y-38246260D01*
X120172068Y-38533158D01*
X120284010Y-38803411D01*
X120446525Y-39046632D01*
X120653368Y-39253475D01*
X120827760Y-39370000D01*
X120653368Y-39486525D01*
X120446525Y-39693368D01*
X120284010Y-39936589D01*
X120172068Y-40206842D01*
X120115000Y-40493740D01*
X120115000Y-40786260D01*
X120172068Y-41073158D01*
X120284010Y-41343411D01*
X120446525Y-41586632D01*
X120653368Y-41793475D01*
X120827760Y-41910000D01*
X120653368Y-42026525D01*
X120446525Y-42233368D01*
X120284010Y-42476589D01*
X120172068Y-42746842D01*
X120115000Y-43033740D01*
X120115000Y-43326260D01*
X120172068Y-43613158D01*
X120284010Y-43883411D01*
X120446525Y-44126632D01*
X120653368Y-44333475D01*
X120827760Y-44450000D01*
X120653368Y-44566525D01*
X120446525Y-44773368D01*
X120284010Y-45016589D01*
X120172068Y-45286842D01*
X120115000Y-45573740D01*
X120115000Y-45866260D01*
X120172068Y-46153158D01*
X120284010Y-46423411D01*
X120446525Y-46666632D01*
X120653368Y-46873475D01*
X120827760Y-46990000D01*
X120653368Y-47106525D01*
X120446525Y-47313368D01*
X120284010Y-47556589D01*
X120172068Y-47826842D01*
X120115000Y-48113740D01*
X120115000Y-48406260D01*
X120172068Y-48693158D01*
X120284010Y-48963411D01*
X120446525Y-49206632D01*
X120653368Y-49413475D01*
X120827760Y-49530000D01*
X120653368Y-49646525D01*
X120446525Y-49853368D01*
X120284010Y-50096589D01*
X120172068Y-50366842D01*
X120115000Y-50653740D01*
X120115000Y-50946260D01*
X120172068Y-51233158D01*
X120284010Y-51503411D01*
X120446525Y-51746632D01*
X120653368Y-51953475D01*
X120827760Y-52070000D01*
X120653368Y-52186525D01*
X120446525Y-52393368D01*
X120284010Y-52636589D01*
X120172068Y-52906842D01*
X120115000Y-53193740D01*
X120115000Y-53486260D01*
X120172068Y-53773158D01*
X120284010Y-54043411D01*
X120446525Y-54286632D01*
X120653368Y-54493475D01*
X120827760Y-54610000D01*
X120653368Y-54726525D01*
X120446525Y-54933368D01*
X120284010Y-55176589D01*
X120172068Y-55446842D01*
X120115000Y-55733740D01*
X120115000Y-56026260D01*
X120172068Y-56313158D01*
X120284010Y-56583411D01*
X120446525Y-56826632D01*
X120653368Y-57033475D01*
X120827760Y-57150000D01*
X120653368Y-57266525D01*
X120446525Y-57473368D01*
X120284010Y-57716589D01*
X120172068Y-57986842D01*
X120115000Y-58273740D01*
X120115000Y-58566260D01*
X120172068Y-58853158D01*
X120284010Y-59123411D01*
X120446525Y-59366632D01*
X120653368Y-59573475D01*
X120827760Y-59690000D01*
X120653368Y-59806525D01*
X120446525Y-60013368D01*
X120284010Y-60256589D01*
X120172068Y-60526842D01*
X120115000Y-60813740D01*
X120115000Y-61106260D01*
X120172068Y-61393158D01*
X120284010Y-61663411D01*
X120446525Y-61906632D01*
X120653368Y-62113475D01*
X120827760Y-62230000D01*
X120653368Y-62346525D01*
X120446525Y-62553368D01*
X120284010Y-62796589D01*
X120172068Y-63066842D01*
X120115000Y-63353740D01*
X120115000Y-63646260D01*
X120172068Y-63933158D01*
X120284010Y-64203411D01*
X120446525Y-64446632D01*
X120653368Y-64653475D01*
X120827760Y-64770000D01*
X120653368Y-64886525D01*
X120446525Y-65093368D01*
X120284010Y-65336589D01*
X120172068Y-65606842D01*
X120115000Y-65893740D01*
X120115000Y-66186260D01*
X120172068Y-66473158D01*
X120284010Y-66743411D01*
X120446525Y-66986632D01*
X120653368Y-67193475D01*
X120827760Y-67310000D01*
X120653368Y-67426525D01*
X120446525Y-67633368D01*
X120284010Y-67876589D01*
X120172068Y-68146842D01*
X120115000Y-68433740D01*
X120115000Y-68726260D01*
X120172068Y-69013158D01*
X120284010Y-69283411D01*
X120446525Y-69526632D01*
X120653368Y-69733475D01*
X120827760Y-69850000D01*
X120653368Y-69966525D01*
X120446525Y-70173368D01*
X120284010Y-70416589D01*
X120172068Y-70686842D01*
X120115000Y-70973740D01*
X120115000Y-71266260D01*
X120172068Y-71553158D01*
X120284010Y-71823411D01*
X120446525Y-72066632D01*
X120653368Y-72273475D01*
X120827760Y-72390000D01*
X120653368Y-72506525D01*
X120446525Y-72713368D01*
X120284010Y-72956589D01*
X120172068Y-73226842D01*
X120115000Y-73513740D01*
X120115000Y-73806260D01*
X120172068Y-74093158D01*
X120284010Y-74363411D01*
X120446525Y-74606632D01*
X120653368Y-74813475D01*
X120827760Y-74930000D01*
X120653368Y-75046525D01*
X120446525Y-75253368D01*
X120284010Y-75496589D01*
X120172068Y-75766842D01*
X120115000Y-76053740D01*
X120115000Y-76346260D01*
X120172068Y-76633158D01*
X120284010Y-76903411D01*
X120446525Y-77146632D01*
X120653368Y-77353475D01*
X120827760Y-77470000D01*
X120653368Y-77586525D01*
X120446525Y-77793368D01*
X120284010Y-78036589D01*
X120172068Y-78306842D01*
X120115000Y-78593740D01*
X120115000Y-78886260D01*
X120172068Y-79173158D01*
X120284010Y-79443411D01*
X120446525Y-79686632D01*
X120653368Y-79893475D01*
X120827760Y-80010000D01*
X120653368Y-80126525D01*
X120446525Y-80333368D01*
X120284010Y-80576589D01*
X120172068Y-80846842D01*
X120115000Y-81133740D01*
X120115000Y-81426260D01*
X120172068Y-81713158D01*
X120284010Y-81983411D01*
X120446525Y-82226632D01*
X120653368Y-82433475D01*
X120896589Y-82595990D01*
X121166842Y-82707932D01*
X121453740Y-82765000D01*
X121746260Y-82765000D01*
X122033158Y-82707932D01*
X122303411Y-82595990D01*
X122546632Y-82433475D01*
X122753475Y-82226632D01*
X122870000Y-82052240D01*
X122986525Y-82226632D01*
X123193368Y-82433475D01*
X123436589Y-82595990D01*
X123706842Y-82707932D01*
X123993740Y-82765000D01*
X124286260Y-82765000D01*
X124573158Y-82707932D01*
X124843411Y-82595990D01*
X125086632Y-82433475D01*
X125293475Y-82226632D01*
X125455990Y-81983411D01*
X125567932Y-81713158D01*
X125625000Y-81426260D01*
X125625000Y-81133740D01*
X125567932Y-80846842D01*
X125455990Y-80576589D01*
X125293475Y-80333368D01*
X125086632Y-80126525D01*
X124912240Y-80010000D01*
X125086632Y-79893475D01*
X125293475Y-79686632D01*
X125455990Y-79443411D01*
X125567932Y-79173158D01*
X125625000Y-78886260D01*
X125625000Y-78593740D01*
X125567932Y-78306842D01*
X125455990Y-78036589D01*
X125293475Y-77793368D01*
X125086632Y-77586525D01*
X124912240Y-77470000D01*
X125086632Y-77353475D01*
X125293475Y-77146632D01*
X125455990Y-76903411D01*
X125567932Y-76633158D01*
X125625000Y-76346260D01*
X125625000Y-76053740D01*
X125567932Y-75766842D01*
X125455990Y-75496589D01*
X125293475Y-75253368D01*
X125086632Y-75046525D01*
X124912240Y-74930000D01*
X125086632Y-74813475D01*
X125293475Y-74606632D01*
X125455990Y-74363411D01*
X125567932Y-74093158D01*
X125625000Y-73806260D01*
X125625000Y-73513740D01*
X125567932Y-73226842D01*
X125455990Y-72956589D01*
X125293475Y-72713368D01*
X125086632Y-72506525D01*
X124912240Y-72390000D01*
X125086632Y-72273475D01*
X125293475Y-72066632D01*
X125455990Y-71823411D01*
X125567932Y-71553158D01*
X125625000Y-71266260D01*
X125625000Y-70973740D01*
X125567932Y-70686842D01*
X125455990Y-70416589D01*
X125293475Y-70173368D01*
X125086632Y-69966525D01*
X124912240Y-69850000D01*
X125086632Y-69733475D01*
X125293475Y-69526632D01*
X125455990Y-69283411D01*
X125567932Y-69013158D01*
X125625000Y-68726260D01*
X125625000Y-68433740D01*
X125567932Y-68146842D01*
X125455990Y-67876589D01*
X125293475Y-67633368D01*
X125086632Y-67426525D01*
X124912240Y-67310000D01*
X125086632Y-67193475D01*
X125293475Y-66986632D01*
X125455990Y-66743411D01*
X125567932Y-66473158D01*
X125625000Y-66186260D01*
X125625000Y-65893740D01*
X125567932Y-65606842D01*
X125455990Y-65336589D01*
X125293475Y-65093368D01*
X125086632Y-64886525D01*
X124912240Y-64770000D01*
X125086632Y-64653475D01*
X125293475Y-64446632D01*
X125455990Y-64203411D01*
X125567932Y-63933158D01*
X125625000Y-63646260D01*
X125625000Y-63353740D01*
X125567932Y-63066842D01*
X125455990Y-62796589D01*
X125293475Y-62553368D01*
X125086632Y-62346525D01*
X124912240Y-62230000D01*
X125086632Y-62113475D01*
X125293475Y-61906632D01*
X125455990Y-61663411D01*
X125567932Y-61393158D01*
X125625000Y-61106260D01*
X125625000Y-60813740D01*
X125567932Y-60526842D01*
X125455990Y-60256589D01*
X125293475Y-60013368D01*
X125086632Y-59806525D01*
X124912240Y-59690000D01*
X125086632Y-59573475D01*
X125293475Y-59366632D01*
X125455990Y-59123411D01*
X125567932Y-58853158D01*
X125625000Y-58566260D01*
X125625000Y-58273740D01*
X125567932Y-57986842D01*
X125455990Y-57716589D01*
X125293475Y-57473368D01*
X125086632Y-57266525D01*
X124912240Y-57150000D01*
X125086632Y-57033475D01*
X125293475Y-56826632D01*
X125455990Y-56583411D01*
X125567932Y-56313158D01*
X125625000Y-56026260D01*
X125625000Y-55733740D01*
X125567932Y-55446842D01*
X125455990Y-55176589D01*
X125293475Y-54933368D01*
X125086632Y-54726525D01*
X124912240Y-54610000D01*
X125086632Y-54493475D01*
X125293475Y-54286632D01*
X125455990Y-54043411D01*
X125567932Y-53773158D01*
X125625000Y-53486260D01*
X125625000Y-53193740D01*
X125567932Y-52906842D01*
X125455990Y-52636589D01*
X125293475Y-52393368D01*
X125086632Y-52186525D01*
X124912240Y-52070000D01*
X125086632Y-51953475D01*
X125293475Y-51746632D01*
X125455990Y-51503411D01*
X125567932Y-51233158D01*
X125625000Y-50946260D01*
X125625000Y-50653740D01*
X125567932Y-50366842D01*
X125455990Y-50096589D01*
X125293475Y-49853368D01*
X125086632Y-49646525D01*
X124912240Y-49530000D01*
X125086632Y-49413475D01*
X125293475Y-49206632D01*
X125455990Y-48963411D01*
X125567932Y-48693158D01*
X125625000Y-48406260D01*
X125625000Y-48113740D01*
X125567932Y-47826842D01*
X125455990Y-47556589D01*
X125293475Y-47313368D01*
X125086632Y-47106525D01*
X124912240Y-46990000D01*
X125086632Y-46873475D01*
X125293475Y-46666632D01*
X125455990Y-46423411D01*
X125567932Y-46153158D01*
X125625000Y-45866260D01*
X125625000Y-45573740D01*
X125567932Y-45286842D01*
X125455990Y-45016589D01*
X125293475Y-44773368D01*
X125086632Y-44566525D01*
X124912240Y-44450000D01*
X125086632Y-44333475D01*
X125293475Y-44126632D01*
X125455990Y-43883411D01*
X125567932Y-43613158D01*
X125625000Y-43326260D01*
X125625000Y-43033740D01*
X125567932Y-42746842D01*
X125455990Y-42476589D01*
X125293475Y-42233368D01*
X125086632Y-42026525D01*
X124912240Y-41910000D01*
X125086632Y-41793475D01*
X125293475Y-41586632D01*
X125455990Y-41343411D01*
X125567932Y-41073158D01*
X125625000Y-40786260D01*
X125625000Y-40493740D01*
X125567932Y-40206842D01*
X125455990Y-39936589D01*
X125293475Y-39693368D01*
X125086632Y-39486525D01*
X124912240Y-39370000D01*
X125086632Y-39253475D01*
X125293475Y-39046632D01*
X125455990Y-38803411D01*
X125567932Y-38533158D01*
X125625000Y-38246260D01*
X125625000Y-37953740D01*
X125567932Y-37666842D01*
X125455990Y-37396589D01*
X125293475Y-37153368D01*
X125086632Y-36946525D01*
X124912240Y-36830000D01*
X125086632Y-36713475D01*
X125293475Y-36506632D01*
X125455990Y-36263411D01*
X125567932Y-35993158D01*
X125625000Y-35706260D01*
X125625000Y-35413740D01*
X125567932Y-35126842D01*
X125455990Y-34856589D01*
X125293475Y-34613368D01*
X125086632Y-34406525D01*
X124912240Y-34290000D01*
X125086632Y-34173475D01*
X125293475Y-33966632D01*
X125455990Y-33723411D01*
X125567932Y-33453158D01*
X125625000Y-33166260D01*
X125625000Y-32873740D01*
X125567932Y-32586842D01*
X125455990Y-32316589D01*
X125293475Y-32073368D01*
X125086632Y-31866525D01*
X124912240Y-31750000D01*
X125086632Y-31633475D01*
X125293475Y-31426632D01*
X125455990Y-31183411D01*
X125567932Y-30913158D01*
X125625000Y-30626260D01*
X125625000Y-30333740D01*
X125567932Y-30046842D01*
X125455990Y-29776589D01*
X125293475Y-29533368D01*
X125086632Y-29326525D01*
X124912240Y-29210000D01*
X125086632Y-29093475D01*
X125293475Y-28886632D01*
X125455990Y-28643411D01*
X125567932Y-28373158D01*
X125625000Y-28086260D01*
X125625000Y-27793740D01*
X125567932Y-27506842D01*
X125455990Y-27236589D01*
X125293475Y-26993368D01*
X125086632Y-26786525D01*
X124912240Y-26670000D01*
X125086632Y-26553475D01*
X125293475Y-26346632D01*
X125455990Y-26103411D01*
X125567932Y-25833158D01*
X125625000Y-25546260D01*
X125625000Y-25253740D01*
X125567932Y-24966842D01*
X125455990Y-24696589D01*
X125293475Y-24453368D01*
X125086632Y-24246525D01*
X124843411Y-24084010D01*
X124573158Y-23972068D01*
X124286260Y-23915000D01*
X123993740Y-23915000D01*
X123706842Y-23972068D01*
X123436589Y-24084010D01*
X123193368Y-24246525D01*
X123061513Y-24378380D01*
X123039502Y-24305820D01*
X122980537Y-24195506D01*
X122901185Y-24098815D01*
X122804494Y-24019463D01*
X122694180Y-23960498D01*
X122574482Y-23924188D01*
X122450000Y-23911928D01*
X120750000Y-23911928D01*
X120625518Y-23924188D01*
X120505820Y-23960498D01*
X120395506Y-24019463D01*
X120298815Y-24098815D01*
X120219463Y-24195506D01*
X120160498Y-24305820D01*
X120124188Y-24425518D01*
X120111928Y-24550000D01*
X103979118Y-24550000D01*
X104081103Y-24303786D01*
X104134301Y-24036343D01*
X104134301Y-23763659D01*
X104081103Y-23496216D01*
X103976752Y-23244289D01*
X103906400Y-23139000D01*
X125570723Y-23139000D01*
X125622197Y-23144047D01*
X125640662Y-23149622D01*
X125657694Y-23158678D01*
X125672643Y-23170870D01*
X125684938Y-23185732D01*
X125694111Y-23202696D01*
X125699817Y-23221129D01*
X125705000Y-23270446D01*
X125705001Y-85565712D01*
X125699953Y-85617195D01*
X125694377Y-85635663D01*
X125685322Y-85652693D01*
X125673129Y-85667643D01*
X125658266Y-85679939D01*
X125641303Y-85689111D01*
X125622871Y-85694817D01*
X125573554Y-85700000D01*
X97822279Y-85700000D01*
X97672131Y-85685278D01*
X97558754Y-85651047D01*
X97454182Y-85595445D01*
X97362405Y-85520594D01*
X97286909Y-85429335D01*
X97230581Y-85325160D01*
X97195560Y-85212024D01*
X97177145Y-85036813D01*
X97177253Y-85021318D01*
X97176354Y-85012147D01*
X97150446Y-84765644D01*
X97138414Y-84707028D01*
X97127208Y-84648284D01*
X97124544Y-84639462D01*
X97051249Y-84402686D01*
X97028074Y-84347555D01*
X97005661Y-84292080D01*
X97001334Y-84283944D01*
X96883446Y-84065914D01*
X96850012Y-84016346D01*
X96817240Y-83966265D01*
X96811416Y-83959124D01*
X96653423Y-83768144D01*
X96610988Y-83726005D01*
X96569125Y-83683255D01*
X96562024Y-83677381D01*
X96369946Y-83520727D01*
X96320169Y-83487655D01*
X96270763Y-83453826D01*
X96262657Y-83449444D01*
X96043809Y-83333081D01*
X95988532Y-83310298D01*
X95933525Y-83286721D01*
X95924722Y-83283997D01*
X95687441Y-83212357D01*
X95628754Y-83200736D01*
X95570248Y-83188300D01*
X95561085Y-83187337D01*
X95561083Y-83187337D01*
X95314405Y-83163150D01*
X95314402Y-83163150D01*
X95282419Y-83160000D01*
X94107000Y-83160000D01*
X94107000Y-80068668D01*
X94116745Y-80059125D01*
X94122618Y-80052024D01*
X94279273Y-79859947D01*
X94312374Y-79810125D01*
X94346173Y-79760763D01*
X94350556Y-79752657D01*
X94466919Y-79533809D01*
X94489707Y-79478521D01*
X94513279Y-79423525D01*
X94516003Y-79414722D01*
X94587643Y-79177441D01*
X94599264Y-79118754D01*
X94611700Y-79060248D01*
X94612663Y-79051083D01*
X94636850Y-78804405D01*
X94636850Y-78804402D01*
X94640000Y-78772419D01*
X94640000Y-68052740D01*
X94908000Y-68052740D01*
X94908000Y-68345260D01*
X94965068Y-68632158D01*
X95077010Y-68902411D01*
X95239525Y-69145632D01*
X95446368Y-69352475D01*
X95620760Y-69469000D01*
X95446368Y-69585525D01*
X95239525Y-69792368D01*
X95077010Y-70035589D01*
X94965068Y-70305842D01*
X94908000Y-70592740D01*
X94908000Y-70885260D01*
X94965068Y-71172158D01*
X95077010Y-71442411D01*
X95239525Y-71685632D01*
X95446368Y-71892475D01*
X95620760Y-72009000D01*
X95446368Y-72125525D01*
X95239525Y-72332368D01*
X95077010Y-72575589D01*
X94965068Y-72845842D01*
X94908000Y-73132740D01*
X94908000Y-73425260D01*
X94965068Y-73712158D01*
X95077010Y-73982411D01*
X95239525Y-74225632D01*
X95446368Y-74432475D01*
X95620760Y-74549000D01*
X95446368Y-74665525D01*
X95239525Y-74872368D01*
X95077010Y-75115589D01*
X94965068Y-75385842D01*
X94908000Y-75672740D01*
X94908000Y-75965260D01*
X94965068Y-76252158D01*
X95077010Y-76522411D01*
X95239525Y-76765632D01*
X95446368Y-76972475D01*
X95620760Y-77089000D01*
X95446368Y-77205525D01*
X95239525Y-77412368D01*
X95077010Y-77655589D01*
X94965068Y-77925842D01*
X94908000Y-78212740D01*
X94908000Y-78505260D01*
X94965068Y-78792158D01*
X95077010Y-79062411D01*
X95239525Y-79305632D01*
X95446368Y-79512475D01*
X95689589Y-79674990D01*
X95959842Y-79786932D01*
X96246740Y-79844000D01*
X96539260Y-79844000D01*
X96826158Y-79786932D01*
X97096411Y-79674990D01*
X97339632Y-79512475D01*
X97546475Y-79305632D01*
X97708990Y-79062411D01*
X97820932Y-78792158D01*
X97878000Y-78505260D01*
X97878000Y-78212740D01*
X97820932Y-77925842D01*
X97708990Y-77655589D01*
X97546475Y-77412368D01*
X97339632Y-77205525D01*
X97165240Y-77089000D01*
X97339632Y-76972475D01*
X97546475Y-76765632D01*
X97708990Y-76522411D01*
X97820932Y-76252158D01*
X97878000Y-75965260D01*
X97878000Y-75672740D01*
X97820932Y-75385842D01*
X97708990Y-75115589D01*
X97546475Y-74872368D01*
X97339632Y-74665525D01*
X97165240Y-74549000D01*
X97339632Y-74432475D01*
X97546475Y-74225632D01*
X97708990Y-73982411D01*
X97820932Y-73712158D01*
X97878000Y-73425260D01*
X97878000Y-73147452D01*
X100910149Y-73147452D01*
X100910149Y-73322570D01*
X100944313Y-73494323D01*
X100995763Y-73618533D01*
X100945164Y-73740688D01*
X100911000Y-73912441D01*
X100911000Y-74087559D01*
X100945164Y-74259312D01*
X101003439Y-74400000D01*
X100945164Y-74540688D01*
X100911000Y-74712441D01*
X100911000Y-74887559D01*
X100945164Y-75059312D01*
X101012179Y-75221099D01*
X101109469Y-75366704D01*
X101233296Y-75490531D01*
X101378901Y-75587821D01*
X101408303Y-75600000D01*
X101378901Y-75612179D01*
X101233296Y-75709469D01*
X101109469Y-75833296D01*
X101012179Y-75978901D01*
X100945164Y-76140688D01*
X100911000Y-76312441D01*
X100911000Y-76487559D01*
X100945164Y-76659312D01*
X101003439Y-76800000D01*
X100945164Y-76940688D01*
X100911000Y-77112441D01*
X100911000Y-77287559D01*
X100945164Y-77459312D01*
X101003439Y-77600000D01*
X100945164Y-77740688D01*
X100911000Y-77912441D01*
X100911000Y-78087559D01*
X100945164Y-78259312D01*
X101003439Y-78400000D01*
X100945164Y-78540688D01*
X100911000Y-78712441D01*
X100911000Y-78887559D01*
X100945164Y-79059312D01*
X101003439Y-79200000D01*
X100945164Y-79340688D01*
X100911000Y-79512441D01*
X100911000Y-79687559D01*
X100945164Y-79859312D01*
X101003439Y-80000000D01*
X100945164Y-80140688D01*
X100911000Y-80312441D01*
X100911000Y-80487559D01*
X100945164Y-80659312D01*
X101003439Y-80800000D01*
X100945164Y-80940688D01*
X100911000Y-81112441D01*
X100911000Y-81287559D01*
X100945164Y-81459312D01*
X101012179Y-81621099D01*
X101109469Y-81766704D01*
X101233296Y-81890531D01*
X101378901Y-81987821D01*
X101540688Y-82054836D01*
X101712441Y-82089000D01*
X101887559Y-82089000D01*
X102059312Y-82054836D01*
X102221099Y-81987821D01*
X102352632Y-81899933D01*
X111984000Y-81899933D01*
X111984000Y-82100067D01*
X112023044Y-82296356D01*
X112099632Y-82481256D01*
X112210821Y-82647662D01*
X112352338Y-82789179D01*
X112518744Y-82900368D01*
X112703644Y-82976956D01*
X112899933Y-83016000D01*
X113100067Y-83016000D01*
X113296356Y-82976956D01*
X113481256Y-82900368D01*
X113647662Y-82789179D01*
X113789179Y-82647662D01*
X113900368Y-82481256D01*
X113976956Y-82296356D01*
X114016000Y-82100067D01*
X114016000Y-81899933D01*
X113976956Y-81703644D01*
X113900368Y-81518744D01*
X113789179Y-81352338D01*
X113647662Y-81210821D01*
X113481256Y-81099632D01*
X113296356Y-81023044D01*
X113100067Y-80984000D01*
X112899933Y-80984000D01*
X112703644Y-81023044D01*
X112518744Y-81099632D01*
X112352338Y-81210821D01*
X112210821Y-81352338D01*
X112099632Y-81518744D01*
X112023044Y-81703644D01*
X111984000Y-81899933D01*
X102352632Y-81899933D01*
X102366704Y-81890531D01*
X102490531Y-81766704D01*
X102587821Y-81621099D01*
X102654836Y-81459312D01*
X102689000Y-81287559D01*
X102689000Y-81112441D01*
X102654836Y-80940688D01*
X102596561Y-80800000D01*
X102654836Y-80659312D01*
X102689000Y-80487559D01*
X102689000Y-80312441D01*
X102654836Y-80140688D01*
X102596561Y-80000000D01*
X102654836Y-79859312D01*
X102689000Y-79687559D01*
X102689000Y-79512441D01*
X102654836Y-79340688D01*
X102596561Y-79200000D01*
X102654836Y-79059312D01*
X102689000Y-78887559D01*
X102689000Y-78712441D01*
X102654836Y-78540688D01*
X102596561Y-78400000D01*
X102654836Y-78259312D01*
X102689000Y-78087559D01*
X102689000Y-77912441D01*
X102654836Y-77740688D01*
X102596561Y-77600000D01*
X102654836Y-77459312D01*
X102689000Y-77287559D01*
X102689000Y-77112441D01*
X102654836Y-76940688D01*
X102596561Y-76800000D01*
X102654836Y-76659312D01*
X102689000Y-76487559D01*
X102689000Y-76312441D01*
X102654836Y-76140688D01*
X102587821Y-75978901D01*
X102490531Y-75833296D01*
X102366704Y-75709469D01*
X102221099Y-75612179D01*
X102191697Y-75600000D01*
X102221099Y-75587821D01*
X102366704Y-75490531D01*
X102490531Y-75366704D01*
X102587821Y-75221099D01*
X102654836Y-75059312D01*
X102689000Y-74887559D01*
X102689000Y-74712441D01*
X102654836Y-74540688D01*
X102596561Y-74400000D01*
X102654836Y-74259312D01*
X102689000Y-74087559D01*
X102689000Y-73912441D01*
X102654836Y-73740688D01*
X102603386Y-73616478D01*
X102653985Y-73494323D01*
X102688149Y-73322570D01*
X102688149Y-73147452D01*
X102653985Y-72975699D01*
X102588884Y-72818533D01*
X102654836Y-72659312D01*
X102689000Y-72487559D01*
X102689000Y-72312441D01*
X102654836Y-72140688D01*
X102587821Y-71978901D01*
X102490531Y-71833296D01*
X102366704Y-71709469D01*
X102221099Y-71612179D01*
X102059312Y-71545164D01*
X101887559Y-71511000D01*
X101712441Y-71511000D01*
X101540688Y-71545164D01*
X101378901Y-71612179D01*
X101233296Y-71709469D01*
X101109469Y-71833296D01*
X101012179Y-71978901D01*
X100945164Y-72140688D01*
X100911000Y-72312441D01*
X100911000Y-72487559D01*
X100945164Y-72659312D01*
X101010265Y-72816478D01*
X100944313Y-72975699D01*
X100910149Y-73147452D01*
X97878000Y-73147452D01*
X97878000Y-73132740D01*
X97820932Y-72845842D01*
X97708990Y-72575589D01*
X97546475Y-72332368D01*
X97339632Y-72125525D01*
X97165240Y-72009000D01*
X97339632Y-71892475D01*
X97546475Y-71685632D01*
X97670555Y-71499933D01*
X111984000Y-71499933D01*
X111984000Y-71700067D01*
X112023044Y-71896356D01*
X112099632Y-72081256D01*
X112210821Y-72247662D01*
X112352338Y-72389179D01*
X112518744Y-72500368D01*
X112703644Y-72576956D01*
X112899933Y-72616000D01*
X113100067Y-72616000D01*
X113296356Y-72576956D01*
X113481256Y-72500368D01*
X113647662Y-72389179D01*
X113789179Y-72247662D01*
X113900368Y-72081256D01*
X113976956Y-71896356D01*
X114016000Y-71700067D01*
X114016000Y-71499933D01*
X113976956Y-71303644D01*
X113900368Y-71118744D01*
X113789179Y-70952338D01*
X113647662Y-70810821D01*
X113481256Y-70699632D01*
X113296356Y-70623044D01*
X113100067Y-70584000D01*
X112899933Y-70584000D01*
X112703644Y-70623044D01*
X112518744Y-70699632D01*
X112352338Y-70810821D01*
X112210821Y-70952338D01*
X112099632Y-71118744D01*
X112023044Y-71303644D01*
X111984000Y-71499933D01*
X97670555Y-71499933D01*
X97708990Y-71442411D01*
X97820932Y-71172158D01*
X97878000Y-70885260D01*
X97878000Y-70592740D01*
X97820932Y-70305842D01*
X97708990Y-70035589D01*
X97618348Y-69899933D01*
X102784000Y-69899933D01*
X102784000Y-70100067D01*
X102823044Y-70296356D01*
X102899632Y-70481256D01*
X103010821Y-70647662D01*
X103152338Y-70789179D01*
X103318744Y-70900368D01*
X103503644Y-70976956D01*
X103699933Y-71016000D01*
X103900067Y-71016000D01*
X104096356Y-70976956D01*
X104281256Y-70900368D01*
X104447662Y-70789179D01*
X104589179Y-70647662D01*
X104700368Y-70481256D01*
X104776956Y-70296356D01*
X104816000Y-70100067D01*
X104816000Y-69899933D01*
X104776956Y-69703644D01*
X104700368Y-69518744D01*
X104589179Y-69352338D01*
X104447662Y-69210821D01*
X104281256Y-69099632D01*
X104096356Y-69023044D01*
X103900067Y-68984000D01*
X103699933Y-68984000D01*
X103503644Y-69023044D01*
X103318744Y-69099632D01*
X103152338Y-69210821D01*
X103010821Y-69352338D01*
X102899632Y-69518744D01*
X102823044Y-69703644D01*
X102784000Y-69899933D01*
X97618348Y-69899933D01*
X97546475Y-69792368D01*
X97339632Y-69585525D01*
X97165240Y-69469000D01*
X97339632Y-69352475D01*
X97546475Y-69145632D01*
X97708990Y-68902411D01*
X97820932Y-68632158D01*
X97878000Y-68345260D01*
X97878000Y-68052740D01*
X97820932Y-67765842D01*
X97710790Y-67499933D01*
X111984000Y-67499933D01*
X111984000Y-67700067D01*
X112023044Y-67896356D01*
X112099632Y-68081256D01*
X112210821Y-68247662D01*
X112352338Y-68389179D01*
X112518744Y-68500368D01*
X112703644Y-68576956D01*
X112899933Y-68616000D01*
X113100067Y-68616000D01*
X113296356Y-68576956D01*
X113481256Y-68500368D01*
X113647662Y-68389179D01*
X113789179Y-68247662D01*
X113900368Y-68081256D01*
X113976956Y-67896356D01*
X114016000Y-67700067D01*
X114016000Y-67499933D01*
X113976956Y-67303644D01*
X113900368Y-67118744D01*
X113789179Y-66952338D01*
X113647662Y-66810821D01*
X113481256Y-66699632D01*
X113296356Y-66623044D01*
X113100067Y-66584000D01*
X112899933Y-66584000D01*
X112703644Y-66623044D01*
X112518744Y-66699632D01*
X112352338Y-66810821D01*
X112210821Y-66952338D01*
X112099632Y-67118744D01*
X112023044Y-67303644D01*
X111984000Y-67499933D01*
X97710790Y-67499933D01*
X97708990Y-67495589D01*
X97546475Y-67252368D01*
X97339632Y-67045525D01*
X97096411Y-66883010D01*
X96826158Y-66771068D01*
X96539260Y-66714000D01*
X96246740Y-66714000D01*
X95959842Y-66771068D01*
X95689589Y-66883010D01*
X95446368Y-67045525D01*
X95239525Y-67252368D01*
X95077010Y-67495589D01*
X94965068Y-67765842D01*
X94908000Y-68052740D01*
X94640000Y-68052740D01*
X94640000Y-65099933D01*
X102784000Y-65099933D01*
X102784000Y-65300067D01*
X102823044Y-65496356D01*
X102899632Y-65681256D01*
X103010821Y-65847662D01*
X103152338Y-65989179D01*
X103318744Y-66100368D01*
X103503644Y-66176956D01*
X103699933Y-66216000D01*
X103900067Y-66216000D01*
X104096356Y-66176956D01*
X104281256Y-66100368D01*
X104447662Y-65989179D01*
X104589179Y-65847662D01*
X104700368Y-65681256D01*
X104776956Y-65496356D01*
X104816000Y-65300067D01*
X104816000Y-65099933D01*
X104776956Y-64903644D01*
X104700368Y-64718744D01*
X104589179Y-64552338D01*
X104447662Y-64410821D01*
X104281256Y-64299632D01*
X104096356Y-64223044D01*
X103900067Y-64184000D01*
X103699933Y-64184000D01*
X103503644Y-64223044D01*
X103318744Y-64299632D01*
X103152338Y-64410821D01*
X103010821Y-64552338D01*
X102899632Y-64718744D01*
X102823044Y-64903644D01*
X102784000Y-65099933D01*
X94640000Y-65099933D01*
X94640000Y-61099933D01*
X111984000Y-61099933D01*
X111984000Y-61300067D01*
X112023044Y-61496356D01*
X112099632Y-61681256D01*
X112210821Y-61847662D01*
X112352338Y-61989179D01*
X112368533Y-62000000D01*
X112352338Y-62010821D01*
X112210821Y-62152338D01*
X112099632Y-62318744D01*
X112023044Y-62503644D01*
X111984000Y-62699933D01*
X111984000Y-62900067D01*
X112023044Y-63096356D01*
X112099632Y-63281256D01*
X112210821Y-63447662D01*
X112352338Y-63589179D01*
X112518744Y-63700368D01*
X112703644Y-63776956D01*
X112899933Y-63816000D01*
X113100067Y-63816000D01*
X113296356Y-63776956D01*
X113481256Y-63700368D01*
X113647662Y-63589179D01*
X113789179Y-63447662D01*
X113900368Y-63281256D01*
X113976956Y-63096356D01*
X114016000Y-62900067D01*
X114016000Y-62699933D01*
X113976956Y-62503644D01*
X113900368Y-62318744D01*
X113789179Y-62152338D01*
X113647662Y-62010821D01*
X113631467Y-62000000D01*
X113647662Y-61989179D01*
X113789179Y-61847662D01*
X113900368Y-61681256D01*
X113976956Y-61496356D01*
X114016000Y-61300067D01*
X114016000Y-61099933D01*
X113976956Y-60903644D01*
X113900368Y-60718744D01*
X113789179Y-60552338D01*
X113647662Y-60410821D01*
X113481256Y-60299632D01*
X113296356Y-60223044D01*
X113100067Y-60184000D01*
X112899933Y-60184000D01*
X112703644Y-60223044D01*
X112518744Y-60299632D01*
X112352338Y-60410821D01*
X112210821Y-60552338D01*
X112099632Y-60718744D01*
X112023044Y-60903644D01*
X111984000Y-61099933D01*
X94640000Y-61099933D01*
X94640000Y-58081578D01*
X101657184Y-58081578D01*
X101657184Y-58281712D01*
X101696228Y-58478001D01*
X101772816Y-58662901D01*
X101884005Y-58829307D01*
X102025522Y-58970824D01*
X102191928Y-59082013D01*
X102376828Y-59158601D01*
X102573117Y-59197645D01*
X102773251Y-59197645D01*
X102969540Y-59158601D01*
X103154440Y-59082013D01*
X103320846Y-58970824D01*
X103462363Y-58829307D01*
X103573552Y-58662901D01*
X103650140Y-58478001D01*
X103689184Y-58281712D01*
X103689184Y-58081578D01*
X103650140Y-57885289D01*
X103573552Y-57700389D01*
X103462363Y-57533983D01*
X103320846Y-57392466D01*
X103154440Y-57281277D01*
X102969540Y-57204689D01*
X102773251Y-57165645D01*
X102573117Y-57165645D01*
X102376828Y-57204689D01*
X102191928Y-57281277D01*
X102025522Y-57392466D01*
X101884005Y-57533983D01*
X101772816Y-57700389D01*
X101696228Y-57885289D01*
X101657184Y-58081578D01*
X94640000Y-58081578D01*
X94640000Y-56512441D01*
X98111000Y-56512441D01*
X98111000Y-56687559D01*
X98145164Y-56859312D01*
X98212179Y-57021099D01*
X98309469Y-57166704D01*
X98433296Y-57290531D01*
X98578901Y-57387821D01*
X98740688Y-57454836D01*
X98912441Y-57489000D01*
X99087559Y-57489000D01*
X99259312Y-57454836D01*
X99421099Y-57387821D01*
X99566704Y-57290531D01*
X99690531Y-57166704D01*
X99787821Y-57021099D01*
X99854836Y-56859312D01*
X99889000Y-56687559D01*
X99889000Y-56512441D01*
X99865075Y-56392160D01*
X99890531Y-56366704D01*
X99987821Y-56221099D01*
X100054836Y-56059312D01*
X100089000Y-55887559D01*
X100089000Y-55712441D01*
X100065075Y-55592160D01*
X100090531Y-55566704D01*
X100187821Y-55421099D01*
X100254836Y-55259312D01*
X100289000Y-55087559D01*
X100289000Y-54942451D01*
X100366704Y-54890531D01*
X100490531Y-54766704D01*
X100587821Y-54621099D01*
X100654836Y-54459312D01*
X100689000Y-54287559D01*
X100689000Y-54112441D01*
X100665075Y-53992160D01*
X100690531Y-53966704D01*
X100787821Y-53821099D01*
X100854836Y-53659312D01*
X100889000Y-53487559D01*
X100889000Y-53312441D01*
X100865075Y-53192160D01*
X100890531Y-53166704D01*
X100987821Y-53021099D01*
X101054836Y-52859312D01*
X101089000Y-52687559D01*
X101089000Y-52512441D01*
X101065075Y-52392160D01*
X101090531Y-52366704D01*
X101187821Y-52221099D01*
X101254836Y-52059312D01*
X101289000Y-51887559D01*
X101289000Y-51712441D01*
X101254836Y-51540688D01*
X101187821Y-51378901D01*
X101090531Y-51233296D01*
X100966704Y-51109469D01*
X100935828Y-51088838D01*
X101106767Y-51054836D01*
X101268554Y-50987821D01*
X101414159Y-50890531D01*
X101537986Y-50766704D01*
X101635276Y-50621099D01*
X101702291Y-50459312D01*
X101736455Y-50287559D01*
X101736455Y-50112441D01*
X101721486Y-50037185D01*
X101791967Y-49966704D01*
X101889257Y-49821099D01*
X101956272Y-49659312D01*
X101990436Y-49487559D01*
X101990436Y-49312441D01*
X101956272Y-49140688D01*
X101937766Y-49096011D01*
X101987821Y-49021099D01*
X102054836Y-48859312D01*
X102089000Y-48687559D01*
X102089000Y-48542451D01*
X102166704Y-48490531D01*
X102290531Y-48366704D01*
X102387821Y-48221099D01*
X102454836Y-48059312D01*
X102489000Y-47887559D01*
X102489000Y-47712441D01*
X102454836Y-47540688D01*
X102387821Y-47378901D01*
X102290531Y-47233296D01*
X102166704Y-47109469D01*
X102021099Y-47012179D01*
X101859312Y-46945164D01*
X101687559Y-46911000D01*
X101512441Y-46911000D01*
X101340688Y-46945164D01*
X101178901Y-47012179D01*
X101033296Y-47109469D01*
X100909469Y-47233296D01*
X100812179Y-47378901D01*
X100745164Y-47540688D01*
X100711000Y-47712441D01*
X100711000Y-47857549D01*
X100633296Y-47909469D01*
X100509469Y-48033296D01*
X100412179Y-48178901D01*
X100345164Y-48340688D01*
X100311000Y-48512441D01*
X100311000Y-48687559D01*
X100345164Y-48859312D01*
X100363670Y-48903989D01*
X100313615Y-48978901D01*
X100246600Y-49140688D01*
X100212436Y-49312441D01*
X100212436Y-49487559D01*
X100227405Y-49562815D01*
X100156924Y-49633296D01*
X100059634Y-49778901D01*
X99992619Y-49940688D01*
X99958455Y-50112441D01*
X99958455Y-50287559D01*
X99992619Y-50459312D01*
X100059634Y-50621099D01*
X100156924Y-50766704D01*
X100280751Y-50890531D01*
X100311627Y-50911162D01*
X100140688Y-50945164D01*
X99978901Y-51012179D01*
X99833296Y-51109469D01*
X99709469Y-51233296D01*
X99612179Y-51378901D01*
X99545164Y-51540688D01*
X99511000Y-51712441D01*
X99511000Y-51887559D01*
X99534925Y-52007840D01*
X99509469Y-52033296D01*
X99412179Y-52178901D01*
X99345164Y-52340688D01*
X99311000Y-52512441D01*
X99311000Y-52687559D01*
X99334925Y-52807840D01*
X99309469Y-52833296D01*
X99212179Y-52978901D01*
X99145164Y-53140688D01*
X99111000Y-53312441D01*
X99111000Y-53487559D01*
X99134925Y-53607840D01*
X99109469Y-53633296D01*
X99012179Y-53778901D01*
X98945164Y-53940688D01*
X98911000Y-54112441D01*
X98911000Y-54257549D01*
X98833296Y-54309469D01*
X98709469Y-54433296D01*
X98612179Y-54578901D01*
X98545164Y-54740688D01*
X98511000Y-54912441D01*
X98511000Y-55087559D01*
X98534925Y-55207840D01*
X98509469Y-55233296D01*
X98412179Y-55378901D01*
X98345164Y-55540688D01*
X98311000Y-55712441D01*
X98311000Y-55887559D01*
X98334925Y-56007840D01*
X98309469Y-56033296D01*
X98212179Y-56178901D01*
X98145164Y-56340688D01*
X98111000Y-56512441D01*
X94640000Y-56512441D01*
X94640000Y-53307581D01*
X94637198Y-53279135D01*
X94637253Y-53271318D01*
X94636354Y-53262147D01*
X94610446Y-53015644D01*
X94598414Y-52957028D01*
X94587208Y-52898284D01*
X94584544Y-52889462D01*
X94511249Y-52652686D01*
X94488074Y-52597555D01*
X94465661Y-52542080D01*
X94461334Y-52533944D01*
X94343446Y-52315914D01*
X94310012Y-52266346D01*
X94277240Y-52216265D01*
X94271416Y-52209124D01*
X94113423Y-52018144D01*
X94070988Y-51976005D01*
X94029125Y-51933255D01*
X94022024Y-51927381D01*
X93829946Y-51770727D01*
X93780169Y-51737655D01*
X93730763Y-51703826D01*
X93722657Y-51699444D01*
X93503809Y-51583081D01*
X93448532Y-51560298D01*
X93393525Y-51536721D01*
X93384722Y-51533997D01*
X93147441Y-51462357D01*
X93088754Y-51450736D01*
X93030248Y-51438300D01*
X93021085Y-51437337D01*
X93021083Y-51437337D01*
X92774405Y-51413150D01*
X92774402Y-51413150D01*
X92742419Y-51410000D01*
X83312000Y-51410000D01*
X83312000Y-49256740D01*
X85764000Y-49256740D01*
X85764000Y-49549260D01*
X85821068Y-49836158D01*
X85933010Y-50106411D01*
X86095525Y-50349632D01*
X86302368Y-50556475D01*
X86545589Y-50718990D01*
X86815842Y-50830932D01*
X87102740Y-50888000D01*
X87395260Y-50888000D01*
X87682158Y-50830932D01*
X87952411Y-50718990D01*
X88195632Y-50556475D01*
X88402475Y-50349632D01*
X88564990Y-50106411D01*
X88676932Y-49836158D01*
X88734000Y-49549260D01*
X88734000Y-49256740D01*
X88676932Y-48969842D01*
X88564990Y-48699589D01*
X88402475Y-48456368D01*
X88195632Y-48249525D01*
X87952411Y-48087010D01*
X87682158Y-47975068D01*
X87395260Y-47918000D01*
X87102740Y-47918000D01*
X86815842Y-47975068D01*
X86545589Y-48087010D01*
X86302368Y-48249525D01*
X86095525Y-48456368D01*
X85933010Y-48699589D01*
X85821068Y-48969842D01*
X85764000Y-49256740D01*
X83312000Y-49256740D01*
X83312000Y-47397933D01*
X95250000Y-47397933D01*
X95250000Y-47598067D01*
X95289044Y-47794356D01*
X95365632Y-47979256D01*
X95476821Y-48145662D01*
X95618338Y-48287179D01*
X95784744Y-48398368D01*
X95969644Y-48474956D01*
X96165933Y-48514000D01*
X96366067Y-48514000D01*
X96562356Y-48474956D01*
X96747256Y-48398368D01*
X96913662Y-48287179D01*
X97055179Y-48145662D01*
X97166368Y-47979256D01*
X97242956Y-47794356D01*
X97282000Y-47598067D01*
X97282000Y-47397933D01*
X97242956Y-47201644D01*
X97166368Y-47016744D01*
X97055179Y-46850338D01*
X96913662Y-46708821D01*
X96747256Y-46597632D01*
X96562356Y-46521044D01*
X96366067Y-46482000D01*
X96165933Y-46482000D01*
X95969644Y-46521044D01*
X95784744Y-46597632D01*
X95618338Y-46708821D01*
X95476821Y-46850338D01*
X95365632Y-47016744D01*
X95289044Y-47201644D01*
X95250000Y-47397933D01*
X83312000Y-47397933D01*
X83312000Y-45974000D01*
X89916000Y-45974000D01*
X89940776Y-45971560D01*
X89964601Y-45964333D01*
X89986557Y-45952597D01*
X90005803Y-45936803D01*
X90021597Y-45917557D01*
X90033333Y-45895601D01*
X90040560Y-45871776D01*
X90043000Y-45847000D01*
X90043000Y-42037000D01*
X90040560Y-42012224D01*
X90033333Y-41988399D01*
X90021597Y-41966443D01*
X90011577Y-41953370D01*
X88739820Y-40499933D01*
X102784000Y-40499933D01*
X102784000Y-40700067D01*
X102823044Y-40896356D01*
X102899632Y-41081256D01*
X102943829Y-41147401D01*
X102911000Y-41312441D01*
X102911000Y-41487559D01*
X102945164Y-41659312D01*
X103003439Y-41800000D01*
X102945164Y-41940688D01*
X102911000Y-42112441D01*
X102911000Y-42287559D01*
X102945164Y-42459312D01*
X103012179Y-42621099D01*
X103109469Y-42766704D01*
X103233296Y-42890531D01*
X103378901Y-42987821D01*
X103408303Y-43000000D01*
X103378901Y-43012179D01*
X103233296Y-43109469D01*
X103109469Y-43233296D01*
X103012179Y-43378901D01*
X102945164Y-43540688D01*
X102911000Y-43712441D01*
X102911000Y-43887559D01*
X102945164Y-44059312D01*
X103003439Y-44200000D01*
X102945164Y-44340688D01*
X102911000Y-44512441D01*
X102911000Y-44687559D01*
X102943244Y-44849660D01*
X102908541Y-44901597D01*
X102831953Y-45086497D01*
X102792909Y-45282786D01*
X102792909Y-45482920D01*
X102831953Y-45679209D01*
X102908541Y-45864109D01*
X102950730Y-45927250D01*
X102945164Y-45940688D01*
X102911000Y-46112441D01*
X102911000Y-46287559D01*
X102945164Y-46459312D01*
X103012179Y-46621099D01*
X103109469Y-46766704D01*
X103233296Y-46890531D01*
X103378901Y-46987821D01*
X103408303Y-47000000D01*
X103378901Y-47012179D01*
X103233296Y-47109469D01*
X103109469Y-47233296D01*
X103012179Y-47378901D01*
X102945164Y-47540688D01*
X102911000Y-47712441D01*
X102911000Y-47887559D01*
X102945164Y-48059312D01*
X103003439Y-48200000D01*
X102945164Y-48340688D01*
X102911000Y-48512441D01*
X102911000Y-48687559D01*
X102945164Y-48859312D01*
X103003439Y-49000000D01*
X102945164Y-49140688D01*
X102911000Y-49312441D01*
X102911000Y-49487559D01*
X102945164Y-49659312D01*
X103003439Y-49800000D01*
X102945164Y-49940688D01*
X102911000Y-50112441D01*
X102911000Y-50287559D01*
X102945164Y-50459312D01*
X103003439Y-50600000D01*
X102945164Y-50740688D01*
X102911000Y-50912441D01*
X102911000Y-51087559D01*
X102945164Y-51259312D01*
X103003439Y-51400000D01*
X102945164Y-51540688D01*
X102911000Y-51712441D01*
X102911000Y-51887559D01*
X102945164Y-52059312D01*
X103003439Y-52200000D01*
X102945164Y-52340688D01*
X102911000Y-52512441D01*
X102911000Y-52687559D01*
X102945164Y-52859312D01*
X103003439Y-53000000D01*
X102945164Y-53140688D01*
X102911000Y-53312441D01*
X102911000Y-53487559D01*
X102945164Y-53659312D01*
X103003439Y-53800000D01*
X102945164Y-53940688D01*
X102911000Y-54112441D01*
X102911000Y-54287559D01*
X102945164Y-54459312D01*
X103003439Y-54600000D01*
X102945164Y-54740688D01*
X102911000Y-54912441D01*
X102911000Y-55087559D01*
X102945164Y-55259312D01*
X103003439Y-55400000D01*
X102945164Y-55540688D01*
X102911000Y-55712441D01*
X102911000Y-55887559D01*
X102945164Y-56059312D01*
X103003439Y-56200000D01*
X102945164Y-56340688D01*
X102911000Y-56512441D01*
X102911000Y-56687559D01*
X102945164Y-56859312D01*
X103012179Y-57021099D01*
X103109469Y-57166704D01*
X103233296Y-57290531D01*
X103378901Y-57387821D01*
X103540688Y-57454836D01*
X103712441Y-57489000D01*
X103887559Y-57489000D01*
X104059312Y-57454836D01*
X104221099Y-57387821D01*
X104352632Y-57299933D01*
X111984000Y-57299933D01*
X111984000Y-57500067D01*
X112023044Y-57696356D01*
X112099632Y-57881256D01*
X112210821Y-58047662D01*
X112352338Y-58189179D01*
X112518744Y-58300368D01*
X112703644Y-58376956D01*
X112899933Y-58416000D01*
X113100067Y-58416000D01*
X113296356Y-58376956D01*
X113481256Y-58300368D01*
X113647662Y-58189179D01*
X113789179Y-58047662D01*
X113900368Y-57881256D01*
X113976956Y-57696356D01*
X114016000Y-57500067D01*
X114016000Y-57299933D01*
X113976956Y-57103644D01*
X113900368Y-56918744D01*
X113826666Y-56808441D01*
X114427000Y-56808441D01*
X114427000Y-56983559D01*
X114461164Y-57155312D01*
X114528179Y-57317099D01*
X114625469Y-57462704D01*
X114749296Y-57586531D01*
X114812047Y-57628460D01*
X114821885Y-57677920D01*
X114888900Y-57839707D01*
X114896361Y-57850873D01*
X114871512Y-57975796D01*
X114871512Y-58150914D01*
X114905676Y-58322667D01*
X114972691Y-58484454D01*
X115069981Y-58630059D01*
X115193808Y-58753886D01*
X115228851Y-58777301D01*
X115245164Y-58859312D01*
X115312179Y-59021099D01*
X115409469Y-59166704D01*
X115511831Y-59269066D01*
X115511831Y-59286729D01*
X115545995Y-59458482D01*
X115613010Y-59620269D01*
X115710300Y-59765874D01*
X115834127Y-59889701D01*
X115979732Y-59986991D01*
X116049257Y-60015789D01*
X116069242Y-60064037D01*
X116166532Y-60209642D01*
X116290359Y-60333469D01*
X116435964Y-60430759D01*
X116597751Y-60497774D01*
X116769504Y-60531938D01*
X116944622Y-60531938D01*
X117116375Y-60497774D01*
X117278162Y-60430759D01*
X117423767Y-60333469D01*
X117547594Y-60209642D01*
X117572703Y-60172064D01*
X117659312Y-60154836D01*
X117821099Y-60087821D01*
X117966704Y-59990531D01*
X118090531Y-59866704D01*
X118187821Y-59721099D01*
X118254836Y-59559312D01*
X118289000Y-59387559D01*
X118289000Y-59212441D01*
X118285253Y-59193603D01*
X118377189Y-59056011D01*
X118444204Y-58894224D01*
X118478368Y-58722471D01*
X118478368Y-58622238D01*
X118533902Y-58566704D01*
X118631192Y-58421099D01*
X118698207Y-58259312D01*
X118732371Y-58087559D01*
X118732371Y-57912441D01*
X118698207Y-57740688D01*
X118631192Y-57578901D01*
X118533902Y-57433296D01*
X118410075Y-57309469D01*
X118264470Y-57212179D01*
X118102683Y-57145164D01*
X117930930Y-57111000D01*
X117755812Y-57111000D01*
X117584059Y-57145164D01*
X117422272Y-57212179D01*
X117276667Y-57309469D01*
X117152840Y-57433296D01*
X117055550Y-57578901D01*
X116988535Y-57740688D01*
X116954371Y-57912441D01*
X116954371Y-58012674D01*
X116898837Y-58068208D01*
X116856348Y-58131798D01*
X116790531Y-58033296D01*
X116666704Y-57909469D01*
X116631661Y-57886054D01*
X116615348Y-57804043D01*
X116548333Y-57642256D01*
X116540872Y-57631090D01*
X116565721Y-57506167D01*
X116565721Y-57331049D01*
X116531557Y-57159296D01*
X116464542Y-56997509D01*
X116367252Y-56851904D01*
X116243425Y-56728077D01*
X116180674Y-56686148D01*
X116170836Y-56636688D01*
X116103821Y-56474901D01*
X116006531Y-56329296D01*
X115882704Y-56205469D01*
X115737099Y-56108179D01*
X115575312Y-56041164D01*
X115403559Y-56007000D01*
X115228441Y-56007000D01*
X115056688Y-56041164D01*
X114894901Y-56108179D01*
X114749296Y-56205469D01*
X114625469Y-56329296D01*
X114528179Y-56474901D01*
X114461164Y-56636688D01*
X114427000Y-56808441D01*
X113826666Y-56808441D01*
X113789179Y-56752338D01*
X113647662Y-56610821D01*
X113481256Y-56499632D01*
X113296356Y-56423044D01*
X113100067Y-56384000D01*
X112899933Y-56384000D01*
X112703644Y-56423044D01*
X112518744Y-56499632D01*
X112352338Y-56610821D01*
X112210821Y-56752338D01*
X112099632Y-56918744D01*
X112023044Y-57103644D01*
X111984000Y-57299933D01*
X104352632Y-57299933D01*
X104366704Y-57290531D01*
X104490531Y-57166704D01*
X104587821Y-57021099D01*
X104654836Y-56859312D01*
X104689000Y-56687559D01*
X104689000Y-56512441D01*
X104654836Y-56340688D01*
X104596561Y-56200000D01*
X104654836Y-56059312D01*
X104689000Y-55887559D01*
X104689000Y-55712441D01*
X104654836Y-55540688D01*
X104596561Y-55400000D01*
X104654836Y-55259312D01*
X104689000Y-55087559D01*
X104689000Y-54912441D01*
X104654836Y-54740688D01*
X104596561Y-54600000D01*
X104654836Y-54459312D01*
X104689000Y-54287559D01*
X104689000Y-54112441D01*
X104654836Y-53940688D01*
X104596561Y-53800000D01*
X104654836Y-53659312D01*
X104689000Y-53487559D01*
X104689000Y-53312441D01*
X104654836Y-53140688D01*
X104596561Y-53000000D01*
X104654836Y-52859312D01*
X104689000Y-52687559D01*
X104689000Y-52512441D01*
X104654836Y-52340688D01*
X104596561Y-52200000D01*
X104654836Y-52059312D01*
X104689000Y-51887559D01*
X104689000Y-51712441D01*
X104654836Y-51540688D01*
X104596561Y-51400000D01*
X104654836Y-51259312D01*
X104689000Y-51087559D01*
X104689000Y-50912441D01*
X104687011Y-50902441D01*
X115321000Y-50902441D01*
X115321000Y-51077559D01*
X115355164Y-51249312D01*
X115422179Y-51411099D01*
X115519469Y-51556704D01*
X115643296Y-51680531D01*
X115671078Y-51699094D01*
X115655510Y-51777357D01*
X115655510Y-51952475D01*
X115689674Y-52124228D01*
X115756689Y-52286015D01*
X115853979Y-52431620D01*
X115977806Y-52555447D01*
X115992495Y-52565262D01*
X115976185Y-52647256D01*
X115976185Y-52822374D01*
X116010349Y-52994127D01*
X116077364Y-53155914D01*
X116174654Y-53301519D01*
X116192346Y-53319211D01*
X116192346Y-53487559D01*
X116226510Y-53659312D01*
X116293525Y-53821099D01*
X116390815Y-53966704D01*
X116461325Y-54037214D01*
X116446361Y-54112441D01*
X116446361Y-54287559D01*
X116480525Y-54459312D01*
X116547540Y-54621099D01*
X116644830Y-54766704D01*
X116715345Y-54837219D01*
X116700382Y-54912441D01*
X116700382Y-55087559D01*
X116734546Y-55259312D01*
X116801561Y-55421099D01*
X116898851Y-55566704D01*
X116969340Y-55637193D01*
X116954372Y-55712441D01*
X116954372Y-55887559D01*
X116988536Y-56059312D01*
X117055551Y-56221099D01*
X117152841Y-56366704D01*
X117276668Y-56490531D01*
X117422273Y-56587821D01*
X117584060Y-56654836D01*
X117755813Y-56689000D01*
X117930931Y-56689000D01*
X118102684Y-56654836D01*
X118264471Y-56587821D01*
X118410076Y-56490531D01*
X118533903Y-56366704D01*
X118631193Y-56221099D01*
X118698208Y-56059312D01*
X118732372Y-55887559D01*
X118732372Y-55712441D01*
X118698208Y-55540688D01*
X118631193Y-55378901D01*
X118533903Y-55233296D01*
X118463414Y-55162807D01*
X118478382Y-55087559D01*
X118478382Y-54912441D01*
X118444218Y-54740688D01*
X118377203Y-54578901D01*
X118279913Y-54433296D01*
X118209398Y-54362781D01*
X118224361Y-54287559D01*
X118224361Y-54112441D01*
X118190197Y-53940688D01*
X118123182Y-53778901D01*
X118025892Y-53633296D01*
X117955382Y-53562786D01*
X117970346Y-53487559D01*
X117970346Y-53312441D01*
X117936182Y-53140688D01*
X117869167Y-52978901D01*
X117771877Y-52833296D01*
X117754185Y-52815604D01*
X117754185Y-52647256D01*
X117720021Y-52475503D01*
X117653006Y-52313716D01*
X117555716Y-52168111D01*
X117431889Y-52044284D01*
X117417200Y-52034469D01*
X117433510Y-51952475D01*
X117433510Y-51777357D01*
X117399346Y-51605604D01*
X117332331Y-51443817D01*
X117235041Y-51298212D01*
X117117829Y-51181000D01*
X117181559Y-51181000D01*
X117353312Y-51146836D01*
X117515099Y-51079821D01*
X117660704Y-50982531D01*
X117784531Y-50858704D01*
X117881821Y-50713099D01*
X117948836Y-50551312D01*
X117983000Y-50379559D01*
X117983000Y-50204441D01*
X117948836Y-50032688D01*
X117881821Y-49870901D01*
X117784531Y-49725296D01*
X117660704Y-49601469D01*
X117515099Y-49504179D01*
X117353312Y-49437164D01*
X117181559Y-49403000D01*
X117006441Y-49403000D01*
X116834688Y-49437164D01*
X116672901Y-49504179D01*
X116527296Y-49601469D01*
X116403469Y-49725296D01*
X116306179Y-49870901D01*
X116239164Y-50032688D01*
X116225576Y-50101000D01*
X116122441Y-50101000D01*
X115950688Y-50135164D01*
X115788901Y-50202179D01*
X115643296Y-50299469D01*
X115519469Y-50423296D01*
X115422179Y-50568901D01*
X115355164Y-50730688D01*
X115321000Y-50902441D01*
X104687011Y-50902441D01*
X104654836Y-50740688D01*
X104596561Y-50600000D01*
X104654836Y-50459312D01*
X104689000Y-50287559D01*
X104689000Y-50112441D01*
X104654836Y-49940688D01*
X104596561Y-49800000D01*
X104654836Y-49659312D01*
X104689000Y-49487559D01*
X104689000Y-49312441D01*
X104654836Y-49140688D01*
X104596561Y-49000000D01*
X104654836Y-48859312D01*
X104689000Y-48687559D01*
X104689000Y-48512441D01*
X104654836Y-48340688D01*
X104601715Y-48212441D01*
X116011000Y-48212441D01*
X116011000Y-48387559D01*
X116045164Y-48559312D01*
X116112179Y-48721099D01*
X116209469Y-48866704D01*
X116333296Y-48990531D01*
X116478901Y-49087821D01*
X116640688Y-49154836D01*
X116812441Y-49189000D01*
X116987559Y-49189000D01*
X117159312Y-49154836D01*
X117321099Y-49087821D01*
X117466704Y-48990531D01*
X117590531Y-48866704D01*
X117687821Y-48721099D01*
X117754836Y-48559312D01*
X117789000Y-48387559D01*
X117789000Y-48212441D01*
X117754836Y-48040688D01*
X117687821Y-47878901D01*
X117590531Y-47733296D01*
X117466704Y-47609469D01*
X117321099Y-47512179D01*
X117159312Y-47445164D01*
X116987559Y-47411000D01*
X116812441Y-47411000D01*
X116640688Y-47445164D01*
X116478901Y-47512179D01*
X116333296Y-47609469D01*
X116209469Y-47733296D01*
X116112179Y-47878901D01*
X116045164Y-48040688D01*
X116011000Y-48212441D01*
X104601715Y-48212441D01*
X104596561Y-48200000D01*
X104654836Y-48059312D01*
X104689000Y-47887559D01*
X104689000Y-47712441D01*
X104654836Y-47540688D01*
X104587821Y-47378901D01*
X104490531Y-47233296D01*
X104366704Y-47109469D01*
X104221099Y-47012179D01*
X104191697Y-47000000D01*
X104221099Y-46987821D01*
X104352632Y-46899933D01*
X111984000Y-46899933D01*
X111984000Y-47100067D01*
X112023044Y-47296356D01*
X112099632Y-47481256D01*
X112210821Y-47647662D01*
X112352338Y-47789179D01*
X112518744Y-47900368D01*
X112703644Y-47976956D01*
X112899933Y-48016000D01*
X113100067Y-48016000D01*
X113296356Y-47976956D01*
X113481256Y-47900368D01*
X113647662Y-47789179D01*
X113789179Y-47647662D01*
X113900368Y-47481256D01*
X113976956Y-47296356D01*
X114016000Y-47100067D01*
X114016000Y-46899933D01*
X113976956Y-46703644D01*
X113900368Y-46518744D01*
X113789179Y-46352338D01*
X113647662Y-46210821D01*
X113481256Y-46099632D01*
X113296356Y-46023044D01*
X113100067Y-45984000D01*
X112899933Y-45984000D01*
X112703644Y-46023044D01*
X112518744Y-46099632D01*
X112352338Y-46210821D01*
X112210821Y-46352338D01*
X112099632Y-46518744D01*
X112023044Y-46703644D01*
X111984000Y-46899933D01*
X104352632Y-46899933D01*
X104366704Y-46890531D01*
X104490531Y-46766704D01*
X104587821Y-46621099D01*
X104654836Y-46459312D01*
X104689000Y-46287559D01*
X104689000Y-46112441D01*
X104655587Y-45944462D01*
X104709277Y-45864109D01*
X104785865Y-45679209D01*
X104824909Y-45482920D01*
X104824909Y-45282786D01*
X104785865Y-45086497D01*
X104709277Y-44901597D01*
X104660843Y-44829111D01*
X104689000Y-44687559D01*
X104689000Y-44512441D01*
X104654836Y-44340688D01*
X104596561Y-44200000D01*
X104654836Y-44059312D01*
X104689000Y-43887559D01*
X104689000Y-43712441D01*
X104654836Y-43540688D01*
X104587821Y-43378901D01*
X104490531Y-43233296D01*
X104366704Y-43109469D01*
X104221099Y-43012179D01*
X104191697Y-43000000D01*
X104221099Y-42987821D01*
X104352632Y-42899933D01*
X111984000Y-42899933D01*
X111984000Y-43100067D01*
X112023044Y-43296356D01*
X112099632Y-43481256D01*
X112210821Y-43647662D01*
X112352338Y-43789179D01*
X112518744Y-43900368D01*
X112703644Y-43976956D01*
X112899933Y-44016000D01*
X113100067Y-44016000D01*
X113296356Y-43976956D01*
X113481256Y-43900368D01*
X113647662Y-43789179D01*
X113789179Y-43647662D01*
X113900368Y-43481256D01*
X113976956Y-43296356D01*
X114016000Y-43100067D01*
X114016000Y-42899933D01*
X113976956Y-42703644D01*
X113900368Y-42518744D01*
X113789179Y-42352338D01*
X113647662Y-42210821D01*
X113481256Y-42099632D01*
X113296356Y-42023044D01*
X113100067Y-41984000D01*
X112899933Y-41984000D01*
X112703644Y-42023044D01*
X112518744Y-42099632D01*
X112352338Y-42210821D01*
X112210821Y-42352338D01*
X112099632Y-42518744D01*
X112023044Y-42703644D01*
X111984000Y-42899933D01*
X104352632Y-42899933D01*
X104366704Y-42890531D01*
X104490531Y-42766704D01*
X104587821Y-42621099D01*
X104654836Y-42459312D01*
X104689000Y-42287559D01*
X104689000Y-42112441D01*
X104654836Y-41940688D01*
X104596561Y-41800000D01*
X104654836Y-41659312D01*
X104689000Y-41487559D01*
X104689000Y-41312441D01*
X104656171Y-41147401D01*
X104700368Y-41081256D01*
X104776956Y-40896356D01*
X104816000Y-40700067D01*
X104816000Y-40499933D01*
X104776956Y-40303644D01*
X104700368Y-40118744D01*
X104656171Y-40052599D01*
X104689000Y-39887559D01*
X104689000Y-39712441D01*
X104654836Y-39540688D01*
X104596561Y-39400000D01*
X104654836Y-39259312D01*
X104689000Y-39087559D01*
X104689000Y-38912441D01*
X104654836Y-38740688D01*
X104587821Y-38578901D01*
X104490531Y-38433296D01*
X104366704Y-38309469D01*
X104221099Y-38212179D01*
X104191697Y-38200000D01*
X104221099Y-38187821D01*
X104366704Y-38090531D01*
X104490531Y-37966704D01*
X104587821Y-37821099D01*
X104654836Y-37659312D01*
X104689000Y-37487559D01*
X104689000Y-37312441D01*
X104654836Y-37140688D01*
X104587821Y-36978901D01*
X104490531Y-36833296D01*
X104366704Y-36709469D01*
X104221099Y-36612179D01*
X104059312Y-36545164D01*
X103887559Y-36511000D01*
X103712441Y-36511000D01*
X103540688Y-36545164D01*
X103378901Y-36612179D01*
X103233296Y-36709469D01*
X103109469Y-36833296D01*
X103012179Y-36978901D01*
X102945164Y-37140688D01*
X102911000Y-37312441D01*
X102911000Y-37487559D01*
X102945164Y-37659312D01*
X103012179Y-37821099D01*
X103109469Y-37966704D01*
X103233296Y-38090531D01*
X103378901Y-38187821D01*
X103408303Y-38200000D01*
X103378901Y-38212179D01*
X103233296Y-38309469D01*
X103109469Y-38433296D01*
X103012179Y-38578901D01*
X102945164Y-38740688D01*
X102911000Y-38912441D01*
X102911000Y-39087559D01*
X102945164Y-39259312D01*
X103003439Y-39400000D01*
X102945164Y-39540688D01*
X102911000Y-39712441D01*
X102911000Y-39887559D01*
X102943829Y-40052599D01*
X102899632Y-40118744D01*
X102823044Y-40303644D01*
X102784000Y-40499933D01*
X88739820Y-40499933D01*
X85239820Y-36499933D01*
X111984000Y-36499933D01*
X111984000Y-36700067D01*
X112023044Y-36896356D01*
X112099632Y-37081256D01*
X112210821Y-37247662D01*
X112352338Y-37389179D01*
X112368533Y-37400000D01*
X112352338Y-37410821D01*
X112210821Y-37552338D01*
X112099632Y-37718744D01*
X112023044Y-37903644D01*
X111984000Y-38099933D01*
X111984000Y-38300067D01*
X112023044Y-38496356D01*
X112099632Y-38681256D01*
X112210821Y-38847662D01*
X112352338Y-38989179D01*
X112518744Y-39100368D01*
X112703644Y-39176956D01*
X112899933Y-39216000D01*
X113100067Y-39216000D01*
X113296356Y-39176956D01*
X113481256Y-39100368D01*
X113647662Y-38989179D01*
X113789179Y-38847662D01*
X113900368Y-38681256D01*
X113976956Y-38496356D01*
X114016000Y-38300067D01*
X114016000Y-38099933D01*
X113976956Y-37903644D01*
X113900368Y-37718744D01*
X113789179Y-37552338D01*
X113647662Y-37410821D01*
X113631467Y-37400000D01*
X113647662Y-37389179D01*
X113789179Y-37247662D01*
X113900368Y-37081256D01*
X113976956Y-36896356D01*
X114016000Y-36700067D01*
X114016000Y-36499933D01*
X113976956Y-36303644D01*
X113900368Y-36118744D01*
X113789179Y-35952338D01*
X113647662Y-35810821D01*
X113481256Y-35699632D01*
X113296356Y-35623044D01*
X113100067Y-35584000D01*
X112899933Y-35584000D01*
X112703644Y-35623044D01*
X112518744Y-35699632D01*
X112352338Y-35810821D01*
X112210821Y-35952338D01*
X112099632Y-36118744D01*
X112023044Y-36303644D01*
X111984000Y-36499933D01*
X85239820Y-36499933D01*
X84677577Y-35857370D01*
X84659425Y-35840331D01*
X84638298Y-35827160D01*
X84615007Y-35818364D01*
X84582000Y-35814000D01*
X72771000Y-35814000D01*
X72771000Y-33059000D01*
X73314928Y-33059000D01*
X73314928Y-34759000D01*
X73327188Y-34883482D01*
X73363498Y-35003180D01*
X73422463Y-35113494D01*
X73501815Y-35210185D01*
X73598506Y-35289537D01*
X73708820Y-35348502D01*
X73828518Y-35384812D01*
X73953000Y-35397072D01*
X75653000Y-35397072D01*
X75777482Y-35384812D01*
X75897180Y-35348502D01*
X76007494Y-35289537D01*
X76104185Y-35210185D01*
X76183537Y-35113494D01*
X76242502Y-35003180D01*
X76264513Y-34930620D01*
X76396368Y-35062475D01*
X76639589Y-35224990D01*
X76909842Y-35336932D01*
X77196740Y-35394000D01*
X77489260Y-35394000D01*
X77776158Y-35336932D01*
X78046411Y-35224990D01*
X78289632Y-35062475D01*
X78496475Y-34855632D01*
X78613000Y-34681240D01*
X78729525Y-34855632D01*
X78936368Y-35062475D01*
X79179589Y-35224990D01*
X79449842Y-35336932D01*
X79736740Y-35394000D01*
X80029260Y-35394000D01*
X80316158Y-35336932D01*
X80586411Y-35224990D01*
X80829632Y-35062475D01*
X81036475Y-34855632D01*
X81153000Y-34681240D01*
X81269525Y-34855632D01*
X81476368Y-35062475D01*
X81719589Y-35224990D01*
X81989842Y-35336932D01*
X82276740Y-35394000D01*
X82569260Y-35394000D01*
X82856158Y-35336932D01*
X83126411Y-35224990D01*
X83369632Y-35062475D01*
X83576475Y-34855632D01*
X83693000Y-34681240D01*
X83809525Y-34855632D01*
X84016368Y-35062475D01*
X84259589Y-35224990D01*
X84529842Y-35336932D01*
X84816740Y-35394000D01*
X85109260Y-35394000D01*
X85396158Y-35336932D01*
X85666411Y-35224990D01*
X85909632Y-35062475D01*
X86116475Y-34855632D01*
X86278990Y-34612411D01*
X86390932Y-34342158D01*
X86448000Y-34055260D01*
X86448000Y-33762740D01*
X86390932Y-33475842D01*
X86278990Y-33205589D01*
X86116475Y-32962368D01*
X85909632Y-32755525D01*
X85833782Y-32704843D01*
X109982000Y-32704843D01*
X109982000Y-32904977D01*
X110021044Y-33101266D01*
X110097632Y-33286166D01*
X110208821Y-33452572D01*
X110350338Y-33594089D01*
X110516744Y-33705278D01*
X110701644Y-33781866D01*
X110897933Y-33820910D01*
X111098067Y-33820910D01*
X111294356Y-33781866D01*
X111479256Y-33705278D01*
X111645662Y-33594089D01*
X111787179Y-33452572D01*
X111898368Y-33286166D01*
X111974956Y-33101266D01*
X112014000Y-32904977D01*
X112014000Y-32704843D01*
X111974956Y-32508554D01*
X111898368Y-32323654D01*
X111787179Y-32157248D01*
X111645662Y-32015731D01*
X111479256Y-31904542D01*
X111294356Y-31827954D01*
X111098067Y-31788910D01*
X110897933Y-31788910D01*
X110701644Y-31827954D01*
X110516744Y-31904542D01*
X110350338Y-32015731D01*
X110208821Y-32157248D01*
X110097632Y-32323654D01*
X110021044Y-32508554D01*
X109982000Y-32704843D01*
X85833782Y-32704843D01*
X85735240Y-32639000D01*
X85909632Y-32522475D01*
X86116475Y-32315632D01*
X86278990Y-32072411D01*
X86390932Y-31802158D01*
X86448000Y-31515260D01*
X86448000Y-31222740D01*
X86390932Y-30935842D01*
X86278990Y-30665589D01*
X86116475Y-30422368D01*
X85909632Y-30215525D01*
X85666411Y-30053010D01*
X85396158Y-29941068D01*
X85109260Y-29884000D01*
X84816740Y-29884000D01*
X84529842Y-29941068D01*
X84259589Y-30053010D01*
X84016368Y-30215525D01*
X83809525Y-30422368D01*
X83693000Y-30596760D01*
X83576475Y-30422368D01*
X83369632Y-30215525D01*
X83126411Y-30053010D01*
X82856158Y-29941068D01*
X82569260Y-29884000D01*
X82276740Y-29884000D01*
X81989842Y-29941068D01*
X81719589Y-30053010D01*
X81476368Y-30215525D01*
X81269525Y-30422368D01*
X81153000Y-30596760D01*
X81036475Y-30422368D01*
X80829632Y-30215525D01*
X80586411Y-30053010D01*
X80316158Y-29941068D01*
X80029260Y-29884000D01*
X79736740Y-29884000D01*
X79449842Y-29941068D01*
X79179589Y-30053010D01*
X78936368Y-30215525D01*
X78729525Y-30422368D01*
X78613000Y-30596760D01*
X78496475Y-30422368D01*
X78289632Y-30215525D01*
X78046411Y-30053010D01*
X77776158Y-29941068D01*
X77489260Y-29884000D01*
X77196740Y-29884000D01*
X76909842Y-29941068D01*
X76639589Y-30053010D01*
X76396368Y-30215525D01*
X76189525Y-30422368D01*
X76073000Y-30596760D01*
X75956475Y-30422368D01*
X75749632Y-30215525D01*
X75506411Y-30053010D01*
X75236158Y-29941068D01*
X74949260Y-29884000D01*
X74656740Y-29884000D01*
X74369842Y-29941068D01*
X74099589Y-30053010D01*
X73856368Y-30215525D01*
X73649525Y-30422368D01*
X73487010Y-30665589D01*
X73375068Y-30935842D01*
X73318000Y-31222740D01*
X73318000Y-31515260D01*
X73375068Y-31802158D01*
X73487010Y-32072411D01*
X73649525Y-32315632D01*
X73781380Y-32447487D01*
X73708820Y-32469498D01*
X73598506Y-32528463D01*
X73501815Y-32607815D01*
X73422463Y-32704506D01*
X73363498Y-32814820D01*
X73327188Y-32934518D01*
X73314928Y-33059000D01*
X72771000Y-33059000D01*
X72771000Y-29114876D01*
X90920400Y-29114876D01*
X90920400Y-29485124D01*
X90992632Y-29848259D01*
X91134320Y-30190325D01*
X91340019Y-30498175D01*
X91601825Y-30759981D01*
X91909675Y-30965680D01*
X92251741Y-31107368D01*
X92614876Y-31179600D01*
X92985124Y-31179600D01*
X93348259Y-31107368D01*
X93690325Y-30965680D01*
X93998175Y-30759981D01*
X94259981Y-30498175D01*
X94465680Y-30190325D01*
X94507784Y-30088676D01*
X97620400Y-30088676D01*
X97620400Y-30311326D01*
X97663837Y-30529697D01*
X97749041Y-30735399D01*
X97872739Y-30920525D01*
X98030176Y-31077962D01*
X98215302Y-31201660D01*
X98421004Y-31286864D01*
X98639375Y-31330301D01*
X98862025Y-31330301D01*
X99080396Y-31286864D01*
X99286098Y-31201660D01*
X99471224Y-31077962D01*
X99500000Y-31049186D01*
X99528776Y-31077962D01*
X99713902Y-31201660D01*
X99919604Y-31286864D01*
X100137975Y-31330301D01*
X100360625Y-31330301D01*
X100578996Y-31286864D01*
X100784698Y-31201660D01*
X100969824Y-31077962D01*
X101127261Y-30920525D01*
X101250959Y-30735399D01*
X101336163Y-30529697D01*
X101379600Y-30311326D01*
X101379600Y-30088676D01*
X101336163Y-29870305D01*
X101250959Y-29664603D01*
X101127261Y-29479477D01*
X100969824Y-29322040D01*
X100784698Y-29198342D01*
X100583192Y-29114876D01*
X104320400Y-29114876D01*
X104320400Y-29485124D01*
X104392632Y-29848259D01*
X104534320Y-30190325D01*
X104740019Y-30498175D01*
X105001825Y-30759981D01*
X105309675Y-30965680D01*
X105651741Y-31107368D01*
X106014876Y-31179600D01*
X106385124Y-31179600D01*
X106748259Y-31107368D01*
X107090325Y-30965680D01*
X107398175Y-30759981D01*
X107659981Y-30498175D01*
X107865680Y-30190325D01*
X108007368Y-29848259D01*
X108079600Y-29485124D01*
X108079600Y-29114876D01*
X108007368Y-28751741D01*
X107865680Y-28409675D01*
X107659981Y-28101825D01*
X107398175Y-27840019D01*
X107090325Y-27634320D01*
X106748259Y-27492632D01*
X106385124Y-27420400D01*
X106014876Y-27420400D01*
X105651741Y-27492632D01*
X105309675Y-27634320D01*
X105001825Y-27840019D01*
X104740019Y-28101825D01*
X104534320Y-28409675D01*
X104392632Y-28751741D01*
X104320400Y-29114876D01*
X100583192Y-29114876D01*
X100578996Y-29113138D01*
X100360625Y-29069701D01*
X100137975Y-29069701D01*
X99919604Y-29113138D01*
X99713902Y-29198342D01*
X99528776Y-29322040D01*
X99500000Y-29350816D01*
X99471224Y-29322040D01*
X99286098Y-29198342D01*
X99080396Y-29113138D01*
X98862025Y-29069701D01*
X98639375Y-29069701D01*
X98421004Y-29113138D01*
X98215302Y-29198342D01*
X98030176Y-29322040D01*
X97872739Y-29479477D01*
X97749041Y-29664603D01*
X97663837Y-29870305D01*
X97620400Y-30088676D01*
X94507784Y-30088676D01*
X94607368Y-29848259D01*
X94679600Y-29485124D01*
X94679600Y-29114876D01*
X94607368Y-28751741D01*
X94465680Y-28409675D01*
X94259981Y-28101825D01*
X93998175Y-27840019D01*
X93690325Y-27634320D01*
X93348259Y-27492632D01*
X92985124Y-27420400D01*
X92614876Y-27420400D01*
X92251741Y-27492632D01*
X91909675Y-27634320D01*
X91601825Y-27840019D01*
X91340019Y-28101825D01*
X91134320Y-28409675D01*
X90992632Y-28751741D01*
X90920400Y-29114876D01*
X72771000Y-29114876D01*
X72771000Y-23139000D01*
X95093603Y-23139000D01*
X95023251Y-23244289D01*
G37*
X95023251Y-23244289D02*
X94918900Y-23496216D01*
X94865702Y-23763659D01*
X94865702Y-24036343D01*
X94918900Y-24303786D01*
X95023251Y-24555713D01*
X95174746Y-24782441D01*
X95367562Y-24975257D01*
X95594290Y-25126752D01*
X95650452Y-25150015D01*
X95594358Y-25173250D01*
X95367630Y-25324745D01*
X95174814Y-25517561D01*
X95023319Y-25744289D01*
X94918968Y-25996216D01*
X94865770Y-26263659D01*
X94865770Y-26536343D01*
X94918968Y-26803786D01*
X95023319Y-27055713D01*
X95174814Y-27282441D01*
X95367630Y-27475257D01*
X95594358Y-27626752D01*
X95846285Y-27731103D01*
X96113728Y-27784301D01*
X96386412Y-27784301D01*
X96653855Y-27731103D01*
X96905782Y-27626752D01*
X97132510Y-27475257D01*
X97225035Y-27382732D01*
X97317560Y-27475257D01*
X97544288Y-27626752D01*
X97796215Y-27731103D01*
X98063658Y-27784301D01*
X98336342Y-27784301D01*
X98603785Y-27731103D01*
X98855712Y-27626752D01*
X99082440Y-27475257D01*
X99275256Y-27282441D01*
X99426751Y-27055713D01*
X99500000Y-26878873D01*
X99573249Y-27055713D01*
X99724744Y-27282441D01*
X99917560Y-27475257D01*
X100144288Y-27626752D01*
X100396215Y-27731103D01*
X100663658Y-27784301D01*
X100936342Y-27784301D01*
X101203785Y-27731103D01*
X101455712Y-27626752D01*
X101682440Y-27475257D01*
X101775035Y-27382662D01*
X101867630Y-27475257D01*
X102094358Y-27626752D01*
X102346285Y-27731103D01*
X102613728Y-27784301D01*
X102886412Y-27784301D01*
X103153855Y-27731103D01*
X103405782Y-27626752D01*
X103632510Y-27475257D01*
X103825326Y-27282441D01*
X103976821Y-27055713D01*
X104081172Y-26803786D01*
X104134370Y-26536343D01*
X104134370Y-26263659D01*
X104081172Y-25996216D01*
X103976821Y-25744289D01*
X103825326Y-25517561D01*
X103632510Y-25324745D01*
X103405782Y-25173250D01*
X103349619Y-25149987D01*
X103405713Y-25126752D01*
X103632441Y-24975257D01*
X103825257Y-24782441D01*
X103976752Y-24555713D01*
X103979118Y-24550000D01*
X120111928Y-24550000D01*
X120111928Y-26250000D01*
X120124188Y-26374482D01*
X120160498Y-26494180D01*
X120219463Y-26604494D01*
X120298815Y-26701185D01*
X120395506Y-26780537D01*
X120505820Y-26839502D01*
X120578380Y-26861513D01*
X120446525Y-26993368D01*
X120284010Y-27236589D01*
X120172068Y-27506842D01*
X120115000Y-27793740D01*
X120115000Y-28086260D01*
X120172068Y-28373158D01*
X120284010Y-28643411D01*
X120446525Y-28886632D01*
X120653368Y-29093475D01*
X120827760Y-29210000D01*
X120653368Y-29326525D01*
X120446525Y-29533368D01*
X120284010Y-29776589D01*
X120172068Y-30046842D01*
X120115000Y-30333740D01*
X120115000Y-30626260D01*
X120172068Y-30913158D01*
X120284010Y-31183411D01*
X120446525Y-31426632D01*
X120653368Y-31633475D01*
X120827760Y-31750000D01*
X120653368Y-31866525D01*
X120446525Y-32073368D01*
X120284010Y-32316589D01*
X120172068Y-32586842D01*
X120115000Y-32873740D01*
X120115000Y-33166260D01*
X120172068Y-33453158D01*
X120284010Y-33723411D01*
X120446525Y-33966632D01*
X120653368Y-34173475D01*
X120827760Y-34290000D01*
X120653368Y-34406525D01*
X120446525Y-34613368D01*
X120284010Y-34856589D01*
X120172068Y-35126842D01*
X120115000Y-35413740D01*
X120115000Y-35706260D01*
X120172068Y-35993158D01*
X120284010Y-36263411D01*
X120446525Y-36506632D01*
X120653368Y-36713475D01*
X120827760Y-36830000D01*
X120653368Y-36946525D01*
X120446525Y-37153368D01*
X120284010Y-37396589D01*
X120172068Y-37666842D01*
X120115000Y-37953740D01*
X120115000Y-38246260D01*
X120172068Y-38533158D01*
X120284010Y-38803411D01*
X120446525Y-39046632D01*
X120653368Y-39253475D01*
X120827760Y-39370000D01*
X120653368Y-39486525D01*
X120446525Y-39693368D01*
X120284010Y-39936589D01*
X120172068Y-40206842D01*
X120115000Y-40493740D01*
X120115000Y-40786260D01*
X120172068Y-41073158D01*
X120284010Y-41343411D01*
X120446525Y-41586632D01*
X120653368Y-41793475D01*
X120827760Y-41910000D01*
X120653368Y-42026525D01*
X120446525Y-42233368D01*
X120284010Y-42476589D01*
X120172068Y-42746842D01*
X120115000Y-43033740D01*
X120115000Y-43326260D01*
X120172068Y-43613158D01*
X120284010Y-43883411D01*
X120446525Y-44126632D01*
X120653368Y-44333475D01*
X120827760Y-44450000D01*
X120653368Y-44566525D01*
X120446525Y-44773368D01*
X120284010Y-45016589D01*
X120172068Y-45286842D01*
X120115000Y-45573740D01*
X120115000Y-45866260D01*
X120172068Y-46153158D01*
X120284010Y-46423411D01*
X120446525Y-46666632D01*
X120653368Y-46873475D01*
X120827760Y-46990000D01*
X120653368Y-47106525D01*
X120446525Y-47313368D01*
X120284010Y-47556589D01*
X120172068Y-47826842D01*
X120115000Y-48113740D01*
X120115000Y-48406260D01*
X120172068Y-48693158D01*
X120284010Y-48963411D01*
X120446525Y-49206632D01*
X120653368Y-49413475D01*
X120827760Y-49530000D01*
X120653368Y-49646525D01*
X120446525Y-49853368D01*
X120284010Y-50096589D01*
X120172068Y-50366842D01*
X120115000Y-50653740D01*
X120115000Y-50946260D01*
X120172068Y-51233158D01*
X120284010Y-51503411D01*
X120446525Y-51746632D01*
X120653368Y-51953475D01*
X120827760Y-52070000D01*
X120653368Y-52186525D01*
X120446525Y-52393368D01*
X120284010Y-52636589D01*
X120172068Y-52906842D01*
X120115000Y-53193740D01*
X120115000Y-53486260D01*
X120172068Y-53773158D01*
X120284010Y-54043411D01*
X120446525Y-54286632D01*
X120653368Y-54493475D01*
X120827760Y-54610000D01*
X120653368Y-54726525D01*
X120446525Y-54933368D01*
X120284010Y-55176589D01*
X120172068Y-55446842D01*
X120115000Y-55733740D01*
X120115000Y-56026260D01*
X120172068Y-56313158D01*
X120284010Y-56583411D01*
X120446525Y-56826632D01*
X120653368Y-57033475D01*
X120827760Y-57150000D01*
X120653368Y-57266525D01*
X120446525Y-57473368D01*
X120284010Y-57716589D01*
X120172068Y-57986842D01*
X120115000Y-58273740D01*
X120115000Y-58566260D01*
X120172068Y-58853158D01*
X120284010Y-59123411D01*
X120446525Y-59366632D01*
X120653368Y-59573475D01*
X120827760Y-59690000D01*
X120653368Y-59806525D01*
X120446525Y-60013368D01*
X120284010Y-60256589D01*
X120172068Y-60526842D01*
X120115000Y-60813740D01*
X120115000Y-61106260D01*
X120172068Y-61393158D01*
X120284010Y-61663411D01*
X120446525Y-61906632D01*
X120653368Y-62113475D01*
X120827760Y-62230000D01*
X120653368Y-62346525D01*
X120446525Y-62553368D01*
X120284010Y-62796589D01*
X120172068Y-63066842D01*
X120115000Y-63353740D01*
X120115000Y-63646260D01*
X120172068Y-63933158D01*
X120284010Y-64203411D01*
X120446525Y-64446632D01*
X120653368Y-64653475D01*
X120827760Y-64770000D01*
X120653368Y-64886525D01*
X120446525Y-65093368D01*
X120284010Y-65336589D01*
X120172068Y-65606842D01*
X120115000Y-65893740D01*
X120115000Y-66186260D01*
X120172068Y-66473158D01*
X120284010Y-66743411D01*
X120446525Y-66986632D01*
X120653368Y-67193475D01*
X120827760Y-67310000D01*
X120653368Y-67426525D01*
X120446525Y-67633368D01*
X120284010Y-67876589D01*
X120172068Y-68146842D01*
X120115000Y-68433740D01*
X120115000Y-68726260D01*
X120172068Y-69013158D01*
X120284010Y-69283411D01*
X120446525Y-69526632D01*
X120653368Y-69733475D01*
X120827760Y-69850000D01*
X120653368Y-69966525D01*
X120446525Y-70173368D01*
X120284010Y-70416589D01*
X120172068Y-70686842D01*
X120115000Y-70973740D01*
X120115000Y-71266260D01*
X120172068Y-71553158D01*
X120284010Y-71823411D01*
X120446525Y-72066632D01*
X120653368Y-72273475D01*
X120827760Y-72390000D01*
X120653368Y-72506525D01*
X120446525Y-72713368D01*
X120284010Y-72956589D01*
X120172068Y-73226842D01*
X120115000Y-73513740D01*
X120115000Y-73806260D01*
X120172068Y-74093158D01*
X120284010Y-74363411D01*
X120446525Y-74606632D01*
X120653368Y-74813475D01*
X120827760Y-74930000D01*
X120653368Y-75046525D01*
X120446525Y-75253368D01*
X120284010Y-75496589D01*
X120172068Y-75766842D01*
X120115000Y-76053740D01*
X120115000Y-76346260D01*
X120172068Y-76633158D01*
X120284010Y-76903411D01*
X120446525Y-77146632D01*
X120653368Y-77353475D01*
X120827760Y-77470000D01*
X120653368Y-77586525D01*
X120446525Y-77793368D01*
X120284010Y-78036589D01*
X120172068Y-78306842D01*
X120115000Y-78593740D01*
X120115000Y-78886260D01*
X120172068Y-79173158D01*
X120284010Y-79443411D01*
X120446525Y-79686632D01*
X120653368Y-79893475D01*
X120827760Y-80010000D01*
X120653368Y-80126525D01*
X120446525Y-80333368D01*
X120284010Y-80576589D01*
X120172068Y-80846842D01*
X120115000Y-81133740D01*
X120115000Y-81426260D01*
X120172068Y-81713158D01*
X120284010Y-81983411D01*
X120446525Y-82226632D01*
X120653368Y-82433475D01*
X120896589Y-82595990D01*
X121166842Y-82707932D01*
X121453740Y-82765000D01*
X121746260Y-82765000D01*
X122033158Y-82707932D01*
X122303411Y-82595990D01*
X122546632Y-82433475D01*
X122753475Y-82226632D01*
X122870000Y-82052240D01*
X122986525Y-82226632D01*
X123193368Y-82433475D01*
X123436589Y-82595990D01*
X123706842Y-82707932D01*
X123993740Y-82765000D01*
X124286260Y-82765000D01*
X124573158Y-82707932D01*
X124843411Y-82595990D01*
X125086632Y-82433475D01*
X125293475Y-82226632D01*
X125455990Y-81983411D01*
X125567932Y-81713158D01*
X125625000Y-81426260D01*
X125625000Y-81133740D01*
X125567932Y-80846842D01*
X125455990Y-80576589D01*
X125293475Y-80333368D01*
X125086632Y-80126525D01*
X124912240Y-80010000D01*
X125086632Y-79893475D01*
X125293475Y-79686632D01*
X125455990Y-79443411D01*
X125567932Y-79173158D01*
X125625000Y-78886260D01*
X125625000Y-78593740D01*
X125567932Y-78306842D01*
X125455990Y-78036589D01*
X125293475Y-77793368D01*
X125086632Y-77586525D01*
X124912240Y-77470000D01*
X125086632Y-77353475D01*
X125293475Y-77146632D01*
X125455990Y-76903411D01*
X125567932Y-76633158D01*
X125625000Y-76346260D01*
X125625000Y-76053740D01*
X125567932Y-75766842D01*
X125455990Y-75496589D01*
X125293475Y-75253368D01*
X125086632Y-75046525D01*
X124912240Y-74930000D01*
X125086632Y-74813475D01*
X125293475Y-74606632D01*
X125455990Y-74363411D01*
X125567932Y-74093158D01*
X125625000Y-73806260D01*
X125625000Y-73513740D01*
X125567932Y-73226842D01*
X125455990Y-72956589D01*
X125293475Y-72713368D01*
X125086632Y-72506525D01*
X124912240Y-72390000D01*
X125086632Y-72273475D01*
X125293475Y-72066632D01*
X125455990Y-71823411D01*
X125567932Y-71553158D01*
X125625000Y-71266260D01*
X125625000Y-70973740D01*
X125567932Y-70686842D01*
X125455990Y-70416589D01*
X125293475Y-70173368D01*
X125086632Y-69966525D01*
X124912240Y-69850000D01*
X125086632Y-69733475D01*
X125293475Y-69526632D01*
X125455990Y-69283411D01*
X125567932Y-69013158D01*
X125625000Y-68726260D01*
X125625000Y-68433740D01*
X125567932Y-68146842D01*
X125455990Y-67876589D01*
X125293475Y-67633368D01*
X125086632Y-67426525D01*
X124912240Y-67310000D01*
X125086632Y-67193475D01*
X125293475Y-66986632D01*
X125455990Y-66743411D01*
X125567932Y-66473158D01*
X125625000Y-66186260D01*
X125625000Y-65893740D01*
X125567932Y-65606842D01*
X125455990Y-65336589D01*
X125293475Y-65093368D01*
X125086632Y-64886525D01*
X124912240Y-64770000D01*
X125086632Y-64653475D01*
X125293475Y-64446632D01*
X125455990Y-64203411D01*
X125567932Y-63933158D01*
X125625000Y-63646260D01*
X125625000Y-63353740D01*
X125567932Y-63066842D01*
X125455990Y-62796589D01*
X125293475Y-62553368D01*
X125086632Y-62346525D01*
X124912240Y-62230000D01*
X125086632Y-62113475D01*
X125293475Y-61906632D01*
X125455990Y-61663411D01*
X125567932Y-61393158D01*
X125625000Y-61106260D01*
X125625000Y-60813740D01*
X125567932Y-60526842D01*
X125455990Y-60256589D01*
X125293475Y-60013368D01*
X125086632Y-59806525D01*
X124912240Y-59690000D01*
X125086632Y-59573475D01*
X125293475Y-59366632D01*
X125455990Y-59123411D01*
X125567932Y-58853158D01*
X125625000Y-58566260D01*
X125625000Y-58273740D01*
X125567932Y-57986842D01*
X125455990Y-57716589D01*
X125293475Y-57473368D01*
X125086632Y-57266525D01*
X124912240Y-57150000D01*
X125086632Y-57033475D01*
X125293475Y-56826632D01*
X125455990Y-56583411D01*
X125567932Y-56313158D01*
X125625000Y-56026260D01*
X125625000Y-55733740D01*
X125567932Y-55446842D01*
X125455990Y-55176589D01*
X125293475Y-54933368D01*
X125086632Y-54726525D01*
X124912240Y-54610000D01*
X125086632Y-54493475D01*
X125293475Y-54286632D01*
X125455990Y-54043411D01*
X125567932Y-53773158D01*
X125625000Y-53486260D01*
X125625000Y-53193740D01*
X125567932Y-52906842D01*
X125455990Y-52636589D01*
X125293475Y-52393368D01*
X125086632Y-52186525D01*
X124912240Y-52070000D01*
X125086632Y-51953475D01*
X125293475Y-51746632D01*
X125455990Y-51503411D01*
X125567932Y-51233158D01*
X125625000Y-50946260D01*
X125625000Y-50653740D01*
X125567932Y-50366842D01*
X125455990Y-50096589D01*
X125293475Y-49853368D01*
X125086632Y-49646525D01*
X124912240Y-49530000D01*
X125086632Y-49413475D01*
X125293475Y-49206632D01*
X125455990Y-48963411D01*
X125567932Y-48693158D01*
X125625000Y-48406260D01*
X125625000Y-48113740D01*
X125567932Y-47826842D01*
X125455990Y-47556589D01*
X125293475Y-47313368D01*
X125086632Y-47106525D01*
X124912240Y-46990000D01*
X125086632Y-46873475D01*
X125293475Y-46666632D01*
X125455990Y-46423411D01*
X125567932Y-46153158D01*
X125625000Y-45866260D01*
X125625000Y-45573740D01*
X125567932Y-45286842D01*
X125455990Y-45016589D01*
X125293475Y-44773368D01*
X125086632Y-44566525D01*
X124912240Y-44450000D01*
X125086632Y-44333475D01*
X125293475Y-44126632D01*
X125455990Y-43883411D01*
X125567932Y-43613158D01*
X125625000Y-43326260D01*
X125625000Y-43033740D01*
X125567932Y-42746842D01*
X125455990Y-42476589D01*
X125293475Y-42233368D01*
X125086632Y-42026525D01*
X124912240Y-41910000D01*
X125086632Y-41793475D01*
X125293475Y-41586632D01*
X125455990Y-41343411D01*
X125567932Y-41073158D01*
X125625000Y-40786260D01*
X125625000Y-40493740D01*
X125567932Y-40206842D01*
X125455990Y-39936589D01*
X125293475Y-39693368D01*
X125086632Y-39486525D01*
X124912240Y-39370000D01*
X125086632Y-39253475D01*
X125293475Y-39046632D01*
X125455990Y-38803411D01*
X125567932Y-38533158D01*
X125625000Y-38246260D01*
X125625000Y-37953740D01*
X125567932Y-37666842D01*
X125455990Y-37396589D01*
X125293475Y-37153368D01*
X125086632Y-36946525D01*
X124912240Y-36830000D01*
X125086632Y-36713475D01*
X125293475Y-36506632D01*
X125455990Y-36263411D01*
X125567932Y-35993158D01*
X125625000Y-35706260D01*
X125625000Y-35413740D01*
X125567932Y-35126842D01*
X125455990Y-34856589D01*
X125293475Y-34613368D01*
X125086632Y-34406525D01*
X124912240Y-34290000D01*
X125086632Y-34173475D01*
X125293475Y-33966632D01*
X125455990Y-33723411D01*
X125567932Y-33453158D01*
X125625000Y-33166260D01*
X125625000Y-32873740D01*
X125567932Y-32586842D01*
X125455990Y-32316589D01*
X125293475Y-32073368D01*
X125086632Y-31866525D01*
X124912240Y-31750000D01*
X125086632Y-31633475D01*
X125293475Y-31426632D01*
X125455990Y-31183411D01*
X125567932Y-30913158D01*
X125625000Y-30626260D01*
X125625000Y-30333740D01*
X125567932Y-30046842D01*
X125455990Y-29776589D01*
X125293475Y-29533368D01*
X125086632Y-29326525D01*
X124912240Y-29210000D01*
X125086632Y-29093475D01*
X125293475Y-28886632D01*
X125455990Y-28643411D01*
X125567932Y-28373158D01*
X125625000Y-28086260D01*
X125625000Y-27793740D01*
X125567932Y-27506842D01*
X125455990Y-27236589D01*
X125293475Y-26993368D01*
X125086632Y-26786525D01*
X124912240Y-26670000D01*
X125086632Y-26553475D01*
X125293475Y-26346632D01*
X125455990Y-26103411D01*
X125567932Y-25833158D01*
X125625000Y-25546260D01*
X125625000Y-25253740D01*
X125567932Y-24966842D01*
X125455990Y-24696589D01*
X125293475Y-24453368D01*
X125086632Y-24246525D01*
X124843411Y-24084010D01*
X124573158Y-23972068D01*
X124286260Y-23915000D01*
X123993740Y-23915000D01*
X123706842Y-23972068D01*
X123436589Y-24084010D01*
X123193368Y-24246525D01*
X123061513Y-24378380D01*
X123039502Y-24305820D01*
X122980537Y-24195506D01*
X122901185Y-24098815D01*
X122804494Y-24019463D01*
X122694180Y-23960498D01*
X122574482Y-23924188D01*
X122450000Y-23911928D01*
X120750000Y-23911928D01*
X120625518Y-23924188D01*
X120505820Y-23960498D01*
X120395506Y-24019463D01*
X120298815Y-24098815D01*
X120219463Y-24195506D01*
X120160498Y-24305820D01*
X120124188Y-24425518D01*
X120111928Y-24550000D01*
X103979118Y-24550000D01*
X104081103Y-24303786D01*
X104134301Y-24036343D01*
X104134301Y-23763659D01*
X104081103Y-23496216D01*
X103976752Y-23244289D01*
X103906400Y-23139000D01*
X125570723Y-23139000D01*
X125622197Y-23144047D01*
X125640662Y-23149622D01*
X125657694Y-23158678D01*
X125672643Y-23170870D01*
X125684938Y-23185732D01*
X125694111Y-23202696D01*
X125699817Y-23221129D01*
X125705000Y-23270446D01*
X125705001Y-85565712D01*
X125699953Y-85617195D01*
X125694377Y-85635663D01*
X125685322Y-85652693D01*
X125673129Y-85667643D01*
X125658266Y-85679939D01*
X125641303Y-85689111D01*
X125622871Y-85694817D01*
X125573554Y-85700000D01*
X97822279Y-85700000D01*
X97672131Y-85685278D01*
X97558754Y-85651047D01*
X97454182Y-85595445D01*
X97362405Y-85520594D01*
X97286909Y-85429335D01*
X97230581Y-85325160D01*
X97195560Y-85212024D01*
X97177145Y-85036813D01*
X97177253Y-85021318D01*
X97176354Y-85012147D01*
X97150446Y-84765644D01*
X97138414Y-84707028D01*
X97127208Y-84648284D01*
X97124544Y-84639462D01*
X97051249Y-84402686D01*
X97028074Y-84347555D01*
X97005661Y-84292080D01*
X97001334Y-84283944D01*
X96883446Y-84065914D01*
X96850012Y-84016346D01*
X96817240Y-83966265D01*
X96811416Y-83959124D01*
X96653423Y-83768144D01*
X96610988Y-83726005D01*
X96569125Y-83683255D01*
X96562024Y-83677381D01*
X96369946Y-83520727D01*
X96320169Y-83487655D01*
X96270763Y-83453826D01*
X96262657Y-83449444D01*
X96043809Y-83333081D01*
X95988532Y-83310298D01*
X95933525Y-83286721D01*
X95924722Y-83283997D01*
X95687441Y-83212357D01*
X95628754Y-83200736D01*
X95570248Y-83188300D01*
X95561085Y-83187337D01*
X95561083Y-83187337D01*
X95314405Y-83163150D01*
X95314402Y-83163150D01*
X95282419Y-83160000D01*
X94107000Y-83160000D01*
X94107000Y-80068668D01*
X94116745Y-80059125D01*
X94122618Y-80052024D01*
X94279273Y-79859947D01*
X94312374Y-79810125D01*
X94346173Y-79760763D01*
X94350556Y-79752657D01*
X94466919Y-79533809D01*
X94489707Y-79478521D01*
X94513279Y-79423525D01*
X94516003Y-79414722D01*
X94587643Y-79177441D01*
X94599264Y-79118754D01*
X94611700Y-79060248D01*
X94612663Y-79051083D01*
X94636850Y-78804405D01*
X94636850Y-78804402D01*
X94640000Y-78772419D01*
X94640000Y-68052740D01*
X94908000Y-68052740D01*
X94908000Y-68345260D01*
X94965068Y-68632158D01*
X95077010Y-68902411D01*
X95239525Y-69145632D01*
X95446368Y-69352475D01*
X95620760Y-69469000D01*
X95446368Y-69585525D01*
X95239525Y-69792368D01*
X95077010Y-70035589D01*
X94965068Y-70305842D01*
X94908000Y-70592740D01*
X94908000Y-70885260D01*
X94965068Y-71172158D01*
X95077010Y-71442411D01*
X95239525Y-71685632D01*
X95446368Y-71892475D01*
X95620760Y-72009000D01*
X95446368Y-72125525D01*
X95239525Y-72332368D01*
X95077010Y-72575589D01*
X94965068Y-72845842D01*
X94908000Y-73132740D01*
X94908000Y-73425260D01*
X94965068Y-73712158D01*
X95077010Y-73982411D01*
X95239525Y-74225632D01*
X95446368Y-74432475D01*
X95620760Y-74549000D01*
X95446368Y-74665525D01*
X95239525Y-74872368D01*
X95077010Y-75115589D01*
X94965068Y-75385842D01*
X94908000Y-75672740D01*
X94908000Y-75965260D01*
X94965068Y-76252158D01*
X95077010Y-76522411D01*
X95239525Y-76765632D01*
X95446368Y-76972475D01*
X95620760Y-77089000D01*
X95446368Y-77205525D01*
X95239525Y-77412368D01*
X95077010Y-77655589D01*
X94965068Y-77925842D01*
X94908000Y-78212740D01*
X94908000Y-78505260D01*
X94965068Y-78792158D01*
X95077010Y-79062411D01*
X95239525Y-79305632D01*
X95446368Y-79512475D01*
X95689589Y-79674990D01*
X95959842Y-79786932D01*
X96246740Y-79844000D01*
X96539260Y-79844000D01*
X96826158Y-79786932D01*
X97096411Y-79674990D01*
X97339632Y-79512475D01*
X97546475Y-79305632D01*
X97708990Y-79062411D01*
X97820932Y-78792158D01*
X97878000Y-78505260D01*
X97878000Y-78212740D01*
X97820932Y-77925842D01*
X97708990Y-77655589D01*
X97546475Y-77412368D01*
X97339632Y-77205525D01*
X97165240Y-77089000D01*
X97339632Y-76972475D01*
X97546475Y-76765632D01*
X97708990Y-76522411D01*
X97820932Y-76252158D01*
X97878000Y-75965260D01*
X97878000Y-75672740D01*
X97820932Y-75385842D01*
X97708990Y-75115589D01*
X97546475Y-74872368D01*
X97339632Y-74665525D01*
X97165240Y-74549000D01*
X97339632Y-74432475D01*
X97546475Y-74225632D01*
X97708990Y-73982411D01*
X97820932Y-73712158D01*
X97878000Y-73425260D01*
X97878000Y-73147452D01*
X100910149Y-73147452D01*
X100910149Y-73322570D01*
X100944313Y-73494323D01*
X100995763Y-73618533D01*
X100945164Y-73740688D01*
X100911000Y-73912441D01*
X100911000Y-74087559D01*
X100945164Y-74259312D01*
X101003439Y-74400000D01*
X100945164Y-74540688D01*
X100911000Y-74712441D01*
X100911000Y-74887559D01*
X100945164Y-75059312D01*
X101012179Y-75221099D01*
X101109469Y-75366704D01*
X101233296Y-75490531D01*
X101378901Y-75587821D01*
X101408303Y-75600000D01*
X101378901Y-75612179D01*
X101233296Y-75709469D01*
X101109469Y-75833296D01*
X101012179Y-75978901D01*
X100945164Y-76140688D01*
X100911000Y-76312441D01*
X100911000Y-76487559D01*
X100945164Y-76659312D01*
X101003439Y-76800000D01*
X100945164Y-76940688D01*
X100911000Y-77112441D01*
X100911000Y-77287559D01*
X100945164Y-77459312D01*
X101003439Y-77600000D01*
X100945164Y-77740688D01*
X100911000Y-77912441D01*
X100911000Y-78087559D01*
X100945164Y-78259312D01*
X101003439Y-78400000D01*
X100945164Y-78540688D01*
X100911000Y-78712441D01*
X100911000Y-78887559D01*
X100945164Y-79059312D01*
X101003439Y-79200000D01*
X100945164Y-79340688D01*
X100911000Y-79512441D01*
X100911000Y-79687559D01*
X100945164Y-79859312D01*
X101003439Y-80000000D01*
X100945164Y-80140688D01*
X100911000Y-80312441D01*
X100911000Y-80487559D01*
X100945164Y-80659312D01*
X101003439Y-80800000D01*
X100945164Y-80940688D01*
X100911000Y-81112441D01*
X100911000Y-81287559D01*
X100945164Y-81459312D01*
X101012179Y-81621099D01*
X101109469Y-81766704D01*
X101233296Y-81890531D01*
X101378901Y-81987821D01*
X101540688Y-82054836D01*
X101712441Y-82089000D01*
X101887559Y-82089000D01*
X102059312Y-82054836D01*
X102221099Y-81987821D01*
X102352632Y-81899933D01*
X111984000Y-81899933D01*
X111984000Y-82100067D01*
X112023044Y-82296356D01*
X112099632Y-82481256D01*
X112210821Y-82647662D01*
X112352338Y-82789179D01*
X112518744Y-82900368D01*
X112703644Y-82976956D01*
X112899933Y-83016000D01*
X113100067Y-83016000D01*
X113296356Y-82976956D01*
X113481256Y-82900368D01*
X113647662Y-82789179D01*
X113789179Y-82647662D01*
X113900368Y-82481256D01*
X113976956Y-82296356D01*
X114016000Y-82100067D01*
X114016000Y-81899933D01*
X113976956Y-81703644D01*
X113900368Y-81518744D01*
X113789179Y-81352338D01*
X113647662Y-81210821D01*
X113481256Y-81099632D01*
X113296356Y-81023044D01*
X113100067Y-80984000D01*
X112899933Y-80984000D01*
X112703644Y-81023044D01*
X112518744Y-81099632D01*
X112352338Y-81210821D01*
X112210821Y-81352338D01*
X112099632Y-81518744D01*
X112023044Y-81703644D01*
X111984000Y-81899933D01*
X102352632Y-81899933D01*
X102366704Y-81890531D01*
X102490531Y-81766704D01*
X102587821Y-81621099D01*
X102654836Y-81459312D01*
X102689000Y-81287559D01*
X102689000Y-81112441D01*
X102654836Y-80940688D01*
X102596561Y-80800000D01*
X102654836Y-80659312D01*
X102689000Y-80487559D01*
X102689000Y-80312441D01*
X102654836Y-80140688D01*
X102596561Y-80000000D01*
X102654836Y-79859312D01*
X102689000Y-79687559D01*
X102689000Y-79512441D01*
X102654836Y-79340688D01*
X102596561Y-79200000D01*
X102654836Y-79059312D01*
X102689000Y-78887559D01*
X102689000Y-78712441D01*
X102654836Y-78540688D01*
X102596561Y-78400000D01*
X102654836Y-78259312D01*
X102689000Y-78087559D01*
X102689000Y-77912441D01*
X102654836Y-77740688D01*
X102596561Y-77600000D01*
X102654836Y-77459312D01*
X102689000Y-77287559D01*
X102689000Y-77112441D01*
X102654836Y-76940688D01*
X102596561Y-76800000D01*
X102654836Y-76659312D01*
X102689000Y-76487559D01*
X102689000Y-76312441D01*
X102654836Y-76140688D01*
X102587821Y-75978901D01*
X102490531Y-75833296D01*
X102366704Y-75709469D01*
X102221099Y-75612179D01*
X102191697Y-75600000D01*
X102221099Y-75587821D01*
X102366704Y-75490531D01*
X102490531Y-75366704D01*
X102587821Y-75221099D01*
X102654836Y-75059312D01*
X102689000Y-74887559D01*
X102689000Y-74712441D01*
X102654836Y-74540688D01*
X102596561Y-74400000D01*
X102654836Y-74259312D01*
X102689000Y-74087559D01*
X102689000Y-73912441D01*
X102654836Y-73740688D01*
X102603386Y-73616478D01*
X102653985Y-73494323D01*
X102688149Y-73322570D01*
X102688149Y-73147452D01*
X102653985Y-72975699D01*
X102588884Y-72818533D01*
X102654836Y-72659312D01*
X102689000Y-72487559D01*
X102689000Y-72312441D01*
X102654836Y-72140688D01*
X102587821Y-71978901D01*
X102490531Y-71833296D01*
X102366704Y-71709469D01*
X102221099Y-71612179D01*
X102059312Y-71545164D01*
X101887559Y-71511000D01*
X101712441Y-71511000D01*
X101540688Y-71545164D01*
X101378901Y-71612179D01*
X101233296Y-71709469D01*
X101109469Y-71833296D01*
X101012179Y-71978901D01*
X100945164Y-72140688D01*
X100911000Y-72312441D01*
X100911000Y-72487559D01*
X100945164Y-72659312D01*
X101010265Y-72816478D01*
X100944313Y-72975699D01*
X100910149Y-73147452D01*
X97878000Y-73147452D01*
X97878000Y-73132740D01*
X97820932Y-72845842D01*
X97708990Y-72575589D01*
X97546475Y-72332368D01*
X97339632Y-72125525D01*
X97165240Y-72009000D01*
X97339632Y-71892475D01*
X97546475Y-71685632D01*
X97670555Y-71499933D01*
X111984000Y-71499933D01*
X111984000Y-71700067D01*
X112023044Y-71896356D01*
X112099632Y-72081256D01*
X112210821Y-72247662D01*
X112352338Y-72389179D01*
X112518744Y-72500368D01*
X112703644Y-72576956D01*
X112899933Y-72616000D01*
X113100067Y-72616000D01*
X113296356Y-72576956D01*
X113481256Y-72500368D01*
X113647662Y-72389179D01*
X113789179Y-72247662D01*
X113900368Y-72081256D01*
X113976956Y-71896356D01*
X114016000Y-71700067D01*
X114016000Y-71499933D01*
X113976956Y-71303644D01*
X113900368Y-71118744D01*
X113789179Y-70952338D01*
X113647662Y-70810821D01*
X113481256Y-70699632D01*
X113296356Y-70623044D01*
X113100067Y-70584000D01*
X112899933Y-70584000D01*
X112703644Y-70623044D01*
X112518744Y-70699632D01*
X112352338Y-70810821D01*
X112210821Y-70952338D01*
X112099632Y-71118744D01*
X112023044Y-71303644D01*
X111984000Y-71499933D01*
X97670555Y-71499933D01*
X97708990Y-71442411D01*
X97820932Y-71172158D01*
X97878000Y-70885260D01*
X97878000Y-70592740D01*
X97820932Y-70305842D01*
X97708990Y-70035589D01*
X97618348Y-69899933D01*
X102784000Y-69899933D01*
X102784000Y-70100067D01*
X102823044Y-70296356D01*
X102899632Y-70481256D01*
X103010821Y-70647662D01*
X103152338Y-70789179D01*
X103318744Y-70900368D01*
X103503644Y-70976956D01*
X103699933Y-71016000D01*
X103900067Y-71016000D01*
X104096356Y-70976956D01*
X104281256Y-70900368D01*
X104447662Y-70789179D01*
X104589179Y-70647662D01*
X104700368Y-70481256D01*
X104776956Y-70296356D01*
X104816000Y-70100067D01*
X104816000Y-69899933D01*
X104776956Y-69703644D01*
X104700368Y-69518744D01*
X104589179Y-69352338D01*
X104447662Y-69210821D01*
X104281256Y-69099632D01*
X104096356Y-69023044D01*
X103900067Y-68984000D01*
X103699933Y-68984000D01*
X103503644Y-69023044D01*
X103318744Y-69099632D01*
X103152338Y-69210821D01*
X103010821Y-69352338D01*
X102899632Y-69518744D01*
X102823044Y-69703644D01*
X102784000Y-69899933D01*
X97618348Y-69899933D01*
X97546475Y-69792368D01*
X97339632Y-69585525D01*
X97165240Y-69469000D01*
X97339632Y-69352475D01*
X97546475Y-69145632D01*
X97708990Y-68902411D01*
X97820932Y-68632158D01*
X97878000Y-68345260D01*
X97878000Y-68052740D01*
X97820932Y-67765842D01*
X97710790Y-67499933D01*
X111984000Y-67499933D01*
X111984000Y-67700067D01*
X112023044Y-67896356D01*
X112099632Y-68081256D01*
X112210821Y-68247662D01*
X112352338Y-68389179D01*
X112518744Y-68500368D01*
X112703644Y-68576956D01*
X112899933Y-68616000D01*
X113100067Y-68616000D01*
X113296356Y-68576956D01*
X113481256Y-68500368D01*
X113647662Y-68389179D01*
X113789179Y-68247662D01*
X113900368Y-68081256D01*
X113976956Y-67896356D01*
X114016000Y-67700067D01*
X114016000Y-67499933D01*
X113976956Y-67303644D01*
X113900368Y-67118744D01*
X113789179Y-66952338D01*
X113647662Y-66810821D01*
X113481256Y-66699632D01*
X113296356Y-66623044D01*
X113100067Y-66584000D01*
X112899933Y-66584000D01*
X112703644Y-66623044D01*
X112518744Y-66699632D01*
X112352338Y-66810821D01*
X112210821Y-66952338D01*
X112099632Y-67118744D01*
X112023044Y-67303644D01*
X111984000Y-67499933D01*
X97710790Y-67499933D01*
X97708990Y-67495589D01*
X97546475Y-67252368D01*
X97339632Y-67045525D01*
X97096411Y-66883010D01*
X96826158Y-66771068D01*
X96539260Y-66714000D01*
X96246740Y-66714000D01*
X95959842Y-66771068D01*
X95689589Y-66883010D01*
X95446368Y-67045525D01*
X95239525Y-67252368D01*
X95077010Y-67495589D01*
X94965068Y-67765842D01*
X94908000Y-68052740D01*
X94640000Y-68052740D01*
X94640000Y-65099933D01*
X102784000Y-65099933D01*
X102784000Y-65300067D01*
X102823044Y-65496356D01*
X102899632Y-65681256D01*
X103010821Y-65847662D01*
X103152338Y-65989179D01*
X103318744Y-66100368D01*
X103503644Y-66176956D01*
X103699933Y-66216000D01*
X103900067Y-66216000D01*
X104096356Y-66176956D01*
X104281256Y-66100368D01*
X104447662Y-65989179D01*
X104589179Y-65847662D01*
X104700368Y-65681256D01*
X104776956Y-65496356D01*
X104816000Y-65300067D01*
X104816000Y-65099933D01*
X104776956Y-64903644D01*
X104700368Y-64718744D01*
X104589179Y-64552338D01*
X104447662Y-64410821D01*
X104281256Y-64299632D01*
X104096356Y-64223044D01*
X103900067Y-64184000D01*
X103699933Y-64184000D01*
X103503644Y-64223044D01*
X103318744Y-64299632D01*
X103152338Y-64410821D01*
X103010821Y-64552338D01*
X102899632Y-64718744D01*
X102823044Y-64903644D01*
X102784000Y-65099933D01*
X94640000Y-65099933D01*
X94640000Y-61099933D01*
X111984000Y-61099933D01*
X111984000Y-61300067D01*
X112023044Y-61496356D01*
X112099632Y-61681256D01*
X112210821Y-61847662D01*
X112352338Y-61989179D01*
X112368533Y-62000000D01*
X112352338Y-62010821D01*
X112210821Y-62152338D01*
X112099632Y-62318744D01*
X112023044Y-62503644D01*
X111984000Y-62699933D01*
X111984000Y-62900067D01*
X112023044Y-63096356D01*
X112099632Y-63281256D01*
X112210821Y-63447662D01*
X112352338Y-63589179D01*
X112518744Y-63700368D01*
X112703644Y-63776956D01*
X112899933Y-63816000D01*
X113100067Y-63816000D01*
X113296356Y-63776956D01*
X113481256Y-63700368D01*
X113647662Y-63589179D01*
X113789179Y-63447662D01*
X113900368Y-63281256D01*
X113976956Y-63096356D01*
X114016000Y-62900067D01*
X114016000Y-62699933D01*
X113976956Y-62503644D01*
X113900368Y-62318744D01*
X113789179Y-62152338D01*
X113647662Y-62010821D01*
X113631467Y-62000000D01*
X113647662Y-61989179D01*
X113789179Y-61847662D01*
X113900368Y-61681256D01*
X113976956Y-61496356D01*
X114016000Y-61300067D01*
X114016000Y-61099933D01*
X113976956Y-60903644D01*
X113900368Y-60718744D01*
X113789179Y-60552338D01*
X113647662Y-60410821D01*
X113481256Y-60299632D01*
X113296356Y-60223044D01*
X113100067Y-60184000D01*
X112899933Y-60184000D01*
X112703644Y-60223044D01*
X112518744Y-60299632D01*
X112352338Y-60410821D01*
X112210821Y-60552338D01*
X112099632Y-60718744D01*
X112023044Y-60903644D01*
X111984000Y-61099933D01*
X94640000Y-61099933D01*
X94640000Y-58081578D01*
X101657184Y-58081578D01*
X101657184Y-58281712D01*
X101696228Y-58478001D01*
X101772816Y-58662901D01*
X101884005Y-58829307D01*
X102025522Y-58970824D01*
X102191928Y-59082013D01*
X102376828Y-59158601D01*
X102573117Y-59197645D01*
X102773251Y-59197645D01*
X102969540Y-59158601D01*
X103154440Y-59082013D01*
X103320846Y-58970824D01*
X103462363Y-58829307D01*
X103573552Y-58662901D01*
X103650140Y-58478001D01*
X103689184Y-58281712D01*
X103689184Y-58081578D01*
X103650140Y-57885289D01*
X103573552Y-57700389D01*
X103462363Y-57533983D01*
X103320846Y-57392466D01*
X103154440Y-57281277D01*
X102969540Y-57204689D01*
X102773251Y-57165645D01*
X102573117Y-57165645D01*
X102376828Y-57204689D01*
X102191928Y-57281277D01*
X102025522Y-57392466D01*
X101884005Y-57533983D01*
X101772816Y-57700389D01*
X101696228Y-57885289D01*
X101657184Y-58081578D01*
X94640000Y-58081578D01*
X94640000Y-56512441D01*
X98111000Y-56512441D01*
X98111000Y-56687559D01*
X98145164Y-56859312D01*
X98212179Y-57021099D01*
X98309469Y-57166704D01*
X98433296Y-57290531D01*
X98578901Y-57387821D01*
X98740688Y-57454836D01*
X98912441Y-57489000D01*
X99087559Y-57489000D01*
X99259312Y-57454836D01*
X99421099Y-57387821D01*
X99566704Y-57290531D01*
X99690531Y-57166704D01*
X99787821Y-57021099D01*
X99854836Y-56859312D01*
X99889000Y-56687559D01*
X99889000Y-56512441D01*
X99865075Y-56392160D01*
X99890531Y-56366704D01*
X99987821Y-56221099D01*
X100054836Y-56059312D01*
X100089000Y-55887559D01*
X100089000Y-55712441D01*
X100065075Y-55592160D01*
X100090531Y-55566704D01*
X100187821Y-55421099D01*
X100254836Y-55259312D01*
X100289000Y-55087559D01*
X100289000Y-54942451D01*
X100366704Y-54890531D01*
X100490531Y-54766704D01*
X100587821Y-54621099D01*
X100654836Y-54459312D01*
X100689000Y-54287559D01*
X100689000Y-54112441D01*
X100665075Y-53992160D01*
X100690531Y-53966704D01*
X100787821Y-53821099D01*
X100854836Y-53659312D01*
X100889000Y-53487559D01*
X100889000Y-53312441D01*
X100865075Y-53192160D01*
X100890531Y-53166704D01*
X100987821Y-53021099D01*
X101054836Y-52859312D01*
X101089000Y-52687559D01*
X101089000Y-52512441D01*
X101065075Y-52392160D01*
X101090531Y-52366704D01*
X101187821Y-52221099D01*
X101254836Y-52059312D01*
X101289000Y-51887559D01*
X101289000Y-51712441D01*
X101254836Y-51540688D01*
X101187821Y-51378901D01*
X101090531Y-51233296D01*
X100966704Y-51109469D01*
X100935828Y-51088838D01*
X101106767Y-51054836D01*
X101268554Y-50987821D01*
X101414159Y-50890531D01*
X101537986Y-50766704D01*
X101635276Y-50621099D01*
X101702291Y-50459312D01*
X101736455Y-50287559D01*
X101736455Y-50112441D01*
X101721486Y-50037185D01*
X101791967Y-49966704D01*
X101889257Y-49821099D01*
X101956272Y-49659312D01*
X101990436Y-49487559D01*
X101990436Y-49312441D01*
X101956272Y-49140688D01*
X101937766Y-49096011D01*
X101987821Y-49021099D01*
X102054836Y-48859312D01*
X102089000Y-48687559D01*
X102089000Y-48542451D01*
X102166704Y-48490531D01*
X102290531Y-48366704D01*
X102387821Y-48221099D01*
X102454836Y-48059312D01*
X102489000Y-47887559D01*
X102489000Y-47712441D01*
X102454836Y-47540688D01*
X102387821Y-47378901D01*
X102290531Y-47233296D01*
X102166704Y-47109469D01*
X102021099Y-47012179D01*
X101859312Y-46945164D01*
X101687559Y-46911000D01*
X101512441Y-46911000D01*
X101340688Y-46945164D01*
X101178901Y-47012179D01*
X101033296Y-47109469D01*
X100909469Y-47233296D01*
X100812179Y-47378901D01*
X100745164Y-47540688D01*
X100711000Y-47712441D01*
X100711000Y-47857549D01*
X100633296Y-47909469D01*
X100509469Y-48033296D01*
X100412179Y-48178901D01*
X100345164Y-48340688D01*
X100311000Y-48512441D01*
X100311000Y-48687559D01*
X100345164Y-48859312D01*
X100363670Y-48903989D01*
X100313615Y-48978901D01*
X100246600Y-49140688D01*
X100212436Y-49312441D01*
X100212436Y-49487559D01*
X100227405Y-49562815D01*
X100156924Y-49633296D01*
X100059634Y-49778901D01*
X99992619Y-49940688D01*
X99958455Y-50112441D01*
X99958455Y-50287559D01*
X99992619Y-50459312D01*
X100059634Y-50621099D01*
X100156924Y-50766704D01*
X100280751Y-50890531D01*
X100311627Y-50911162D01*
X100140688Y-50945164D01*
X99978901Y-51012179D01*
X99833296Y-51109469D01*
X99709469Y-51233296D01*
X99612179Y-51378901D01*
X99545164Y-51540688D01*
X99511000Y-51712441D01*
X99511000Y-51887559D01*
X99534925Y-52007840D01*
X99509469Y-52033296D01*
X99412179Y-52178901D01*
X99345164Y-52340688D01*
X99311000Y-52512441D01*
X99311000Y-52687559D01*
X99334925Y-52807840D01*
X99309469Y-52833296D01*
X99212179Y-52978901D01*
X99145164Y-53140688D01*
X99111000Y-53312441D01*
X99111000Y-53487559D01*
X99134925Y-53607840D01*
X99109469Y-53633296D01*
X99012179Y-53778901D01*
X98945164Y-53940688D01*
X98911000Y-54112441D01*
X98911000Y-54257549D01*
X98833296Y-54309469D01*
X98709469Y-54433296D01*
X98612179Y-54578901D01*
X98545164Y-54740688D01*
X98511000Y-54912441D01*
X98511000Y-55087559D01*
X98534925Y-55207840D01*
X98509469Y-55233296D01*
X98412179Y-55378901D01*
X98345164Y-55540688D01*
X98311000Y-55712441D01*
X98311000Y-55887559D01*
X98334925Y-56007840D01*
X98309469Y-56033296D01*
X98212179Y-56178901D01*
X98145164Y-56340688D01*
X98111000Y-56512441D01*
X94640000Y-56512441D01*
X94640000Y-53307581D01*
X94637198Y-53279135D01*
X94637253Y-53271318D01*
X94636354Y-53262147D01*
X94610446Y-53015644D01*
X94598414Y-52957028D01*
X94587208Y-52898284D01*
X94584544Y-52889462D01*
X94511249Y-52652686D01*
X94488074Y-52597555D01*
X94465661Y-52542080D01*
X94461334Y-52533944D01*
X94343446Y-52315914D01*
X94310012Y-52266346D01*
X94277240Y-52216265D01*
X94271416Y-52209124D01*
X94113423Y-52018144D01*
X94070988Y-51976005D01*
X94029125Y-51933255D01*
X94022024Y-51927381D01*
X93829946Y-51770727D01*
X93780169Y-51737655D01*
X93730763Y-51703826D01*
X93722657Y-51699444D01*
X93503809Y-51583081D01*
X93448532Y-51560298D01*
X93393525Y-51536721D01*
X93384722Y-51533997D01*
X93147441Y-51462357D01*
X93088754Y-51450736D01*
X93030248Y-51438300D01*
X93021085Y-51437337D01*
X93021083Y-51437337D01*
X92774405Y-51413150D01*
X92774402Y-51413150D01*
X92742419Y-51410000D01*
X83312000Y-51410000D01*
X83312000Y-49256740D01*
X85764000Y-49256740D01*
X85764000Y-49549260D01*
X85821068Y-49836158D01*
X85933010Y-50106411D01*
X86095525Y-50349632D01*
X86302368Y-50556475D01*
X86545589Y-50718990D01*
X86815842Y-50830932D01*
X87102740Y-50888000D01*
X87395260Y-50888000D01*
X87682158Y-50830932D01*
X87952411Y-50718990D01*
X88195632Y-50556475D01*
X88402475Y-50349632D01*
X88564990Y-50106411D01*
X88676932Y-49836158D01*
X88734000Y-49549260D01*
X88734000Y-49256740D01*
X88676932Y-48969842D01*
X88564990Y-48699589D01*
X88402475Y-48456368D01*
X88195632Y-48249525D01*
X87952411Y-48087010D01*
X87682158Y-47975068D01*
X87395260Y-47918000D01*
X87102740Y-47918000D01*
X86815842Y-47975068D01*
X86545589Y-48087010D01*
X86302368Y-48249525D01*
X86095525Y-48456368D01*
X85933010Y-48699589D01*
X85821068Y-48969842D01*
X85764000Y-49256740D01*
X83312000Y-49256740D01*
X83312000Y-47397933D01*
X95250000Y-47397933D01*
X95250000Y-47598067D01*
X95289044Y-47794356D01*
X95365632Y-47979256D01*
X95476821Y-48145662D01*
X95618338Y-48287179D01*
X95784744Y-48398368D01*
X95969644Y-48474956D01*
X96165933Y-48514000D01*
X96366067Y-48514000D01*
X96562356Y-48474956D01*
X96747256Y-48398368D01*
X96913662Y-48287179D01*
X97055179Y-48145662D01*
X97166368Y-47979256D01*
X97242956Y-47794356D01*
X97282000Y-47598067D01*
X97282000Y-47397933D01*
X97242956Y-47201644D01*
X97166368Y-47016744D01*
X97055179Y-46850338D01*
X96913662Y-46708821D01*
X96747256Y-46597632D01*
X96562356Y-46521044D01*
X96366067Y-46482000D01*
X96165933Y-46482000D01*
X95969644Y-46521044D01*
X95784744Y-46597632D01*
X95618338Y-46708821D01*
X95476821Y-46850338D01*
X95365632Y-47016744D01*
X95289044Y-47201644D01*
X95250000Y-47397933D01*
X83312000Y-47397933D01*
X83312000Y-45974000D01*
X89916000Y-45974000D01*
X89940776Y-45971560D01*
X89964601Y-45964333D01*
X89986557Y-45952597D01*
X90005803Y-45936803D01*
X90021597Y-45917557D01*
X90033333Y-45895601D01*
X90040560Y-45871776D01*
X90043000Y-45847000D01*
X90043000Y-42037000D01*
X90040560Y-42012224D01*
X90033333Y-41988399D01*
X90021597Y-41966443D01*
X90011577Y-41953370D01*
X88739820Y-40499933D01*
X102784000Y-40499933D01*
X102784000Y-40700067D01*
X102823044Y-40896356D01*
X102899632Y-41081256D01*
X102943829Y-41147401D01*
X102911000Y-41312441D01*
X102911000Y-41487559D01*
X102945164Y-41659312D01*
X103003439Y-41800000D01*
X102945164Y-41940688D01*
X102911000Y-42112441D01*
X102911000Y-42287559D01*
X102945164Y-42459312D01*
X103012179Y-42621099D01*
X103109469Y-42766704D01*
X103233296Y-42890531D01*
X103378901Y-42987821D01*
X103408303Y-43000000D01*
X103378901Y-43012179D01*
X103233296Y-43109469D01*
X103109469Y-43233296D01*
X103012179Y-43378901D01*
X102945164Y-43540688D01*
X102911000Y-43712441D01*
X102911000Y-43887559D01*
X102945164Y-44059312D01*
X103003439Y-44200000D01*
X102945164Y-44340688D01*
X102911000Y-44512441D01*
X102911000Y-44687559D01*
X102943244Y-44849660D01*
X102908541Y-44901597D01*
X102831953Y-45086497D01*
X102792909Y-45282786D01*
X102792909Y-45482920D01*
X102831953Y-45679209D01*
X102908541Y-45864109D01*
X102950730Y-45927250D01*
X102945164Y-45940688D01*
X102911000Y-46112441D01*
X102911000Y-46287559D01*
X102945164Y-46459312D01*
X103012179Y-46621099D01*
X103109469Y-46766704D01*
X103233296Y-46890531D01*
X103378901Y-46987821D01*
X103408303Y-47000000D01*
X103378901Y-47012179D01*
X103233296Y-47109469D01*
X103109469Y-47233296D01*
X103012179Y-47378901D01*
X102945164Y-47540688D01*
X102911000Y-47712441D01*
X102911000Y-47887559D01*
X102945164Y-48059312D01*
X103003439Y-48200000D01*
X102945164Y-48340688D01*
X102911000Y-48512441D01*
X102911000Y-48687559D01*
X102945164Y-48859312D01*
X103003439Y-49000000D01*
X102945164Y-49140688D01*
X102911000Y-49312441D01*
X102911000Y-49487559D01*
X102945164Y-49659312D01*
X103003439Y-49800000D01*
X102945164Y-49940688D01*
X102911000Y-50112441D01*
X102911000Y-50287559D01*
X102945164Y-50459312D01*
X103003439Y-50600000D01*
X102945164Y-50740688D01*
X102911000Y-50912441D01*
X102911000Y-51087559D01*
X102945164Y-51259312D01*
X103003439Y-51400000D01*
X102945164Y-51540688D01*
X102911000Y-51712441D01*
X102911000Y-51887559D01*
X102945164Y-52059312D01*
X103003439Y-52200000D01*
X102945164Y-52340688D01*
X102911000Y-52512441D01*
X102911000Y-52687559D01*
X102945164Y-52859312D01*
X103003439Y-53000000D01*
X102945164Y-53140688D01*
X102911000Y-53312441D01*
X102911000Y-53487559D01*
X102945164Y-53659312D01*
X103003439Y-53800000D01*
X102945164Y-53940688D01*
X102911000Y-54112441D01*
X102911000Y-54287559D01*
X102945164Y-54459312D01*
X103003439Y-54600000D01*
X102945164Y-54740688D01*
X102911000Y-54912441D01*
X102911000Y-55087559D01*
X102945164Y-55259312D01*
X103003439Y-55400000D01*
X102945164Y-55540688D01*
X102911000Y-55712441D01*
X102911000Y-55887559D01*
X102945164Y-56059312D01*
X103003439Y-56200000D01*
X102945164Y-56340688D01*
X102911000Y-56512441D01*
X102911000Y-56687559D01*
X102945164Y-56859312D01*
X103012179Y-57021099D01*
X103109469Y-57166704D01*
X103233296Y-57290531D01*
X103378901Y-57387821D01*
X103540688Y-57454836D01*
X103712441Y-57489000D01*
X103887559Y-57489000D01*
X104059312Y-57454836D01*
X104221099Y-57387821D01*
X104352632Y-57299933D01*
X111984000Y-57299933D01*
X111984000Y-57500067D01*
X112023044Y-57696356D01*
X112099632Y-57881256D01*
X112210821Y-58047662D01*
X112352338Y-58189179D01*
X112518744Y-58300368D01*
X112703644Y-58376956D01*
X112899933Y-58416000D01*
X113100067Y-58416000D01*
X113296356Y-58376956D01*
X113481256Y-58300368D01*
X113647662Y-58189179D01*
X113789179Y-58047662D01*
X113900368Y-57881256D01*
X113976956Y-57696356D01*
X114016000Y-57500067D01*
X114016000Y-57299933D01*
X113976956Y-57103644D01*
X113900368Y-56918744D01*
X113826666Y-56808441D01*
X114427000Y-56808441D01*
X114427000Y-56983559D01*
X114461164Y-57155312D01*
X114528179Y-57317099D01*
X114625469Y-57462704D01*
X114749296Y-57586531D01*
X114812047Y-57628460D01*
X114821885Y-57677920D01*
X114888900Y-57839707D01*
X114896361Y-57850873D01*
X114871512Y-57975796D01*
X114871512Y-58150914D01*
X114905676Y-58322667D01*
X114972691Y-58484454D01*
X115069981Y-58630059D01*
X115193808Y-58753886D01*
X115228851Y-58777301D01*
X115245164Y-58859312D01*
X115312179Y-59021099D01*
X115409469Y-59166704D01*
X115511831Y-59269066D01*
X115511831Y-59286729D01*
X115545995Y-59458482D01*
X115613010Y-59620269D01*
X115710300Y-59765874D01*
X115834127Y-59889701D01*
X115979732Y-59986991D01*
X116049257Y-60015789D01*
X116069242Y-60064037D01*
X116166532Y-60209642D01*
X116290359Y-60333469D01*
X116435964Y-60430759D01*
X116597751Y-60497774D01*
X116769504Y-60531938D01*
X116944622Y-60531938D01*
X117116375Y-60497774D01*
X117278162Y-60430759D01*
X117423767Y-60333469D01*
X117547594Y-60209642D01*
X117572703Y-60172064D01*
X117659312Y-60154836D01*
X117821099Y-60087821D01*
X117966704Y-59990531D01*
X118090531Y-59866704D01*
X118187821Y-59721099D01*
X118254836Y-59559312D01*
X118289000Y-59387559D01*
X118289000Y-59212441D01*
X118285253Y-59193603D01*
X118377189Y-59056011D01*
X118444204Y-58894224D01*
X118478368Y-58722471D01*
X118478368Y-58622238D01*
X118533902Y-58566704D01*
X118631192Y-58421099D01*
X118698207Y-58259312D01*
X118732371Y-58087559D01*
X118732371Y-57912441D01*
X118698207Y-57740688D01*
X118631192Y-57578901D01*
X118533902Y-57433296D01*
X118410075Y-57309469D01*
X118264470Y-57212179D01*
X118102683Y-57145164D01*
X117930930Y-57111000D01*
X117755812Y-57111000D01*
X117584059Y-57145164D01*
X117422272Y-57212179D01*
X117276667Y-57309469D01*
X117152840Y-57433296D01*
X117055550Y-57578901D01*
X116988535Y-57740688D01*
X116954371Y-57912441D01*
X116954371Y-58012674D01*
X116898837Y-58068208D01*
X116856348Y-58131798D01*
X116790531Y-58033296D01*
X116666704Y-57909469D01*
X116631661Y-57886054D01*
X116615348Y-57804043D01*
X116548333Y-57642256D01*
X116540872Y-57631090D01*
X116565721Y-57506167D01*
X116565721Y-57331049D01*
X116531557Y-57159296D01*
X116464542Y-56997509D01*
X116367252Y-56851904D01*
X116243425Y-56728077D01*
X116180674Y-56686148D01*
X116170836Y-56636688D01*
X116103821Y-56474901D01*
X116006531Y-56329296D01*
X115882704Y-56205469D01*
X115737099Y-56108179D01*
X115575312Y-56041164D01*
X115403559Y-56007000D01*
X115228441Y-56007000D01*
X115056688Y-56041164D01*
X114894901Y-56108179D01*
X114749296Y-56205469D01*
X114625469Y-56329296D01*
X114528179Y-56474901D01*
X114461164Y-56636688D01*
X114427000Y-56808441D01*
X113826666Y-56808441D01*
X113789179Y-56752338D01*
X113647662Y-56610821D01*
X113481256Y-56499632D01*
X113296356Y-56423044D01*
X113100067Y-56384000D01*
X112899933Y-56384000D01*
X112703644Y-56423044D01*
X112518744Y-56499632D01*
X112352338Y-56610821D01*
X112210821Y-56752338D01*
X112099632Y-56918744D01*
X112023044Y-57103644D01*
X111984000Y-57299933D01*
X104352632Y-57299933D01*
X104366704Y-57290531D01*
X104490531Y-57166704D01*
X104587821Y-57021099D01*
X104654836Y-56859312D01*
X104689000Y-56687559D01*
X104689000Y-56512441D01*
X104654836Y-56340688D01*
X104596561Y-56200000D01*
X104654836Y-56059312D01*
X104689000Y-55887559D01*
X104689000Y-55712441D01*
X104654836Y-55540688D01*
X104596561Y-55400000D01*
X104654836Y-55259312D01*
X104689000Y-55087559D01*
X104689000Y-54912441D01*
X104654836Y-54740688D01*
X104596561Y-54600000D01*
X104654836Y-54459312D01*
X104689000Y-54287559D01*
X104689000Y-54112441D01*
X104654836Y-53940688D01*
X104596561Y-53800000D01*
X104654836Y-53659312D01*
X104689000Y-53487559D01*
X104689000Y-53312441D01*
X104654836Y-53140688D01*
X104596561Y-53000000D01*
X104654836Y-52859312D01*
X104689000Y-52687559D01*
X104689000Y-52512441D01*
X104654836Y-52340688D01*
X104596561Y-52200000D01*
X104654836Y-52059312D01*
X104689000Y-51887559D01*
X104689000Y-51712441D01*
X104654836Y-51540688D01*
X104596561Y-51400000D01*
X104654836Y-51259312D01*
X104689000Y-51087559D01*
X104689000Y-50912441D01*
X104687011Y-50902441D01*
X115321000Y-50902441D01*
X115321000Y-51077559D01*
X115355164Y-51249312D01*
X115422179Y-51411099D01*
X115519469Y-51556704D01*
X115643296Y-51680531D01*
X115671078Y-51699094D01*
X115655510Y-51777357D01*
X115655510Y-51952475D01*
X115689674Y-52124228D01*
X115756689Y-52286015D01*
X115853979Y-52431620D01*
X115977806Y-52555447D01*
X115992495Y-52565262D01*
X115976185Y-52647256D01*
X115976185Y-52822374D01*
X116010349Y-52994127D01*
X116077364Y-53155914D01*
X116174654Y-53301519D01*
X116192346Y-53319211D01*
X116192346Y-53487559D01*
X116226510Y-53659312D01*
X116293525Y-53821099D01*
X116390815Y-53966704D01*
X116461325Y-54037214D01*
X116446361Y-54112441D01*
X116446361Y-54287559D01*
X116480525Y-54459312D01*
X116547540Y-54621099D01*
X116644830Y-54766704D01*
X116715345Y-54837219D01*
X116700382Y-54912441D01*
X116700382Y-55087559D01*
X116734546Y-55259312D01*
X116801561Y-55421099D01*
X116898851Y-55566704D01*
X116969340Y-55637193D01*
X116954372Y-55712441D01*
X116954372Y-55887559D01*
X116988536Y-56059312D01*
X117055551Y-56221099D01*
X117152841Y-56366704D01*
X117276668Y-56490531D01*
X117422273Y-56587821D01*
X117584060Y-56654836D01*
X117755813Y-56689000D01*
X117930931Y-56689000D01*
X118102684Y-56654836D01*
X118264471Y-56587821D01*
X118410076Y-56490531D01*
X118533903Y-56366704D01*
X118631193Y-56221099D01*
X118698208Y-56059312D01*
X118732372Y-55887559D01*
X118732372Y-55712441D01*
X118698208Y-55540688D01*
X118631193Y-55378901D01*
X118533903Y-55233296D01*
X118463414Y-55162807D01*
X118478382Y-55087559D01*
X118478382Y-54912441D01*
X118444218Y-54740688D01*
X118377203Y-54578901D01*
X118279913Y-54433296D01*
X118209398Y-54362781D01*
X118224361Y-54287559D01*
X118224361Y-54112441D01*
X118190197Y-53940688D01*
X118123182Y-53778901D01*
X118025892Y-53633296D01*
X117955382Y-53562786D01*
X117970346Y-53487559D01*
X117970346Y-53312441D01*
X117936182Y-53140688D01*
X117869167Y-52978901D01*
X117771877Y-52833296D01*
X117754185Y-52815604D01*
X117754185Y-52647256D01*
X117720021Y-52475503D01*
X117653006Y-52313716D01*
X117555716Y-52168111D01*
X117431889Y-52044284D01*
X117417200Y-52034469D01*
X117433510Y-51952475D01*
X117433510Y-51777357D01*
X117399346Y-51605604D01*
X117332331Y-51443817D01*
X117235041Y-51298212D01*
X117117829Y-51181000D01*
X117181559Y-51181000D01*
X117353312Y-51146836D01*
X117515099Y-51079821D01*
X117660704Y-50982531D01*
X117784531Y-50858704D01*
X117881821Y-50713099D01*
X117948836Y-50551312D01*
X117983000Y-50379559D01*
X117983000Y-50204441D01*
X117948836Y-50032688D01*
X117881821Y-49870901D01*
X117784531Y-49725296D01*
X117660704Y-49601469D01*
X117515099Y-49504179D01*
X117353312Y-49437164D01*
X117181559Y-49403000D01*
X117006441Y-49403000D01*
X116834688Y-49437164D01*
X116672901Y-49504179D01*
X116527296Y-49601469D01*
X116403469Y-49725296D01*
X116306179Y-49870901D01*
X116239164Y-50032688D01*
X116225576Y-50101000D01*
X116122441Y-50101000D01*
X115950688Y-50135164D01*
X115788901Y-50202179D01*
X115643296Y-50299469D01*
X115519469Y-50423296D01*
X115422179Y-50568901D01*
X115355164Y-50730688D01*
X115321000Y-50902441D01*
X104687011Y-50902441D01*
X104654836Y-50740688D01*
X104596561Y-50600000D01*
X104654836Y-50459312D01*
X104689000Y-50287559D01*
X104689000Y-50112441D01*
X104654836Y-49940688D01*
X104596561Y-49800000D01*
X104654836Y-49659312D01*
X104689000Y-49487559D01*
X104689000Y-49312441D01*
X104654836Y-49140688D01*
X104596561Y-49000000D01*
X104654836Y-48859312D01*
X104689000Y-48687559D01*
X104689000Y-48512441D01*
X104654836Y-48340688D01*
X104601715Y-48212441D01*
X116011000Y-48212441D01*
X116011000Y-48387559D01*
X116045164Y-48559312D01*
X116112179Y-48721099D01*
X116209469Y-48866704D01*
X116333296Y-48990531D01*
X116478901Y-49087821D01*
X116640688Y-49154836D01*
X116812441Y-49189000D01*
X116987559Y-49189000D01*
X117159312Y-49154836D01*
X117321099Y-49087821D01*
X117466704Y-48990531D01*
X117590531Y-48866704D01*
X117687821Y-48721099D01*
X117754836Y-48559312D01*
X117789000Y-48387559D01*
X117789000Y-48212441D01*
X117754836Y-48040688D01*
X117687821Y-47878901D01*
X117590531Y-47733296D01*
X117466704Y-47609469D01*
X117321099Y-47512179D01*
X117159312Y-47445164D01*
X116987559Y-47411000D01*
X116812441Y-47411000D01*
X116640688Y-47445164D01*
X116478901Y-47512179D01*
X116333296Y-47609469D01*
X116209469Y-47733296D01*
X116112179Y-47878901D01*
X116045164Y-48040688D01*
X116011000Y-48212441D01*
X104601715Y-48212441D01*
X104596561Y-48200000D01*
X104654836Y-48059312D01*
X104689000Y-47887559D01*
X104689000Y-47712441D01*
X104654836Y-47540688D01*
X104587821Y-47378901D01*
X104490531Y-47233296D01*
X104366704Y-47109469D01*
X104221099Y-47012179D01*
X104191697Y-47000000D01*
X104221099Y-46987821D01*
X104352632Y-46899933D01*
X111984000Y-46899933D01*
X111984000Y-47100067D01*
X112023044Y-47296356D01*
X112099632Y-47481256D01*
X112210821Y-47647662D01*
X112352338Y-47789179D01*
X112518744Y-47900368D01*
X112703644Y-47976956D01*
X112899933Y-48016000D01*
X113100067Y-48016000D01*
X113296356Y-47976956D01*
X113481256Y-47900368D01*
X113647662Y-47789179D01*
X113789179Y-47647662D01*
X113900368Y-47481256D01*
X113976956Y-47296356D01*
X114016000Y-47100067D01*
X114016000Y-46899933D01*
X113976956Y-46703644D01*
X113900368Y-46518744D01*
X113789179Y-46352338D01*
X113647662Y-46210821D01*
X113481256Y-46099632D01*
X113296356Y-46023044D01*
X113100067Y-45984000D01*
X112899933Y-45984000D01*
X112703644Y-46023044D01*
X112518744Y-46099632D01*
X112352338Y-46210821D01*
X112210821Y-46352338D01*
X112099632Y-46518744D01*
X112023044Y-46703644D01*
X111984000Y-46899933D01*
X104352632Y-46899933D01*
X104366704Y-46890531D01*
X104490531Y-46766704D01*
X104587821Y-46621099D01*
X104654836Y-46459312D01*
X104689000Y-46287559D01*
X104689000Y-46112441D01*
X104655587Y-45944462D01*
X104709277Y-45864109D01*
X104785865Y-45679209D01*
X104824909Y-45482920D01*
X104824909Y-45282786D01*
X104785865Y-45086497D01*
X104709277Y-44901597D01*
X104660843Y-44829111D01*
X104689000Y-44687559D01*
X104689000Y-44512441D01*
X104654836Y-44340688D01*
X104596561Y-44200000D01*
X104654836Y-44059312D01*
X104689000Y-43887559D01*
X104689000Y-43712441D01*
X104654836Y-43540688D01*
X104587821Y-43378901D01*
X104490531Y-43233296D01*
X104366704Y-43109469D01*
X104221099Y-43012179D01*
X104191697Y-43000000D01*
X104221099Y-42987821D01*
X104352632Y-42899933D01*
X111984000Y-42899933D01*
X111984000Y-43100067D01*
X112023044Y-43296356D01*
X112099632Y-43481256D01*
X112210821Y-43647662D01*
X112352338Y-43789179D01*
X112518744Y-43900368D01*
X112703644Y-43976956D01*
X112899933Y-44016000D01*
X113100067Y-44016000D01*
X113296356Y-43976956D01*
X113481256Y-43900368D01*
X113647662Y-43789179D01*
X113789179Y-43647662D01*
X113900368Y-43481256D01*
X113976956Y-43296356D01*
X114016000Y-43100067D01*
X114016000Y-42899933D01*
X113976956Y-42703644D01*
X113900368Y-42518744D01*
X113789179Y-42352338D01*
X113647662Y-42210821D01*
X113481256Y-42099632D01*
X113296356Y-42023044D01*
X113100067Y-41984000D01*
X112899933Y-41984000D01*
X112703644Y-42023044D01*
X112518744Y-42099632D01*
X112352338Y-42210821D01*
X112210821Y-42352338D01*
X112099632Y-42518744D01*
X112023044Y-42703644D01*
X111984000Y-42899933D01*
X104352632Y-42899933D01*
X104366704Y-42890531D01*
X104490531Y-42766704D01*
X104587821Y-42621099D01*
X104654836Y-42459312D01*
X104689000Y-42287559D01*
X104689000Y-42112441D01*
X104654836Y-41940688D01*
X104596561Y-41800000D01*
X104654836Y-41659312D01*
X104689000Y-41487559D01*
X104689000Y-41312441D01*
X104656171Y-41147401D01*
X104700368Y-41081256D01*
X104776956Y-40896356D01*
X104816000Y-40700067D01*
X104816000Y-40499933D01*
X104776956Y-40303644D01*
X104700368Y-40118744D01*
X104656171Y-40052599D01*
X104689000Y-39887559D01*
X104689000Y-39712441D01*
X104654836Y-39540688D01*
X104596561Y-39400000D01*
X104654836Y-39259312D01*
X104689000Y-39087559D01*
X104689000Y-38912441D01*
X104654836Y-38740688D01*
X104587821Y-38578901D01*
X104490531Y-38433296D01*
X104366704Y-38309469D01*
X104221099Y-38212179D01*
X104191697Y-38200000D01*
X104221099Y-38187821D01*
X104366704Y-38090531D01*
X104490531Y-37966704D01*
X104587821Y-37821099D01*
X104654836Y-37659312D01*
X104689000Y-37487559D01*
X104689000Y-37312441D01*
X104654836Y-37140688D01*
X104587821Y-36978901D01*
X104490531Y-36833296D01*
X104366704Y-36709469D01*
X104221099Y-36612179D01*
X104059312Y-36545164D01*
X103887559Y-36511000D01*
X103712441Y-36511000D01*
X103540688Y-36545164D01*
X103378901Y-36612179D01*
X103233296Y-36709469D01*
X103109469Y-36833296D01*
X103012179Y-36978901D01*
X102945164Y-37140688D01*
X102911000Y-37312441D01*
X102911000Y-37487559D01*
X102945164Y-37659312D01*
X103012179Y-37821099D01*
X103109469Y-37966704D01*
X103233296Y-38090531D01*
X103378901Y-38187821D01*
X103408303Y-38200000D01*
X103378901Y-38212179D01*
X103233296Y-38309469D01*
X103109469Y-38433296D01*
X103012179Y-38578901D01*
X102945164Y-38740688D01*
X102911000Y-38912441D01*
X102911000Y-39087559D01*
X102945164Y-39259312D01*
X103003439Y-39400000D01*
X102945164Y-39540688D01*
X102911000Y-39712441D01*
X102911000Y-39887559D01*
X102943829Y-40052599D01*
X102899632Y-40118744D01*
X102823044Y-40303644D01*
X102784000Y-40499933D01*
X88739820Y-40499933D01*
X85239820Y-36499933D01*
X111984000Y-36499933D01*
X111984000Y-36700067D01*
X112023044Y-36896356D01*
X112099632Y-37081256D01*
X112210821Y-37247662D01*
X112352338Y-37389179D01*
X112368533Y-37400000D01*
X112352338Y-37410821D01*
X112210821Y-37552338D01*
X112099632Y-37718744D01*
X112023044Y-37903644D01*
X111984000Y-38099933D01*
X111984000Y-38300067D01*
X112023044Y-38496356D01*
X112099632Y-38681256D01*
X112210821Y-38847662D01*
X112352338Y-38989179D01*
X112518744Y-39100368D01*
X112703644Y-39176956D01*
X112899933Y-39216000D01*
X113100067Y-39216000D01*
X113296356Y-39176956D01*
X113481256Y-39100368D01*
X113647662Y-38989179D01*
X113789179Y-38847662D01*
X113900368Y-38681256D01*
X113976956Y-38496356D01*
X114016000Y-38300067D01*
X114016000Y-38099933D01*
X113976956Y-37903644D01*
X113900368Y-37718744D01*
X113789179Y-37552338D01*
X113647662Y-37410821D01*
X113631467Y-37400000D01*
X113647662Y-37389179D01*
X113789179Y-37247662D01*
X113900368Y-37081256D01*
X113976956Y-36896356D01*
X114016000Y-36700067D01*
X114016000Y-36499933D01*
X113976956Y-36303644D01*
X113900368Y-36118744D01*
X113789179Y-35952338D01*
X113647662Y-35810821D01*
X113481256Y-35699632D01*
X113296356Y-35623044D01*
X113100067Y-35584000D01*
X112899933Y-35584000D01*
X112703644Y-35623044D01*
X112518744Y-35699632D01*
X112352338Y-35810821D01*
X112210821Y-35952338D01*
X112099632Y-36118744D01*
X112023044Y-36303644D01*
X111984000Y-36499933D01*
X85239820Y-36499933D01*
X84677577Y-35857370D01*
X84659425Y-35840331D01*
X84638298Y-35827160D01*
X84615007Y-35818364D01*
X84582000Y-35814000D01*
X72771000Y-35814000D01*
X72771000Y-33059000D01*
X73314928Y-33059000D01*
X73314928Y-34759000D01*
X73327188Y-34883482D01*
X73363498Y-35003180D01*
X73422463Y-35113494D01*
X73501815Y-35210185D01*
X73598506Y-35289537D01*
X73708820Y-35348502D01*
X73828518Y-35384812D01*
X73953000Y-35397072D01*
X75653000Y-35397072D01*
X75777482Y-35384812D01*
X75897180Y-35348502D01*
X76007494Y-35289537D01*
X76104185Y-35210185D01*
X76183537Y-35113494D01*
X76242502Y-35003180D01*
X76264513Y-34930620D01*
X76396368Y-35062475D01*
X76639589Y-35224990D01*
X76909842Y-35336932D01*
X77196740Y-35394000D01*
X77489260Y-35394000D01*
X77776158Y-35336932D01*
X78046411Y-35224990D01*
X78289632Y-35062475D01*
X78496475Y-34855632D01*
X78613000Y-34681240D01*
X78729525Y-34855632D01*
X78936368Y-35062475D01*
X79179589Y-35224990D01*
X79449842Y-35336932D01*
X79736740Y-35394000D01*
X80029260Y-35394000D01*
X80316158Y-35336932D01*
X80586411Y-35224990D01*
X80829632Y-35062475D01*
X81036475Y-34855632D01*
X81153000Y-34681240D01*
X81269525Y-34855632D01*
X81476368Y-35062475D01*
X81719589Y-35224990D01*
X81989842Y-35336932D01*
X82276740Y-35394000D01*
X82569260Y-35394000D01*
X82856158Y-35336932D01*
X83126411Y-35224990D01*
X83369632Y-35062475D01*
X83576475Y-34855632D01*
X83693000Y-34681240D01*
X83809525Y-34855632D01*
X84016368Y-35062475D01*
X84259589Y-35224990D01*
X84529842Y-35336932D01*
X84816740Y-35394000D01*
X85109260Y-35394000D01*
X85396158Y-35336932D01*
X85666411Y-35224990D01*
X85909632Y-35062475D01*
X86116475Y-34855632D01*
X86278990Y-34612411D01*
X86390932Y-34342158D01*
X86448000Y-34055260D01*
X86448000Y-33762740D01*
X86390932Y-33475842D01*
X86278990Y-33205589D01*
X86116475Y-32962368D01*
X85909632Y-32755525D01*
X85833782Y-32704843D01*
X109982000Y-32704843D01*
X109982000Y-32904977D01*
X110021044Y-33101266D01*
X110097632Y-33286166D01*
X110208821Y-33452572D01*
X110350338Y-33594089D01*
X110516744Y-33705278D01*
X110701644Y-33781866D01*
X110897933Y-33820910D01*
X111098067Y-33820910D01*
X111294356Y-33781866D01*
X111479256Y-33705278D01*
X111645662Y-33594089D01*
X111787179Y-33452572D01*
X111898368Y-33286166D01*
X111974956Y-33101266D01*
X112014000Y-32904977D01*
X112014000Y-32704843D01*
X111974956Y-32508554D01*
X111898368Y-32323654D01*
X111787179Y-32157248D01*
X111645662Y-32015731D01*
X111479256Y-31904542D01*
X111294356Y-31827954D01*
X111098067Y-31788910D01*
X110897933Y-31788910D01*
X110701644Y-31827954D01*
X110516744Y-31904542D01*
X110350338Y-32015731D01*
X110208821Y-32157248D01*
X110097632Y-32323654D01*
X110021044Y-32508554D01*
X109982000Y-32704843D01*
X85833782Y-32704843D01*
X85735240Y-32639000D01*
X85909632Y-32522475D01*
X86116475Y-32315632D01*
X86278990Y-32072411D01*
X86390932Y-31802158D01*
X86448000Y-31515260D01*
X86448000Y-31222740D01*
X86390932Y-30935842D01*
X86278990Y-30665589D01*
X86116475Y-30422368D01*
X85909632Y-30215525D01*
X85666411Y-30053010D01*
X85396158Y-29941068D01*
X85109260Y-29884000D01*
X84816740Y-29884000D01*
X84529842Y-29941068D01*
X84259589Y-30053010D01*
X84016368Y-30215525D01*
X83809525Y-30422368D01*
X83693000Y-30596760D01*
X83576475Y-30422368D01*
X83369632Y-30215525D01*
X83126411Y-30053010D01*
X82856158Y-29941068D01*
X82569260Y-29884000D01*
X82276740Y-29884000D01*
X81989842Y-29941068D01*
X81719589Y-30053010D01*
X81476368Y-30215525D01*
X81269525Y-30422368D01*
X81153000Y-30596760D01*
X81036475Y-30422368D01*
X80829632Y-30215525D01*
X80586411Y-30053010D01*
X80316158Y-29941068D01*
X80029260Y-29884000D01*
X79736740Y-29884000D01*
X79449842Y-29941068D01*
X79179589Y-30053010D01*
X78936368Y-30215525D01*
X78729525Y-30422368D01*
X78613000Y-30596760D01*
X78496475Y-30422368D01*
X78289632Y-30215525D01*
X78046411Y-30053010D01*
X77776158Y-29941068D01*
X77489260Y-29884000D01*
X77196740Y-29884000D01*
X76909842Y-29941068D01*
X76639589Y-30053010D01*
X76396368Y-30215525D01*
X76189525Y-30422368D01*
X76073000Y-30596760D01*
X75956475Y-30422368D01*
X75749632Y-30215525D01*
X75506411Y-30053010D01*
X75236158Y-29941068D01*
X74949260Y-29884000D01*
X74656740Y-29884000D01*
X74369842Y-29941068D01*
X74099589Y-30053010D01*
X73856368Y-30215525D01*
X73649525Y-30422368D01*
X73487010Y-30665589D01*
X73375068Y-30935842D01*
X73318000Y-31222740D01*
X73318000Y-31515260D01*
X73375068Y-31802158D01*
X73487010Y-32072411D01*
X73649525Y-32315632D01*
X73781380Y-32447487D01*
X73708820Y-32469498D01*
X73598506Y-32528463D01*
X73501815Y-32607815D01*
X73422463Y-32704506D01*
X73363498Y-32814820D01*
X73327188Y-32934518D01*
X73314928Y-33059000D01*
X72771000Y-33059000D01*
X72771000Y-29114876D01*
X90920400Y-29114876D01*
X90920400Y-29485124D01*
X90992632Y-29848259D01*
X91134320Y-30190325D01*
X91340019Y-30498175D01*
X91601825Y-30759981D01*
X91909675Y-30965680D01*
X92251741Y-31107368D01*
X92614876Y-31179600D01*
X92985124Y-31179600D01*
X93348259Y-31107368D01*
X93690325Y-30965680D01*
X93998175Y-30759981D01*
X94259981Y-30498175D01*
X94465680Y-30190325D01*
X94507784Y-30088676D01*
X97620400Y-30088676D01*
X97620400Y-30311326D01*
X97663837Y-30529697D01*
X97749041Y-30735399D01*
X97872739Y-30920525D01*
X98030176Y-31077962D01*
X98215302Y-31201660D01*
X98421004Y-31286864D01*
X98639375Y-31330301D01*
X98862025Y-31330301D01*
X99080396Y-31286864D01*
X99286098Y-31201660D01*
X99471224Y-31077962D01*
X99500000Y-31049186D01*
X99528776Y-31077962D01*
X99713902Y-31201660D01*
X99919604Y-31286864D01*
X100137975Y-31330301D01*
X100360625Y-31330301D01*
X100578996Y-31286864D01*
X100784698Y-31201660D01*
X100969824Y-31077962D01*
X101127261Y-30920525D01*
X101250959Y-30735399D01*
X101336163Y-30529697D01*
X101379600Y-30311326D01*
X101379600Y-30088676D01*
X101336163Y-29870305D01*
X101250959Y-29664603D01*
X101127261Y-29479477D01*
X100969824Y-29322040D01*
X100784698Y-29198342D01*
X100583192Y-29114876D01*
X104320400Y-29114876D01*
X104320400Y-29485124D01*
X104392632Y-29848259D01*
X104534320Y-30190325D01*
X104740019Y-30498175D01*
X105001825Y-30759981D01*
X105309675Y-30965680D01*
X105651741Y-31107368D01*
X106014876Y-31179600D01*
X106385124Y-31179600D01*
X106748259Y-31107368D01*
X107090325Y-30965680D01*
X107398175Y-30759981D01*
X107659981Y-30498175D01*
X107865680Y-30190325D01*
X108007368Y-29848259D01*
X108079600Y-29485124D01*
X108079600Y-29114876D01*
X108007368Y-28751741D01*
X107865680Y-28409675D01*
X107659981Y-28101825D01*
X107398175Y-27840019D01*
X107090325Y-27634320D01*
X106748259Y-27492632D01*
X106385124Y-27420400D01*
X106014876Y-27420400D01*
X105651741Y-27492632D01*
X105309675Y-27634320D01*
X105001825Y-27840019D01*
X104740019Y-28101825D01*
X104534320Y-28409675D01*
X104392632Y-28751741D01*
X104320400Y-29114876D01*
X100583192Y-29114876D01*
X100578996Y-29113138D01*
X100360625Y-29069701D01*
X100137975Y-29069701D01*
X99919604Y-29113138D01*
X99713902Y-29198342D01*
X99528776Y-29322040D01*
X99500000Y-29350816D01*
X99471224Y-29322040D01*
X99286098Y-29198342D01*
X99080396Y-29113138D01*
X98862025Y-29069701D01*
X98639375Y-29069701D01*
X98421004Y-29113138D01*
X98215302Y-29198342D01*
X98030176Y-29322040D01*
X97872739Y-29479477D01*
X97749041Y-29664603D01*
X97663837Y-29870305D01*
X97620400Y-30088676D01*
X94507784Y-30088676D01*
X94607368Y-29848259D01*
X94679600Y-29485124D01*
X94679600Y-29114876D01*
X94607368Y-28751741D01*
X94465680Y-28409675D01*
X94259981Y-28101825D01*
X93998175Y-27840019D01*
X93690325Y-27634320D01*
X93348259Y-27492632D01*
X92985124Y-27420400D01*
X92614876Y-27420400D01*
X92251741Y-27492632D01*
X91909675Y-27634320D01*
X91601825Y-27840019D01*
X91340019Y-28101825D01*
X91134320Y-28409675D01*
X90992632Y-28751741D01*
X90920400Y-29114876D01*
X72771000Y-29114876D01*
X72771000Y-23139000D01*
X95093603Y-23139000D01*
X95023251Y-23244289D01*
%TD*%
M02*
