%TF.GenerationSoftware,KiCad,Pcbnew,5.1.6-c6e7f7d~86~ubuntu18.04.1*%
%TF.CreationDate,2021-07-04T16:44:21-07:00*%
%TF.ProjectId,arrow_deca_retro_cape,6172726f-775f-4646-9563-615f72657472,rev?*%
%TF.SameCoordinates,Original*%
%TF.FileFunction,Legend,Bot*%
%TF.FilePolarity,Positive*%
%FSLAX46Y46*%
G04 Gerber Fmt 4.6, Leading zero omitted, Abs format (unit mm)*
G04 Created by KiCad (PCBNEW 5.1.6-c6e7f7d~86~ubuntu18.04.1) date 2021-07-04 16:44:21*
%MOMM*%
%LPD*%
G01*
G04 APERTURE LIST*
%ADD10C,0.150000*%
G04 APERTURE END LIST*
D10*
X101122666Y-39156666D02*
X100646476Y-39156666D01*
X101217904Y-39442380D02*
X100884571Y-38442380D01*
X100551238Y-39442380D01*
X100217904Y-39442380D02*
X100217904Y-38775714D01*
X100217904Y-38966190D02*
X100170285Y-38870952D01*
X100122666Y-38823333D01*
X100027428Y-38775714D01*
X99932190Y-38775714D01*
X99598857Y-39442380D02*
X99598857Y-38775714D01*
X99598857Y-38966190D02*
X99551238Y-38870952D01*
X99503619Y-38823333D01*
X99408380Y-38775714D01*
X99313142Y-38775714D01*
X98836952Y-39442380D02*
X98932190Y-39394761D01*
X98979809Y-39347142D01*
X99027428Y-39251904D01*
X99027428Y-38966190D01*
X98979809Y-38870952D01*
X98932190Y-38823333D01*
X98836952Y-38775714D01*
X98694095Y-38775714D01*
X98598857Y-38823333D01*
X98551238Y-38870952D01*
X98503619Y-38966190D01*
X98503619Y-39251904D01*
X98551238Y-39347142D01*
X98598857Y-39394761D01*
X98694095Y-39442380D01*
X98836952Y-39442380D01*
X98170285Y-38775714D02*
X97979809Y-39442380D01*
X97789333Y-38966190D01*
X97598857Y-39442380D01*
X97408380Y-38775714D01*
X96265523Y-39442380D02*
X96265523Y-38442380D01*
X96027428Y-38442380D01*
X95884571Y-38490000D01*
X95789333Y-38585238D01*
X95741714Y-38680476D01*
X95694095Y-38870952D01*
X95694095Y-39013809D01*
X95741714Y-39204285D01*
X95789333Y-39299523D01*
X95884571Y-39394761D01*
X96027428Y-39442380D01*
X96265523Y-39442380D01*
X95265523Y-38918571D02*
X94932190Y-38918571D01*
X94789333Y-39442380D02*
X95265523Y-39442380D01*
X95265523Y-38442380D01*
X94789333Y-38442380D01*
X93789333Y-39347142D02*
X93836952Y-39394761D01*
X93979809Y-39442380D01*
X94075047Y-39442380D01*
X94217904Y-39394761D01*
X94313142Y-39299523D01*
X94360761Y-39204285D01*
X94408380Y-39013809D01*
X94408380Y-38870952D01*
X94360761Y-38680476D01*
X94313142Y-38585238D01*
X94217904Y-38490000D01*
X94075047Y-38442380D01*
X93979809Y-38442380D01*
X93836952Y-38490000D01*
X93789333Y-38537619D01*
X93408380Y-39156666D02*
X92932190Y-39156666D01*
X93503619Y-39442380D02*
X93170285Y-38442380D01*
X92836952Y-39442380D01*
X91170285Y-39442380D02*
X91503619Y-38966190D01*
X91741714Y-39442380D02*
X91741714Y-38442380D01*
X91360761Y-38442380D01*
X91265523Y-38490000D01*
X91217904Y-38537619D01*
X91170285Y-38632857D01*
X91170285Y-38775714D01*
X91217904Y-38870952D01*
X91265523Y-38918571D01*
X91360761Y-38966190D01*
X91741714Y-38966190D01*
X90360761Y-39394761D02*
X90456000Y-39442380D01*
X90646476Y-39442380D01*
X90741714Y-39394761D01*
X90789333Y-39299523D01*
X90789333Y-38918571D01*
X90741714Y-38823333D01*
X90646476Y-38775714D01*
X90456000Y-38775714D01*
X90360761Y-38823333D01*
X90313142Y-38918571D01*
X90313142Y-39013809D01*
X90789333Y-39109047D01*
X90027428Y-38775714D02*
X89646476Y-38775714D01*
X89884571Y-38442380D02*
X89884571Y-39299523D01*
X89836952Y-39394761D01*
X89741714Y-39442380D01*
X89646476Y-39442380D01*
X89313142Y-39442380D02*
X89313142Y-38775714D01*
X89313142Y-38966190D02*
X89265523Y-38870952D01*
X89217904Y-38823333D01*
X89122666Y-38775714D01*
X89027428Y-38775714D01*
X88551238Y-39442380D02*
X88646476Y-39394761D01*
X88694095Y-39347142D01*
X88741714Y-39251904D01*
X88741714Y-38966190D01*
X88694095Y-38870952D01*
X88646476Y-38823333D01*
X88551238Y-38775714D01*
X88408380Y-38775714D01*
X88313142Y-38823333D01*
X88265523Y-38870952D01*
X88217904Y-38966190D01*
X88217904Y-39251904D01*
X88265523Y-39347142D01*
X88313142Y-39394761D01*
X88408380Y-39442380D01*
X88551238Y-39442380D01*
X86456000Y-39347142D02*
X86503619Y-39394761D01*
X86646476Y-39442380D01*
X86741714Y-39442380D01*
X86884571Y-39394761D01*
X86979809Y-39299523D01*
X87027428Y-39204285D01*
X87075047Y-39013809D01*
X87075047Y-38870952D01*
X87027428Y-38680476D01*
X86979809Y-38585238D01*
X86884571Y-38490000D01*
X86741714Y-38442380D01*
X86646476Y-38442380D01*
X86503619Y-38490000D01*
X86456000Y-38537619D01*
X85598857Y-39442380D02*
X85598857Y-38918571D01*
X85646476Y-38823333D01*
X85741714Y-38775714D01*
X85932190Y-38775714D01*
X86027428Y-38823333D01*
X85598857Y-39394761D02*
X85694095Y-39442380D01*
X85932190Y-39442380D01*
X86027428Y-39394761D01*
X86075047Y-39299523D01*
X86075047Y-39204285D01*
X86027428Y-39109047D01*
X85932190Y-39061428D01*
X85694095Y-39061428D01*
X85598857Y-39013809D01*
X85122666Y-38775714D02*
X85122666Y-39775714D01*
X85122666Y-38823333D02*
X85027428Y-38775714D01*
X84836952Y-38775714D01*
X84741714Y-38823333D01*
X84694095Y-38870952D01*
X84646476Y-38966190D01*
X84646476Y-39251904D01*
X84694095Y-39347142D01*
X84741714Y-39394761D01*
X84836952Y-39442380D01*
X85027428Y-39442380D01*
X85122666Y-39394761D01*
X83836952Y-39394761D02*
X83932190Y-39442380D01*
X84122666Y-39442380D01*
X84217904Y-39394761D01*
X84265523Y-39299523D01*
X84265523Y-38918571D01*
X84217904Y-38823333D01*
X84122666Y-38775714D01*
X83932190Y-38775714D01*
X83836952Y-38823333D01*
X83789333Y-38918571D01*
X83789333Y-39013809D01*
X84265523Y-39109047D01*
X97479809Y-40092380D02*
X96908380Y-40092380D01*
X97194095Y-41092380D02*
X97194095Y-40092380D01*
X96432190Y-41092380D02*
X96527428Y-41044761D01*
X96575047Y-40997142D01*
X96622666Y-40901904D01*
X96622666Y-40616190D01*
X96575047Y-40520952D01*
X96527428Y-40473333D01*
X96432190Y-40425714D01*
X96289333Y-40425714D01*
X96194095Y-40473333D01*
X96146476Y-40520952D01*
X96098857Y-40616190D01*
X96098857Y-40901904D01*
X96146476Y-40997142D01*
X96194095Y-41044761D01*
X96289333Y-41092380D01*
X96432190Y-41092380D01*
X95670285Y-41092380D02*
X95670285Y-40425714D01*
X95670285Y-40520952D02*
X95622666Y-40473333D01*
X95527428Y-40425714D01*
X95384571Y-40425714D01*
X95289333Y-40473333D01*
X95241714Y-40568571D01*
X95241714Y-41092380D01*
X95241714Y-40568571D02*
X95194095Y-40473333D01*
X95098857Y-40425714D01*
X94956000Y-40425714D01*
X94860761Y-40473333D01*
X94813142Y-40568571D01*
X94813142Y-41092380D01*
X93717904Y-40092380D02*
X93384571Y-41092380D01*
X93051238Y-40092380D01*
X92336952Y-41044761D02*
X92432190Y-41092380D01*
X92622666Y-41092380D01*
X92717904Y-41044761D01*
X92765523Y-40949523D01*
X92765523Y-40568571D01*
X92717904Y-40473333D01*
X92622666Y-40425714D01*
X92432190Y-40425714D01*
X92336952Y-40473333D01*
X92289333Y-40568571D01*
X92289333Y-40663809D01*
X92765523Y-40759047D01*
X91860761Y-41092380D02*
X91860761Y-40425714D01*
X91860761Y-40616190D02*
X91813142Y-40520952D01*
X91765523Y-40473333D01*
X91670285Y-40425714D01*
X91575047Y-40425714D01*
X91241714Y-41092380D02*
X91241714Y-40092380D01*
X91241714Y-40473333D02*
X91146476Y-40425714D01*
X90956000Y-40425714D01*
X90860761Y-40473333D01*
X90813142Y-40520952D01*
X90765523Y-40616190D01*
X90765523Y-40901904D01*
X90813142Y-40997142D01*
X90860761Y-41044761D01*
X90956000Y-41092380D01*
X91146476Y-41092380D01*
X91241714Y-41044761D01*
X89956000Y-41044761D02*
X90051238Y-41092380D01*
X90241714Y-41092380D01*
X90336952Y-41044761D01*
X90384571Y-40949523D01*
X90384571Y-40568571D01*
X90336952Y-40473333D01*
X90241714Y-40425714D01*
X90051238Y-40425714D01*
X89956000Y-40473333D01*
X89908380Y-40568571D01*
X89908380Y-40663809D01*
X90384571Y-40759047D01*
X89051238Y-40425714D02*
X89051238Y-41092380D01*
X89479809Y-40425714D02*
X89479809Y-40949523D01*
X89432190Y-41044761D01*
X89336952Y-41092380D01*
X89194095Y-41092380D01*
X89098857Y-41044761D01*
X89051238Y-40997142D01*
X88575047Y-41092380D02*
X88575047Y-40425714D01*
X88575047Y-40616190D02*
X88527428Y-40520952D01*
X88479809Y-40473333D01*
X88384571Y-40425714D01*
X88289333Y-40425714D01*
X87575047Y-41044761D02*
X87670285Y-41092380D01*
X87860761Y-41092380D01*
X87956000Y-41044761D01*
X88003619Y-40949523D01*
X88003619Y-40568571D01*
X87956000Y-40473333D01*
X87860761Y-40425714D01*
X87670285Y-40425714D01*
X87575047Y-40473333D01*
X87527428Y-40568571D01*
X87527428Y-40663809D01*
X88003619Y-40759047D01*
X113646476Y-42742380D02*
X113646476Y-41742380D01*
X113217904Y-42742380D02*
X113217904Y-42218571D01*
X113265523Y-42123333D01*
X113360761Y-42075714D01*
X113503619Y-42075714D01*
X113598857Y-42123333D01*
X113646476Y-42170952D01*
X112884571Y-42075714D02*
X112503619Y-42075714D01*
X112741714Y-41742380D02*
X112741714Y-42599523D01*
X112694095Y-42694761D01*
X112598857Y-42742380D01*
X112503619Y-42742380D01*
X112313142Y-42075714D02*
X111932190Y-42075714D01*
X112170285Y-41742380D02*
X112170285Y-42599523D01*
X112122666Y-42694761D01*
X112027428Y-42742380D01*
X111932190Y-42742380D01*
X111598857Y-42075714D02*
X111598857Y-43075714D01*
X111598857Y-42123333D02*
X111503619Y-42075714D01*
X111313142Y-42075714D01*
X111217904Y-42123333D01*
X111170285Y-42170952D01*
X111122666Y-42266190D01*
X111122666Y-42551904D01*
X111170285Y-42647142D01*
X111217904Y-42694761D01*
X111313142Y-42742380D01*
X111503619Y-42742380D01*
X111598857Y-42694761D01*
X110741714Y-42694761D02*
X110646476Y-42742380D01*
X110455999Y-42742380D01*
X110360761Y-42694761D01*
X110313142Y-42599523D01*
X110313142Y-42551904D01*
X110360761Y-42456666D01*
X110455999Y-42409047D01*
X110598857Y-42409047D01*
X110694095Y-42361428D01*
X110741714Y-42266190D01*
X110741714Y-42218571D01*
X110694095Y-42123333D01*
X110598857Y-42075714D01*
X110455999Y-42075714D01*
X110360761Y-42123333D01*
X109884571Y-42647142D02*
X109836952Y-42694761D01*
X109884571Y-42742380D01*
X109932190Y-42694761D01*
X109884571Y-42647142D01*
X109884571Y-42742380D01*
X109884571Y-42123333D02*
X109836952Y-42170952D01*
X109884571Y-42218571D01*
X109932190Y-42170952D01*
X109884571Y-42123333D01*
X109884571Y-42218571D01*
X108694095Y-41694761D02*
X109551238Y-42980476D01*
X107646476Y-41694761D02*
X108503619Y-42980476D01*
X106884571Y-42075714D02*
X106884571Y-42885238D01*
X106932190Y-42980476D01*
X106979809Y-43028095D01*
X107075047Y-43075714D01*
X107217904Y-43075714D01*
X107313142Y-43028095D01*
X106884571Y-42694761D02*
X106979809Y-42742380D01*
X107170285Y-42742380D01*
X107265523Y-42694761D01*
X107313142Y-42647142D01*
X107360761Y-42551904D01*
X107360761Y-42266190D01*
X107313142Y-42170952D01*
X107265523Y-42123333D01*
X107170285Y-42075714D01*
X106979809Y-42075714D01*
X106884571Y-42123333D01*
X106408380Y-42742380D02*
X106408380Y-42075714D01*
X106408380Y-41742380D02*
X106456000Y-41790000D01*
X106408380Y-41837619D01*
X106360761Y-41790000D01*
X106408380Y-41742380D01*
X106408380Y-41837619D01*
X106075047Y-42075714D02*
X105694095Y-42075714D01*
X105932190Y-41742380D02*
X105932190Y-42599523D01*
X105884571Y-42694761D01*
X105789333Y-42742380D01*
X105694095Y-42742380D01*
X105360761Y-42742380D02*
X105360761Y-41742380D01*
X104932190Y-42742380D02*
X104932190Y-42218571D01*
X104979809Y-42123333D01*
X105075047Y-42075714D01*
X105217904Y-42075714D01*
X105313142Y-42123333D01*
X105360761Y-42170952D01*
X104027428Y-42075714D02*
X104027428Y-42742380D01*
X104456000Y-42075714D02*
X104456000Y-42599523D01*
X104408380Y-42694761D01*
X104313142Y-42742380D01*
X104170285Y-42742380D01*
X104075047Y-42694761D01*
X104027428Y-42647142D01*
X103551238Y-42742380D02*
X103551238Y-41742380D01*
X103551238Y-42123333D02*
X103456000Y-42075714D01*
X103265523Y-42075714D01*
X103170285Y-42123333D01*
X103122666Y-42170952D01*
X103075047Y-42266190D01*
X103075047Y-42551904D01*
X103122666Y-42647142D01*
X103170285Y-42694761D01*
X103265523Y-42742380D01*
X103456000Y-42742380D01*
X103551238Y-42694761D01*
X102646476Y-42647142D02*
X102598857Y-42694761D01*
X102646476Y-42742380D01*
X102694095Y-42694761D01*
X102646476Y-42647142D01*
X102646476Y-42742380D01*
X101741714Y-42694761D02*
X101836952Y-42742380D01*
X102027428Y-42742380D01*
X102122666Y-42694761D01*
X102170285Y-42647142D01*
X102217904Y-42551904D01*
X102217904Y-42266190D01*
X102170285Y-42170952D01*
X102122666Y-42123333D01*
X102027428Y-42075714D01*
X101836952Y-42075714D01*
X101741714Y-42123333D01*
X101170285Y-42742380D02*
X101265523Y-42694761D01*
X101313142Y-42647142D01*
X101360761Y-42551904D01*
X101360761Y-42266190D01*
X101313142Y-42170952D01*
X101265523Y-42123333D01*
X101170285Y-42075714D01*
X101027428Y-42075714D01*
X100932190Y-42123333D01*
X100884571Y-42170952D01*
X100836952Y-42266190D01*
X100836952Y-42551904D01*
X100884571Y-42647142D01*
X100932190Y-42694761D01*
X101027428Y-42742380D01*
X101170285Y-42742380D01*
X100408380Y-42742380D02*
X100408380Y-42075714D01*
X100408380Y-42170952D02*
X100360761Y-42123333D01*
X100265523Y-42075714D01*
X100122666Y-42075714D01*
X100027428Y-42123333D01*
X99979809Y-42218571D01*
X99979809Y-42742380D01*
X99979809Y-42218571D02*
X99932190Y-42123333D01*
X99836952Y-42075714D01*
X99694095Y-42075714D01*
X99598857Y-42123333D01*
X99551238Y-42218571D01*
X99551238Y-42742380D01*
X98360761Y-41694761D02*
X99217904Y-42980476D01*
X98170285Y-42075714D02*
X97789333Y-42075714D01*
X98027428Y-41742380D02*
X98027428Y-42599523D01*
X97979809Y-42694761D01*
X97884571Y-42742380D01*
X97789333Y-42742380D01*
X97313142Y-42742380D02*
X97408380Y-42694761D01*
X97456000Y-42647142D01*
X97503619Y-42551904D01*
X97503619Y-42266190D01*
X97456000Y-42170952D01*
X97408380Y-42123333D01*
X97313142Y-42075714D01*
X97170285Y-42075714D01*
X97075047Y-42123333D01*
X97027428Y-42170952D01*
X96979809Y-42266190D01*
X96979809Y-42551904D01*
X97027428Y-42647142D01*
X97075047Y-42694761D01*
X97170285Y-42742380D01*
X97313142Y-42742380D01*
X96551238Y-42742380D02*
X96551238Y-42075714D01*
X96551238Y-42170952D02*
X96503619Y-42123333D01*
X96408380Y-42075714D01*
X96265523Y-42075714D01*
X96170285Y-42123333D01*
X96122666Y-42218571D01*
X96122666Y-42742380D01*
X96122666Y-42218571D02*
X96075047Y-42123333D01*
X95979809Y-42075714D01*
X95836952Y-42075714D01*
X95741714Y-42123333D01*
X95694095Y-42218571D01*
X95694095Y-42742380D01*
X95313142Y-42075714D02*
X95075047Y-42742380D01*
X94836952Y-42075714D01*
X94075047Y-42694761D02*
X94170285Y-42742380D01*
X94360761Y-42742380D01*
X94456000Y-42694761D01*
X94503619Y-42599523D01*
X94503619Y-42218571D01*
X94456000Y-42123333D01*
X94360761Y-42075714D01*
X94170285Y-42075714D01*
X94075047Y-42123333D01*
X94027428Y-42218571D01*
X94027428Y-42313809D01*
X94503619Y-42409047D01*
X93598857Y-42742380D02*
X93598857Y-42075714D01*
X93598857Y-42266190D02*
X93551238Y-42170952D01*
X93503619Y-42123333D01*
X93408380Y-42075714D01*
X93313142Y-42075714D01*
X92979809Y-42742380D02*
X92979809Y-41742380D01*
X92979809Y-42123333D02*
X92884571Y-42075714D01*
X92694095Y-42075714D01*
X92598857Y-42123333D01*
X92551238Y-42170952D01*
X92503619Y-42266190D01*
X92503619Y-42551904D01*
X92551238Y-42647142D01*
X92598857Y-42694761D01*
X92694095Y-42742380D01*
X92884571Y-42742380D01*
X92979809Y-42694761D01*
X91694095Y-42694761D02*
X91789333Y-42742380D01*
X91979809Y-42742380D01*
X92075047Y-42694761D01*
X92122666Y-42599523D01*
X92122666Y-42218571D01*
X92075047Y-42123333D01*
X91979809Y-42075714D01*
X91789333Y-42075714D01*
X91694095Y-42123333D01*
X91646476Y-42218571D01*
X91646476Y-42313809D01*
X92122666Y-42409047D01*
X90789333Y-42075714D02*
X90789333Y-42742380D01*
X91217904Y-42075714D02*
X91217904Y-42599523D01*
X91170285Y-42694761D01*
X91075047Y-42742380D01*
X90932190Y-42742380D01*
X90836952Y-42694761D01*
X90789333Y-42647142D01*
X90313142Y-42742380D02*
X90313142Y-42075714D01*
X90313142Y-42266190D02*
X90265523Y-42170952D01*
X90217904Y-42123333D01*
X90122666Y-42075714D01*
X90027428Y-42075714D01*
X89313142Y-42694761D02*
X89408380Y-42742380D01*
X89598857Y-42742380D01*
X89694095Y-42694761D01*
X89741714Y-42599523D01*
X89741714Y-42218571D01*
X89694095Y-42123333D01*
X89598857Y-42075714D01*
X89408380Y-42075714D01*
X89313142Y-42123333D01*
X89265523Y-42218571D01*
X89265523Y-42313809D01*
X89741714Y-42409047D01*
X88122666Y-41694761D02*
X88979809Y-42980476D01*
X87360761Y-42742380D02*
X87360761Y-42218571D01*
X87408380Y-42123333D01*
X87503619Y-42075714D01*
X87694095Y-42075714D01*
X87789333Y-42123333D01*
X87360761Y-42694761D02*
X87456000Y-42742380D01*
X87694095Y-42742380D01*
X87789333Y-42694761D01*
X87836952Y-42599523D01*
X87836952Y-42504285D01*
X87789333Y-42409047D01*
X87694095Y-42361428D01*
X87456000Y-42361428D01*
X87360761Y-42313809D01*
X86884571Y-42742380D02*
X86884571Y-42075714D01*
X86884571Y-42266190D02*
X86836952Y-42170952D01*
X86789333Y-42123333D01*
X86694095Y-42075714D01*
X86598857Y-42075714D01*
X86265523Y-42742380D02*
X86265523Y-42075714D01*
X86265523Y-42266190D02*
X86217904Y-42170952D01*
X86170285Y-42123333D01*
X86075047Y-42075714D01*
X85979809Y-42075714D01*
X85503619Y-42742380D02*
X85598857Y-42694761D01*
X85646476Y-42647142D01*
X85694095Y-42551904D01*
X85694095Y-42266190D01*
X85646476Y-42170952D01*
X85598857Y-42123333D01*
X85503619Y-42075714D01*
X85360761Y-42075714D01*
X85265523Y-42123333D01*
X85217904Y-42170952D01*
X85170285Y-42266190D01*
X85170285Y-42551904D01*
X85217904Y-42647142D01*
X85265523Y-42694761D01*
X85360761Y-42742380D01*
X85503619Y-42742380D01*
X84836952Y-42075714D02*
X84646476Y-42742380D01*
X84456000Y-42266190D01*
X84265523Y-42742380D01*
X84075047Y-42075714D01*
X83932190Y-42837619D02*
X83170285Y-42837619D01*
X82503619Y-42742380D02*
X82503619Y-41742380D01*
X82503619Y-42694761D02*
X82598857Y-42742380D01*
X82789333Y-42742380D01*
X82884571Y-42694761D01*
X82932190Y-42647142D01*
X82979809Y-42551904D01*
X82979809Y-42266190D01*
X82932190Y-42170952D01*
X82884571Y-42123333D01*
X82789333Y-42075714D01*
X82598857Y-42075714D01*
X82503619Y-42123333D01*
X81646476Y-42694761D02*
X81741714Y-42742380D01*
X81932190Y-42742380D01*
X82027428Y-42694761D01*
X82075047Y-42599523D01*
X82075047Y-42218571D01*
X82027428Y-42123333D01*
X81932190Y-42075714D01*
X81741714Y-42075714D01*
X81646476Y-42123333D01*
X81598857Y-42218571D01*
X81598857Y-42313809D01*
X82075047Y-42409047D01*
X80741714Y-42694761D02*
X80836952Y-42742380D01*
X81027428Y-42742380D01*
X81122666Y-42694761D01*
X81170285Y-42647142D01*
X81217904Y-42551904D01*
X81217904Y-42266190D01*
X81170285Y-42170952D01*
X81122666Y-42123333D01*
X81027428Y-42075714D01*
X80836952Y-42075714D01*
X80741714Y-42123333D01*
X79884571Y-42742380D02*
X79884571Y-42218571D01*
X79932190Y-42123333D01*
X80027428Y-42075714D01*
X80217904Y-42075714D01*
X80313142Y-42123333D01*
X79884571Y-42694761D02*
X79979809Y-42742380D01*
X80217904Y-42742380D01*
X80313142Y-42694761D01*
X80360761Y-42599523D01*
X80360761Y-42504285D01*
X80313142Y-42409047D01*
X80217904Y-42361428D01*
X79979809Y-42361428D01*
X79884571Y-42313809D01*
X79646476Y-42837619D02*
X78884571Y-42837619D01*
X78646476Y-42742380D02*
X78646476Y-42075714D01*
X78646476Y-42266190D02*
X78598857Y-42170952D01*
X78551238Y-42123333D01*
X78456000Y-42075714D01*
X78360761Y-42075714D01*
X77646476Y-42694761D02*
X77741714Y-42742380D01*
X77932190Y-42742380D01*
X78027428Y-42694761D01*
X78075047Y-42599523D01*
X78075047Y-42218571D01*
X78027428Y-42123333D01*
X77932190Y-42075714D01*
X77741714Y-42075714D01*
X77646476Y-42123333D01*
X77598857Y-42218571D01*
X77598857Y-42313809D01*
X78075047Y-42409047D01*
X77313142Y-42075714D02*
X76932190Y-42075714D01*
X77170285Y-41742380D02*
X77170285Y-42599523D01*
X77122666Y-42694761D01*
X77027428Y-42742380D01*
X76932190Y-42742380D01*
X76598857Y-42742380D02*
X76598857Y-42075714D01*
X76598857Y-42266190D02*
X76551238Y-42170952D01*
X76503619Y-42123333D01*
X76408380Y-42075714D01*
X76313142Y-42075714D01*
X75836952Y-42742380D02*
X75932190Y-42694761D01*
X75979809Y-42647142D01*
X76027428Y-42551904D01*
X76027428Y-42266190D01*
X75979809Y-42170952D01*
X75932190Y-42123333D01*
X75836952Y-42075714D01*
X75694095Y-42075714D01*
X75598857Y-42123333D01*
X75551238Y-42170952D01*
X75503619Y-42266190D01*
X75503619Y-42551904D01*
X75551238Y-42647142D01*
X75598857Y-42694761D01*
X75694095Y-42742380D01*
X75836952Y-42742380D01*
X75313142Y-42837619D02*
X74551238Y-42837619D01*
X73884571Y-42694761D02*
X73979809Y-42742380D01*
X74170285Y-42742380D01*
X74265523Y-42694761D01*
X74313142Y-42647142D01*
X74360761Y-42551904D01*
X74360761Y-42266190D01*
X74313142Y-42170952D01*
X74265523Y-42123333D01*
X74170285Y-42075714D01*
X73979809Y-42075714D01*
X73884571Y-42123333D01*
X73027428Y-42742380D02*
X73027428Y-42218571D01*
X73075047Y-42123333D01*
X73170285Y-42075714D01*
X73360761Y-42075714D01*
X73456000Y-42123333D01*
X73027428Y-42694761D02*
X73122666Y-42742380D01*
X73360761Y-42742380D01*
X73456000Y-42694761D01*
X73503619Y-42599523D01*
X73503619Y-42504285D01*
X73456000Y-42409047D01*
X73360761Y-42361428D01*
X73122666Y-42361428D01*
X73027428Y-42313809D01*
X72551238Y-42075714D02*
X72551238Y-43075714D01*
X72551238Y-42123333D02*
X72456000Y-42075714D01*
X72265523Y-42075714D01*
X72170285Y-42123333D01*
X72122666Y-42170952D01*
X72075047Y-42266190D01*
X72075047Y-42551904D01*
X72122666Y-42647142D01*
X72170285Y-42694761D01*
X72265523Y-42742380D01*
X72456000Y-42742380D01*
X72551238Y-42694761D01*
X71265523Y-42694761D02*
X71360761Y-42742380D01*
X71551238Y-42742380D01*
X71646476Y-42694761D01*
X71694095Y-42599523D01*
X71694095Y-42218571D01*
X71646476Y-42123333D01*
X71551238Y-42075714D01*
X71360761Y-42075714D01*
X71265523Y-42123333D01*
X71217904Y-42218571D01*
X71217904Y-42313809D01*
X71694095Y-42409047D01*
M02*
