M48
; DRILL file {KiCad 5.1.6-c6e7f7d~86~ubuntu18.04.1} date Sun Jul  4 16:44:17 2021
; FORMAT={-:-/ absolute / inch / decimal}
; #@! TF.CreationDate,2021-07-04T16:44:17-07:00
; #@! TF.GenerationSoftware,Kicad,Pcbnew,5.1.6-c6e7f7d~86~ubuntu18.04.1
; #@! TF.FileFunction,Plated,1,4,PTH
FMAT,2
INCH
T1C0.0100
T2C0.0150
T3C0.0200
T4C0.0300
T5C0.0354
T6C0.0390
T7C0.0394
T8C0.1260
%
G90
G05
T1
X3.8976Y-2.2283
X3.9055Y-2.1969
X3.9134Y-2.1654
X3.9291Y-2.1339
X3.937Y-2.1024
X3.9449Y-2.0709
X3.9528Y-2.0394
X3.9704Y-1.9764
X3.9804Y-1.9449
X3.9843Y-1.9134
X4.0Y-1.8819
X4.0078Y-2.8833
X4.0079Y-2.8504
X4.0079Y-2.9134
X4.0079Y-2.9449
X4.0079Y-3.0079
X4.0079Y-3.0394
X4.0079Y-3.0709
X4.0079Y-3.1024
X4.0079Y-3.1339
X4.0079Y-3.1654
X4.0079Y-3.1969
X4.0866Y-1.4724
X4.0866Y-1.5354
X4.0866Y-1.5669
X4.0866Y-1.6299
X4.0866Y-1.6614
X4.0866Y-1.7244
X4.0866Y-1.7559
X4.0866Y-1.8189
X4.0866Y-1.8819
X4.0866Y-1.9134
X4.0866Y-1.9449
X4.0866Y-1.9764
X4.0866Y-2.0079
X4.0866Y-2.0394
X4.0866Y-2.0709
X4.0866Y-2.1024
X4.0866Y-2.1339
X4.0866Y-2.1654
X4.0866Y-2.1969
X4.0866Y-2.2283
X4.54Y-2.24
X4.5542Y-2.2606
X4.5575Y-2.286
X4.5709Y-2.3071
X4.5752Y-2.0075
X4.5827Y-2.3307
X4.5884Y-2.0419
X4.6007Y-2.3481
X4.601Y-2.0762
X4.6024Y-1.9016
X4.6095Y-2.1024
X4.61Y-1.98
X4.6195Y-2.1339
X4.622Y-2.3346
X4.6295Y-2.3085
X4.6295Y-2.1654
X4.6395Y-2.2835
X4.6395Y-2.1969
T2
X3.79Y-1.87
X3.79Y-2.04
X4.0423Y-2.2906
X4.0865Y-1.8506
X4.0866Y-1.5039
X4.0866Y-1.5984
X4.0866Y-1.6929
X4.0866Y-2.2598
X4.0866Y-2.4094
X4.0866Y-2.4724
X4.0866Y-2.5669
X4.0866Y-2.6614
X4.0866Y-2.7559
X4.0866Y-2.8189
X4.087Y-1.7867
X4.0877Y-3.2294
X4.28Y-1.24
X4.37Y-1.2915
X4.4488Y-1.4409
X4.4488Y-1.5039
X4.4488Y-1.5984
X4.4488Y-1.6929
X4.4488Y-1.7874
X4.4488Y-1.8504
X4.4488Y-1.9764
X4.4488Y-2.2598
X4.4488Y-2.4094
X4.4488Y-2.4724
X4.4488Y-2.5669
X4.4488Y-2.6614
X4.4488Y-2.8189
X4.4488Y-2.9449
X4.4488Y-3.2283
X4.45Y-2.75
X4.73Y-1.16
T3
X2.89Y-1.75
T4
X2.835Y-1.93
X3.32Y-1.71
T5
X2.125Y-2.6378
X2.125Y-2.7469
X2.125Y-2.8559
X2.125Y-2.965
X2.225Y-2.5833
X2.225Y-2.6924
X2.225Y-2.8014
X2.225Y-2.9105
X2.225Y-3.0195
X2.125Y-1.3883
X2.125Y-1.4974
X2.125Y-1.6065
X2.125Y-1.7155
X2.225Y-1.3338
X2.225Y-1.4429
X2.225Y-1.5519
X2.225Y-1.661
X2.225Y-1.77
T6
X3.7894Y-0.9409
X3.7894Y-1.0394
X3.8661Y-1.0394
X3.9685Y-1.0394
X4.0453Y-0.9409
X4.0453Y-1.0394
T7
X3.795Y-2.585
X3.795Y-2.685
X3.795Y-2.785
X3.795Y-2.885
X3.795Y-2.985
X3.795Y-3.085
X2.6Y-1.0
X2.6Y-1.1
X2.6Y-1.2
X2.6Y-1.3
X2.6Y-1.4
X2.6Y-1.5
X2.6Y-1.6
X2.6Y-1.7
X2.6Y-1.8
X2.6Y-1.9
X2.6Y-2.0
X2.6Y-2.1
X2.6Y-2.2
X2.6Y-2.3
X2.6Y-2.4
X2.6Y-2.5
X2.6Y-2.6
X2.6Y-2.7
X2.6Y-2.8
X2.6Y-2.9
X2.6Y-3.0
X2.6Y-3.1
X2.6Y-3.2
X2.7Y-1.0
X2.7Y-1.1
X2.7Y-1.2
X2.7Y-1.3
X2.7Y-1.4
X2.7Y-1.5
X2.7Y-1.6
X2.7Y-1.7
X2.7Y-1.8
X2.7Y-1.9
X2.7Y-2.0
X2.7Y-2.1
X2.7Y-2.2
X2.7Y-2.3
X2.7Y-2.4
X2.7Y-2.5
X2.7Y-2.6
X2.7Y-2.7
X2.7Y-2.8
X2.7Y-2.9
X2.7Y-3.0
X2.7Y-3.1
X2.7Y-3.2
X4.7874Y-1.0
X4.7874Y-1.1
X4.7874Y-1.2
X4.7874Y-1.3
X4.7874Y-1.4
X4.7874Y-1.5
X4.7874Y-1.6
X4.7874Y-1.7
X4.7874Y-1.8
X4.7874Y-1.9
X4.7874Y-2.0
X4.7874Y-2.1
X4.7874Y-2.2
X4.7874Y-2.3
X4.7874Y-2.4
X4.7874Y-2.5
X4.7874Y-2.6
X4.7874Y-2.7
X4.7874Y-2.8
X4.7874Y-2.9
X4.7874Y-3.0
X4.7874Y-3.1
X4.7874Y-3.2
X4.8874Y-1.0
X4.8874Y-1.1
X4.8874Y-1.2
X4.8874Y-1.3
X4.8874Y-1.4
X4.8874Y-1.5
X4.8874Y-1.6
X4.8874Y-1.7
X4.8874Y-1.8
X4.8874Y-1.9
X4.8874Y-2.0
X4.8874Y-2.1
X4.8874Y-2.2
X4.8874Y-2.3
X4.8874Y-2.4
X4.8874Y-2.5
X4.8874Y-2.6
X4.8874Y-2.7
X4.8874Y-2.8
X4.8874Y-2.9
X4.8874Y-3.0
X4.8874Y-3.1
X4.8874Y-3.2
X2.945Y-1.235
X2.945Y-1.335
X3.045Y-1.235
X3.045Y-1.335
X3.145Y-1.235
X3.145Y-1.335
X3.245Y-1.235
X3.245Y-1.335
X3.345Y-1.235
X3.345Y-1.335
X3.445Y-1.235
X3.445Y-1.335
X3.435Y-1.745
X3.435Y-1.845
X3.435Y-1.945
T8
X2.175Y-2.3095
X2.175Y-3.2933
X2.175Y-1.06
X2.175Y-2.0439
T0
M30
