%TF.GenerationSoftware,KiCad,Pcbnew,5.1.6-c6e7f7d~86~ubuntu18.04.1*%
%TF.CreationDate,2021-07-04T16:44:21-07:00*%
%TF.ProjectId,arrow_deca_retro_cape,6172726f-775f-4646-9563-615f72657472,rev?*%
%TF.SameCoordinates,Original*%
%TF.FileFunction,Soldermask,Bot*%
%TF.FilePolarity,Negative*%
%FSLAX46Y46*%
G04 Gerber Fmt 4.6, Leading zero omitted, Abs format (unit mm)*
G04 Created by KiCad (PCBNEW 5.1.6-c6e7f7d~86~ubuntu18.04.1) date 2021-07-04 16:44:21*
%MOMM*%
%LPD*%
G01*
G04 APERTURE LIST*
%ADD10O,1.800000X1.800000*%
%ADD11R,1.800000X1.800000*%
%ADD12C,4.316000*%
%ADD13C,1.508000*%
%ADD14R,1.508000X1.508000*%
%ADD15C,1.090600*%
%ADD16C,2.589200*%
%ADD17C,1.598600*%
G04 APERTURE END LIST*
D10*
%TO.C,J8*%
X96393000Y-78359000D03*
X96393000Y-75819000D03*
X96393000Y-73279000D03*
X96393000Y-70739000D03*
X96393000Y-68199000D03*
D11*
X96393000Y-65659000D03*
%TD*%
D10*
%TO.C,J7*%
X87249000Y-49403000D03*
X87249000Y-46863000D03*
D11*
X87249000Y-44323000D03*
%TD*%
D12*
%TO.C,J4*%
X55245000Y-51914000D03*
X55245000Y-26924000D03*
D13*
X53975000Y-43574000D03*
X53975000Y-40804000D03*
X53975000Y-38034000D03*
X53975000Y-35264000D03*
X56515000Y-44959000D03*
X56515000Y-42189000D03*
X56515000Y-39419000D03*
X56515000Y-36649000D03*
D14*
X56515000Y-33879000D03*
%TD*%
D12*
%TO.C,J6*%
X55245000Y-83651000D03*
X55245000Y-58661000D03*
D13*
X53975000Y-75311000D03*
X53975000Y-72541000D03*
X53975000Y-69771000D03*
X53975000Y-67001000D03*
X56515000Y-76696000D03*
X56515000Y-73926000D03*
X56515000Y-71156000D03*
X56515000Y-68386000D03*
D14*
X56515000Y-65616000D03*
%TD*%
D15*
%TO.C,J5*%
X98750700Y-30200001D03*
X100249300Y-30200001D03*
D16*
X106200000Y-29300000D03*
X92800000Y-29300000D03*
D17*
X96250002Y-23900001D03*
X102750001Y-23900001D03*
X102750070Y-26400001D03*
X96250070Y-26400001D03*
X98200000Y-26400001D03*
X100800000Y-26400001D03*
%TD*%
D10*
%TO.C,J2*%
X124140000Y-81280000D03*
X121600000Y-81280000D03*
X124140000Y-78740000D03*
X121600000Y-78740000D03*
X124140000Y-76200000D03*
X121600000Y-76200000D03*
X124140000Y-73660000D03*
X121600000Y-73660000D03*
X124140000Y-71120000D03*
X121600000Y-71120000D03*
X124140000Y-68580000D03*
X121600000Y-68580000D03*
X124140000Y-66040000D03*
X121600000Y-66040000D03*
X124140000Y-63500000D03*
X121600000Y-63500000D03*
X124140000Y-60960000D03*
X121600000Y-60960000D03*
X124140000Y-58420000D03*
X121600000Y-58420000D03*
X124140000Y-55880000D03*
X121600000Y-55880000D03*
X124140000Y-53340000D03*
X121600000Y-53340000D03*
X124140000Y-50800000D03*
X121600000Y-50800000D03*
X124140000Y-48260000D03*
X121600000Y-48260000D03*
X124140000Y-45720000D03*
X121600000Y-45720000D03*
X124140000Y-43180000D03*
X121600000Y-43180000D03*
X124140000Y-40640000D03*
X121600000Y-40640000D03*
X124140000Y-38100000D03*
X121600000Y-38100000D03*
X124140000Y-35560000D03*
X121600000Y-35560000D03*
X124140000Y-33020000D03*
X121600000Y-33020000D03*
X124140000Y-30480000D03*
X121600000Y-30480000D03*
X124140000Y-27940000D03*
X121600000Y-27940000D03*
X124140000Y-25400000D03*
D11*
X121600000Y-25400000D03*
%TD*%
D10*
%TO.C,J3*%
X68580000Y-81280000D03*
X66040000Y-81280000D03*
X68580000Y-78740000D03*
X66040000Y-78740000D03*
X68580000Y-76200000D03*
X66040000Y-76200000D03*
X68580000Y-73660000D03*
X66040000Y-73660000D03*
X68580000Y-71120000D03*
X66040000Y-71120000D03*
X68580000Y-68580000D03*
X66040000Y-68580000D03*
X68580000Y-66040000D03*
X66040000Y-66040000D03*
X68580000Y-63500000D03*
X66040000Y-63500000D03*
X68580000Y-60960000D03*
X66040000Y-60960000D03*
X68580000Y-58420000D03*
X66040000Y-58420000D03*
X68580000Y-55880000D03*
X66040000Y-55880000D03*
X68580000Y-53340000D03*
X66040000Y-53340000D03*
X68580000Y-50800000D03*
X66040000Y-50800000D03*
X68580000Y-48260000D03*
X66040000Y-48260000D03*
X68580000Y-45720000D03*
X66040000Y-45720000D03*
X68580000Y-43180000D03*
X66040000Y-43180000D03*
X68580000Y-40640000D03*
X66040000Y-40640000D03*
X68580000Y-38100000D03*
X66040000Y-38100000D03*
X68580000Y-35560000D03*
X66040000Y-35560000D03*
X68580000Y-33020000D03*
X66040000Y-33020000D03*
X68580000Y-30480000D03*
X66040000Y-30480000D03*
X68580000Y-27940000D03*
X66040000Y-27940000D03*
X68580000Y-25400000D03*
D11*
X66040000Y-25400000D03*
%TD*%
D10*
%TO.C,J1*%
X77343000Y-33909000D03*
X79883000Y-33909000D03*
D11*
X74803000Y-33909000D03*
D10*
X87503000Y-31369000D03*
X84963000Y-31369000D03*
X74803000Y-31369000D03*
X87503000Y-33909000D03*
X79883000Y-31369000D03*
X82423000Y-31369000D03*
X84963000Y-33909000D03*
X82423000Y-33909000D03*
X77343000Y-31369000D03*
%TD*%
M02*
