%TF.GenerationSoftware,KiCad,Pcbnew,5.1.6-c6e7f7d~86~ubuntu18.04.1*%
%TF.CreationDate,2021-07-04T16:44:21-07:00*%
%TF.ProjectId,arrow_deca_retro_cape,6172726f-775f-4646-9563-615f72657472,rev?*%
%TF.SameCoordinates,Original*%
%TF.FileFunction,Legend,Top*%
%TF.FilePolarity,Positive*%
%FSLAX46Y46*%
G04 Gerber Fmt 4.6, Leading zero omitted, Abs format (unit mm)*
G04 Created by KiCad (PCBNEW 5.1.6-c6e7f7d~86~ubuntu18.04.1) date 2021-07-04 16:44:21*
%MOMM*%
%LPD*%
G01*
G04 APERTURE LIST*
%ADD10C,0.150000*%
%ADD11C,0.120000*%
%ADD12C,0.127000*%
%ADD13C,0.200000*%
%ADD14C,0.100000*%
%ADD15C,0.050000*%
G04 APERTURE END LIST*
D10*
X89185904Y-46315380D02*
X89804952Y-46315380D01*
X89471619Y-46696333D01*
X89614476Y-46696333D01*
X89709714Y-46743952D01*
X89757333Y-46791571D01*
X89804952Y-46886809D01*
X89804952Y-47124904D01*
X89757333Y-47220142D01*
X89709714Y-47267761D01*
X89614476Y-47315380D01*
X89328761Y-47315380D01*
X89233523Y-47267761D01*
X89185904Y-47220142D01*
X90090666Y-46315380D02*
X90424000Y-47315380D01*
X90757333Y-46315380D01*
X90995428Y-46315380D02*
X91614476Y-46315380D01*
X91281142Y-46696333D01*
X91424000Y-46696333D01*
X91519238Y-46743952D01*
X91566857Y-46791571D01*
X91614476Y-46886809D01*
X91614476Y-47124904D01*
X91566857Y-47220142D01*
X91519238Y-47267761D01*
X91424000Y-47315380D01*
X91138285Y-47315380D01*
X91043047Y-47267761D01*
X90995428Y-47220142D01*
X89281380Y-48982380D02*
X89900428Y-48982380D01*
X89567095Y-49363333D01*
X89709952Y-49363333D01*
X89805190Y-49410952D01*
X89852809Y-49458571D01*
X89900428Y-49553809D01*
X89900428Y-49791904D01*
X89852809Y-49887142D01*
X89805190Y-49934761D01*
X89709952Y-49982380D01*
X89424238Y-49982380D01*
X89329000Y-49934761D01*
X89281380Y-49887142D01*
X90186142Y-48982380D02*
X90519476Y-49982380D01*
X90852809Y-48982380D01*
X91090904Y-48982380D02*
X91709952Y-48982380D01*
X91376619Y-49363333D01*
X91519476Y-49363333D01*
X91614714Y-49410952D01*
X91662333Y-49458571D01*
X91709952Y-49553809D01*
X91709952Y-49791904D01*
X91662333Y-49887142D01*
X91614714Y-49934761D01*
X91519476Y-49982380D01*
X91233761Y-49982380D01*
X91138523Y-49934761D01*
X91090904Y-49887142D01*
X91900428Y-50077619D02*
X92662333Y-50077619D01*
X93376619Y-49982380D02*
X92900428Y-49982380D01*
X92900428Y-48982380D01*
X93709952Y-49982380D02*
X93709952Y-48982380D01*
X93948047Y-48982380D01*
X94090904Y-49030000D01*
X94186142Y-49125238D01*
X94233761Y-49220476D01*
X94281380Y-49410952D01*
X94281380Y-49553809D01*
X94233761Y-49744285D01*
X94186142Y-49839523D01*
X94090904Y-49934761D01*
X93948047Y-49982380D01*
X93709952Y-49982380D01*
X94900428Y-48982380D02*
X95090904Y-48982380D01*
X95186142Y-49030000D01*
X95281380Y-49125238D01*
X95329000Y-49315714D01*
X95329000Y-49649047D01*
X95281380Y-49839523D01*
X95186142Y-49934761D01*
X95090904Y-49982380D01*
X94900428Y-49982380D01*
X94805190Y-49934761D01*
X94709952Y-49839523D01*
X94662333Y-49649047D01*
X94662333Y-49315714D01*
X94709952Y-49125238D01*
X94805190Y-49030000D01*
X94900428Y-48982380D01*
X59158380Y-57618380D02*
X59158380Y-58332666D01*
X59110761Y-58475523D01*
X59015523Y-58570761D01*
X58872666Y-58618380D01*
X58777428Y-58618380D01*
X59777428Y-58618380D02*
X59682190Y-58570761D01*
X59634571Y-58523142D01*
X59586952Y-58427904D01*
X59586952Y-58142190D01*
X59634571Y-58046952D01*
X59682190Y-57999333D01*
X59777428Y-57951714D01*
X59920285Y-57951714D01*
X60015523Y-57999333D01*
X60063142Y-58046952D01*
X60110761Y-58142190D01*
X60110761Y-58427904D01*
X60063142Y-58523142D01*
X60015523Y-58570761D01*
X59920285Y-58618380D01*
X59777428Y-58618380D01*
X60444095Y-57951714D02*
X60682190Y-58618380D01*
X60920285Y-57951714D02*
X60682190Y-58618380D01*
X60586952Y-58856476D01*
X60539333Y-58904095D01*
X60444095Y-58951714D01*
X62586952Y-58618380D02*
X62015523Y-58618380D01*
X62301238Y-58618380D02*
X62301238Y-57618380D01*
X62206000Y-57761238D01*
X62110761Y-57856476D01*
X62015523Y-57904095D01*
X58904380Y-26122380D02*
X58904380Y-26836666D01*
X58856761Y-26979523D01*
X58761523Y-27074761D01*
X58618666Y-27122380D01*
X58523428Y-27122380D01*
X59523428Y-27122380D02*
X59428190Y-27074761D01*
X59380571Y-27027142D01*
X59332952Y-26931904D01*
X59332952Y-26646190D01*
X59380571Y-26550952D01*
X59428190Y-26503333D01*
X59523428Y-26455714D01*
X59666285Y-26455714D01*
X59761523Y-26503333D01*
X59809142Y-26550952D01*
X59856761Y-26646190D01*
X59856761Y-26931904D01*
X59809142Y-27027142D01*
X59761523Y-27074761D01*
X59666285Y-27122380D01*
X59523428Y-27122380D01*
X60190095Y-26455714D02*
X60428190Y-27122380D01*
X60666285Y-26455714D02*
X60428190Y-27122380D01*
X60332952Y-27360476D01*
X60285333Y-27408095D01*
X60190095Y-27455714D01*
X61999619Y-26122380D02*
X62094857Y-26122380D01*
X62190095Y-26170000D01*
X62237714Y-26217619D01*
X62285333Y-26312857D01*
X62332952Y-26503333D01*
X62332952Y-26741428D01*
X62285333Y-26931904D01*
X62237714Y-27027142D01*
X62190095Y-27074761D01*
X62094857Y-27122380D01*
X61999619Y-27122380D01*
X61904380Y-27074761D01*
X61856761Y-27027142D01*
X61809142Y-26931904D01*
X61761523Y-26741428D01*
X61761523Y-26503333D01*
X61809142Y-26312857D01*
X61856761Y-26217619D01*
X61904380Y-26170000D01*
X61999619Y-26122380D01*
X90463904Y-36965380D02*
X90463904Y-35965380D01*
X90844857Y-35965380D01*
X90940095Y-36013000D01*
X90987714Y-36060619D01*
X91035333Y-36155857D01*
X91035333Y-36298714D01*
X90987714Y-36393952D01*
X90940095Y-36441571D01*
X90844857Y-36489190D01*
X90463904Y-36489190D01*
X91416285Y-36917761D02*
X91559142Y-36965380D01*
X91797238Y-36965380D01*
X91892476Y-36917761D01*
X91940095Y-36870142D01*
X91987714Y-36774904D01*
X91987714Y-36679666D01*
X91940095Y-36584428D01*
X91892476Y-36536809D01*
X91797238Y-36489190D01*
X91606761Y-36441571D01*
X91511523Y-36393952D01*
X91463904Y-36346333D01*
X91416285Y-36251095D01*
X91416285Y-36155857D01*
X91463904Y-36060619D01*
X91511523Y-36013000D01*
X91606761Y-35965380D01*
X91844857Y-35965380D01*
X91987714Y-36013000D01*
X93130571Y-35917761D02*
X92273428Y-37203476D01*
X93416285Y-36060619D02*
X93463904Y-36013000D01*
X93559142Y-35965380D01*
X93797238Y-35965380D01*
X93892476Y-36013000D01*
X93940095Y-36060619D01*
X93987714Y-36155857D01*
X93987714Y-36251095D01*
X93940095Y-36393952D01*
X93368666Y-36965380D01*
X93987714Y-36965380D01*
X86773428Y-38615380D02*
X86773428Y-37615380D01*
X87344857Y-38615380D02*
X86916285Y-38043952D01*
X87344857Y-37615380D02*
X86773428Y-38186809D01*
X88154380Y-38567761D02*
X88059142Y-38615380D01*
X87868666Y-38615380D01*
X87773428Y-38567761D01*
X87725809Y-38472523D01*
X87725809Y-38091571D01*
X87773428Y-37996333D01*
X87868666Y-37948714D01*
X88059142Y-37948714D01*
X88154380Y-37996333D01*
X88202000Y-38091571D01*
X88202000Y-38186809D01*
X87725809Y-38282047D01*
X88535333Y-37948714D02*
X88773428Y-38615380D01*
X89011523Y-37948714D02*
X88773428Y-38615380D01*
X88678190Y-38853476D01*
X88630571Y-38901095D01*
X88535333Y-38948714D01*
X89392476Y-38615380D02*
X89392476Y-37615380D01*
X89392476Y-37996333D02*
X89487714Y-37948714D01*
X89678190Y-37948714D01*
X89773428Y-37996333D01*
X89821047Y-38043952D01*
X89868666Y-38139190D01*
X89868666Y-38424904D01*
X89821047Y-38520142D01*
X89773428Y-38567761D01*
X89678190Y-38615380D01*
X89487714Y-38615380D01*
X89392476Y-38567761D01*
X90440095Y-38615380D02*
X90344857Y-38567761D01*
X90297238Y-38520142D01*
X90249619Y-38424904D01*
X90249619Y-38139190D01*
X90297238Y-38043952D01*
X90344857Y-37996333D01*
X90440095Y-37948714D01*
X90582952Y-37948714D01*
X90678190Y-37996333D01*
X90725809Y-38043952D01*
X90773428Y-38139190D01*
X90773428Y-38424904D01*
X90725809Y-38520142D01*
X90678190Y-38567761D01*
X90582952Y-38615380D01*
X90440095Y-38615380D01*
X91630571Y-38615380D02*
X91630571Y-38091571D01*
X91582952Y-37996333D01*
X91487714Y-37948714D01*
X91297238Y-37948714D01*
X91202000Y-37996333D01*
X91630571Y-38567761D02*
X91535333Y-38615380D01*
X91297238Y-38615380D01*
X91202000Y-38567761D01*
X91154380Y-38472523D01*
X91154380Y-38377285D01*
X91202000Y-38282047D01*
X91297238Y-38234428D01*
X91535333Y-38234428D01*
X91630571Y-38186809D01*
X92106761Y-38615380D02*
X92106761Y-37948714D01*
X92106761Y-38139190D02*
X92154380Y-38043952D01*
X92202000Y-37996333D01*
X92297238Y-37948714D01*
X92392476Y-37948714D01*
X93154380Y-38615380D02*
X93154380Y-37615380D01*
X93154380Y-38567761D02*
X93059142Y-38615380D01*
X92868666Y-38615380D01*
X92773428Y-38567761D01*
X92725809Y-38520142D01*
X92678190Y-38424904D01*
X92678190Y-38139190D01*
X92725809Y-38043952D01*
X92773428Y-37996333D01*
X92868666Y-37948714D01*
X93059142Y-37948714D01*
X93154380Y-37996333D01*
X94582952Y-37615380D02*
X94773428Y-37615380D01*
X94868666Y-37663000D01*
X94963904Y-37758238D01*
X95011523Y-37948714D01*
X95011523Y-38282047D01*
X94963904Y-38472523D01*
X94868666Y-38567761D01*
X94773428Y-38615380D01*
X94582952Y-38615380D01*
X94487714Y-38567761D01*
X94392476Y-38472523D01*
X94344857Y-38282047D01*
X94344857Y-37948714D01*
X94392476Y-37758238D01*
X94487714Y-37663000D01*
X94582952Y-37615380D01*
X95440095Y-37948714D02*
X95440095Y-38615380D01*
X95440095Y-38043952D02*
X95487714Y-37996333D01*
X95582952Y-37948714D01*
X95725809Y-37948714D01*
X95821047Y-37996333D01*
X95868666Y-38091571D01*
X95868666Y-38615380D01*
X96487714Y-38615380D02*
X96392476Y-38567761D01*
X96344857Y-38472523D01*
X96344857Y-37615380D01*
X96773428Y-37948714D02*
X97011523Y-38615380D01*
X97249619Y-37948714D02*
X97011523Y-38615380D01*
X96916285Y-38853476D01*
X96868666Y-38901095D01*
X96773428Y-38948714D01*
X97630571Y-38520142D02*
X97678190Y-38567761D01*
X97630571Y-38615380D01*
X97582952Y-38567761D01*
X97630571Y-38520142D01*
X97630571Y-38615380D01*
X97630571Y-38234428D02*
X97582952Y-37663000D01*
X97630571Y-37615380D01*
X97678190Y-37663000D01*
X97630571Y-38234428D01*
X97630571Y-37615380D01*
X78914857Y-36901380D02*
X78914857Y-35901380D01*
X79295809Y-35901380D01*
X79391047Y-35949000D01*
X79438666Y-35996619D01*
X79486285Y-36091857D01*
X79486285Y-36234714D01*
X79438666Y-36329952D01*
X79391047Y-36377571D01*
X79295809Y-36425190D01*
X78914857Y-36425190D01*
X79914857Y-36901380D02*
X79914857Y-35901380D01*
X80248190Y-36615666D01*
X80581523Y-35901380D01*
X80581523Y-36901380D01*
X81248190Y-35901380D02*
X81438666Y-35901380D01*
X81533904Y-35949000D01*
X81629142Y-36044238D01*
X81676761Y-36234714D01*
X81676761Y-36568047D01*
X81629142Y-36758523D01*
X81533904Y-36853761D01*
X81438666Y-36901380D01*
X81248190Y-36901380D01*
X81152952Y-36853761D01*
X81057714Y-36758523D01*
X81010095Y-36568047D01*
X81010095Y-36234714D01*
X81057714Y-36044238D01*
X81152952Y-35949000D01*
X81248190Y-35901380D01*
X82105333Y-36901380D02*
X82105333Y-35901380D01*
X82343428Y-35901380D01*
X82486285Y-35949000D01*
X82581523Y-36044238D01*
X82629142Y-36139476D01*
X82676761Y-36329952D01*
X82676761Y-36472809D01*
X82629142Y-36663285D01*
X82581523Y-36758523D01*
X82486285Y-36853761D01*
X82343428Y-36901380D01*
X82105333Y-36901380D01*
D11*
%TO.C,J8*%
X95063000Y-79689000D02*
X97723000Y-79689000D01*
X95063000Y-66929000D02*
X95063000Y-79689000D01*
X97723000Y-66929000D02*
X97723000Y-79689000D01*
X95063000Y-66929000D02*
X97723000Y-66929000D01*
X95063000Y-65659000D02*
X95063000Y-64329000D01*
X95063000Y-64329000D02*
X96393000Y-64329000D01*
%TO.C,C19*%
X83618000Y-46099252D02*
X83618000Y-45576748D01*
X85038000Y-46099252D02*
X85038000Y-45576748D01*
%TO.C,C18*%
X72696000Y-48281252D02*
X72696000Y-47758748D01*
X74116000Y-48281252D02*
X74116000Y-47758748D01*
%TO.C,U4*%
X80675000Y-50019000D02*
X80675000Y-48759000D01*
X80675000Y-43199000D02*
X80675000Y-44459000D01*
X76915000Y-50019000D02*
X80675000Y-50019000D01*
X74665000Y-43199000D02*
X80675000Y-43199000D01*
%TO.C,J7*%
X85919000Y-50733000D02*
X88579000Y-50733000D01*
X85919000Y-45593000D02*
X85919000Y-50733000D01*
X88579000Y-45593000D02*
X88579000Y-50733000D01*
X85919000Y-45593000D02*
X88579000Y-45593000D01*
X85919000Y-44323000D02*
X85919000Y-42993000D01*
X85919000Y-42993000D02*
X87249000Y-42993000D01*
D12*
%TO.C,J4*%
X43545000Y-24019000D02*
X58325000Y-24019000D01*
X58325000Y-24019000D02*
X58325000Y-54819000D01*
X58325000Y-54819000D02*
X43545000Y-54819000D01*
X43545000Y-54819000D02*
X43545000Y-47879000D01*
X43545000Y-47879000D02*
X43545000Y-30959000D01*
X43545000Y-30959000D02*
X43545000Y-24019000D01*
D13*
X58833000Y-33923000D02*
G75*
G03*
X58833000Y-33923000I-100000J0D01*
G01*
D11*
%TO.C,R14*%
X60609267Y-73531000D02*
X60266733Y-73531000D01*
X60609267Y-74551000D02*
X60266733Y-74551000D01*
D12*
%TO.C,J6*%
X43545000Y-55756000D02*
X58325000Y-55756000D01*
X58325000Y-55756000D02*
X58325000Y-86556000D01*
X58325000Y-86556000D02*
X43545000Y-86556000D01*
X43545000Y-86556000D02*
X43545000Y-79616000D01*
X43545000Y-79616000D02*
X43545000Y-62696000D01*
X43545000Y-62696000D02*
X43545000Y-55756000D01*
D13*
X58833000Y-65660000D02*
G75*
G03*
X58833000Y-65660000I-100000J0D01*
G01*
D11*
%TO.C,R32*%
X60609267Y-59815000D02*
X60266733Y-59815000D01*
X60609267Y-60835000D02*
X60266733Y-60835000D01*
%TO.C,R31*%
X60609267Y-31494000D02*
X60266733Y-31494000D01*
X60609267Y-32514000D02*
X60266733Y-32514000D01*
%TO.C,R30*%
X60609267Y-62863000D02*
X60266733Y-62863000D01*
X60609267Y-63883000D02*
X60266733Y-63883000D01*
%TO.C,R29*%
X60609267Y-34542000D02*
X60266733Y-34542000D01*
X60609267Y-35562000D02*
X60266733Y-35562000D01*
%TO.C,R28*%
X60609267Y-65911000D02*
X60266733Y-65911000D01*
X60609267Y-66931000D02*
X60266733Y-66931000D01*
%TO.C,R27*%
X60609267Y-37590000D02*
X60266733Y-37590000D01*
X60609267Y-38610000D02*
X60266733Y-38610000D01*
%TO.C,R26*%
X60609267Y-68959000D02*
X60266733Y-68959000D01*
X60609267Y-69979000D02*
X60266733Y-69979000D01*
%TO.C,R25*%
X60609267Y-40638000D02*
X60266733Y-40638000D01*
X60609267Y-41658000D02*
X60266733Y-41658000D01*
%TO.C,R24*%
X60609267Y-72007000D02*
X60266733Y-72007000D01*
X60609267Y-73027000D02*
X60266733Y-73027000D01*
%TO.C,R23*%
X60609267Y-43686000D02*
X60266733Y-43686000D01*
X60609267Y-44706000D02*
X60266733Y-44706000D01*
%TO.C,R22*%
X60609267Y-75055000D02*
X60266733Y-75055000D01*
X60609267Y-76075000D02*
X60266733Y-76075000D01*
%TO.C,R21*%
X60609267Y-46734000D02*
X60266733Y-46734000D01*
X60609267Y-47754000D02*
X60266733Y-47754000D01*
%TO.C,R20*%
X60609267Y-78103000D02*
X60266733Y-78103000D01*
X60609267Y-79123000D02*
X60266733Y-79123000D01*
%TO.C,R19*%
X60609267Y-49782000D02*
X60266733Y-49782000D01*
X60609267Y-50802000D02*
X60266733Y-50802000D01*
%TO.C,R18*%
X60609267Y-61339000D02*
X60266733Y-61339000D01*
X60609267Y-62359000D02*
X60266733Y-62359000D01*
%TO.C,R17*%
X60609267Y-64387000D02*
X60266733Y-64387000D01*
X60609267Y-65407000D02*
X60266733Y-65407000D01*
%TO.C,R16*%
X60609267Y-67435000D02*
X60266733Y-67435000D01*
X60609267Y-68455000D02*
X60266733Y-68455000D01*
%TO.C,R15*%
X60609267Y-70483000D02*
X60266733Y-70483000D01*
X60609267Y-71503000D02*
X60266733Y-71503000D01*
%TO.C,R13*%
X60609267Y-76579000D02*
X60266733Y-76579000D01*
X60609267Y-77599000D02*
X60266733Y-77599000D01*
%TO.C,R12*%
X60609267Y-79627000D02*
X60266733Y-79627000D01*
X60609267Y-80647000D02*
X60266733Y-80647000D01*
%TO.C,R11*%
X60609267Y-33018000D02*
X60266733Y-33018000D01*
X60609267Y-34038000D02*
X60266733Y-34038000D01*
%TO.C,R10*%
X60609267Y-36066000D02*
X60266733Y-36066000D01*
X60609267Y-37086000D02*
X60266733Y-37086000D01*
%TO.C,R9*%
X60609267Y-39114000D02*
X60266733Y-39114000D01*
X60609267Y-40134000D02*
X60266733Y-40134000D01*
%TO.C,R8*%
X60609267Y-42162000D02*
X60266733Y-42162000D01*
X60609267Y-43182000D02*
X60266733Y-43182000D01*
%TO.C,R7*%
X60609267Y-45210000D02*
X60266733Y-45210000D01*
X60609267Y-46230000D02*
X60266733Y-46230000D01*
%TO.C,R6*%
X60609267Y-48258000D02*
X60266733Y-48258000D01*
X60609267Y-49278000D02*
X60266733Y-49278000D01*
%TO.C,R5*%
X60609267Y-51306000D02*
X60266733Y-51306000D01*
X60609267Y-52326000D02*
X60266733Y-52326000D01*
%TO.C,R4*%
X118246267Y-30410000D02*
X117903733Y-30410000D01*
X118246267Y-29390000D02*
X117903733Y-29390000D01*
%TO.C,R3*%
X118246267Y-31910000D02*
X117903733Y-31910000D01*
X118246267Y-30890000D02*
X117903733Y-30890000D01*
%TO.C,R2*%
X117903733Y-27890000D02*
X118246267Y-27890000D01*
X117903733Y-28910000D02*
X118246267Y-28910000D01*
%TO.C,R1*%
X117903733Y-32390000D02*
X118246267Y-32390000D01*
X117903733Y-33410000D02*
X118246267Y-33410000D01*
%TO.C,J5*%
X92375300Y-30819089D02*
X92375300Y-35038200D01*
X106624700Y-27780911D02*
X106624700Y-21373000D01*
X92375300Y-35038200D02*
X106624700Y-35038200D01*
X106624700Y-35038200D02*
X106624700Y-30819089D01*
X106624700Y-21373000D02*
X92375300Y-21373000D01*
X92375300Y-21373000D02*
X92375300Y-27780911D01*
X99373000Y-21627000D02*
X99627000Y-21627000D01*
X99627000Y-21627000D02*
X99627000Y-21373000D01*
X99627000Y-21373000D02*
X99373000Y-21373000D01*
X99373000Y-21373000D02*
X99373000Y-21627000D01*
%TO.C,U2*%
X103187500Y-82905600D02*
X113728500Y-82905600D01*
X113728500Y-82905600D02*
X113728500Y-82614740D01*
X113728500Y-60350400D02*
X103187500Y-60350400D01*
X103187500Y-60350400D02*
X103187500Y-60641260D01*
X103187500Y-82614740D02*
X103187500Y-82905600D01*
X113728500Y-60641260D02*
X113728500Y-60350400D01*
D14*
G36*
X101612700Y-68237499D02*
G01*
X101612700Y-68618499D01*
X101866700Y-68618499D01*
X101866700Y-68237499D01*
X101612700Y-68237499D01*
G37*
X101612700Y-68237499D02*
X101612700Y-68618499D01*
X101866700Y-68618499D01*
X101866700Y-68237499D01*
X101612700Y-68237499D01*
G36*
X101612700Y-76237498D02*
G01*
X101612700Y-76618498D01*
X101866700Y-76618498D01*
X101866700Y-76237498D01*
X101612700Y-76237498D01*
G37*
X101612700Y-76237498D02*
X101612700Y-76618498D01*
X101866700Y-76618498D01*
X101866700Y-76237498D01*
X101612700Y-76237498D01*
G36*
X115303300Y-80237500D02*
G01*
X115303300Y-80618500D01*
X115049300Y-80618500D01*
X115049300Y-80237500D01*
X115303300Y-80237500D01*
G37*
X115303300Y-80237500D02*
X115303300Y-80618500D01*
X115049300Y-80618500D01*
X115049300Y-80237500D01*
X115303300Y-80237500D01*
G36*
X115303300Y-72237501D02*
G01*
X115303300Y-72618501D01*
X115049300Y-72618501D01*
X115049300Y-72237501D01*
X115303300Y-72237501D01*
G37*
X115303300Y-72237501D02*
X115303300Y-72618501D01*
X115049300Y-72618501D01*
X115049300Y-72237501D01*
X115303300Y-72237501D01*
G36*
X115303300Y-64237502D02*
G01*
X115303300Y-64618502D01*
X115049300Y-64618502D01*
X115049300Y-64237502D01*
X115303300Y-64237502D01*
G37*
X115303300Y-64237502D02*
X115303300Y-64618502D01*
X115049300Y-64618502D01*
X115049300Y-64237502D01*
X115303300Y-64237502D01*
D11*
%TO.C,U1*%
X103187500Y-58267600D02*
X113728500Y-58267600D01*
X113728500Y-58267600D02*
X113728500Y-57976740D01*
X113728500Y-35712400D02*
X103187500Y-35712400D01*
X103187500Y-35712400D02*
X103187500Y-36003260D01*
X103187500Y-57976740D02*
X103187500Y-58267600D01*
X113728500Y-36003260D02*
X113728500Y-35712400D01*
D14*
G36*
X101612700Y-43599499D02*
G01*
X101612700Y-43980499D01*
X101866700Y-43980499D01*
X101866700Y-43599499D01*
X101612700Y-43599499D01*
G37*
X101612700Y-43599499D02*
X101612700Y-43980499D01*
X101866700Y-43980499D01*
X101866700Y-43599499D01*
X101612700Y-43599499D01*
G36*
X101612700Y-51599498D02*
G01*
X101612700Y-51980498D01*
X101866700Y-51980498D01*
X101866700Y-51599498D01*
X101612700Y-51599498D01*
G37*
X101612700Y-51599498D02*
X101612700Y-51980498D01*
X101866700Y-51980498D01*
X101866700Y-51599498D01*
X101612700Y-51599498D01*
G36*
X115303300Y-55599500D02*
G01*
X115303300Y-55980500D01*
X115049300Y-55980500D01*
X115049300Y-55599500D01*
X115303300Y-55599500D01*
G37*
X115303300Y-55599500D02*
X115303300Y-55980500D01*
X115049300Y-55980500D01*
X115049300Y-55599500D01*
X115303300Y-55599500D01*
G36*
X115303300Y-47599501D02*
G01*
X115303300Y-47980501D01*
X115049300Y-47980501D01*
X115049300Y-47599501D01*
X115303300Y-47599501D01*
G37*
X115303300Y-47599501D02*
X115303300Y-47980501D01*
X115049300Y-47980501D01*
X115049300Y-47599501D01*
X115303300Y-47599501D01*
G36*
X115303300Y-39599502D02*
G01*
X115303300Y-39980502D01*
X115049300Y-39980502D01*
X115049300Y-39599502D01*
X115303300Y-39599502D01*
G37*
X115303300Y-39599502D02*
X115303300Y-39980502D01*
X115049300Y-39980502D01*
X115049300Y-39599502D01*
X115303300Y-39599502D01*
D11*
%TO.C,C5*%
X100582000Y-66903733D02*
X100582000Y-67246267D01*
X101602000Y-66903733D02*
X101602000Y-67246267D01*
%TO.C,U3*%
X96434000Y-48376000D02*
X96434000Y-50176000D01*
X99654000Y-50176000D02*
X99654000Y-47726000D01*
%TO.C,C17*%
X100134267Y-61470000D02*
X99791733Y-61470000D01*
X100134267Y-60450000D02*
X99791733Y-60450000D01*
%TO.C,C16*%
X115568000Y-48544267D02*
X115568000Y-48201733D01*
X116588000Y-48544267D02*
X116588000Y-48201733D01*
%TO.C,C15*%
X108681733Y-32510000D02*
X109024267Y-32510000D01*
X108681733Y-33530000D02*
X109024267Y-33530000D01*
%TO.C,J2*%
X120270000Y-24070000D02*
X121600000Y-24070000D01*
X120270000Y-25400000D02*
X120270000Y-24070000D01*
X122870000Y-24070000D02*
X125470000Y-24070000D01*
X122870000Y-26670000D02*
X122870000Y-24070000D01*
X120270000Y-26670000D02*
X122870000Y-26670000D01*
X125470000Y-24070000D02*
X125470000Y-82610000D01*
X120270000Y-26670000D02*
X120270000Y-82610000D01*
X120270000Y-82610000D02*
X125470000Y-82610000D01*
%TO.C,C14*%
X116334000Y-69118267D02*
X116334000Y-68775733D01*
X115314000Y-69118267D02*
X115314000Y-68775733D01*
%TO.C,C13*%
X116588000Y-39682267D02*
X116588000Y-39339733D01*
X115568000Y-39682267D02*
X115568000Y-39339733D01*
%TO.C,C12*%
X116588000Y-44226267D02*
X116588000Y-43883733D01*
X115568000Y-44226267D02*
X115568000Y-43883733D01*
%TO.C,C11*%
X100328000Y-38503733D02*
X100328000Y-38846267D01*
X101348000Y-38503733D02*
X101348000Y-38846267D01*
%TO.C,C10*%
X101348000Y-45646267D02*
X101348000Y-45303733D01*
X100328000Y-45646267D02*
X100328000Y-45303733D01*
%TO.C,C9*%
X100582000Y-58389733D02*
X100582000Y-58732267D01*
X101602000Y-58389733D02*
X101602000Y-58732267D01*
%TO.C,C8*%
X108681733Y-35054000D02*
X109024267Y-35054000D01*
X108681733Y-34034000D02*
X109024267Y-34034000D01*
%TO.C,C7*%
X100582000Y-63441733D02*
X100582000Y-63784267D01*
X101602000Y-63441733D02*
X101602000Y-63784267D01*
%TO.C,C6*%
X101348000Y-42246267D02*
X101348000Y-41903733D01*
X100328000Y-42246267D02*
X100328000Y-41903733D01*
%TO.C,C4*%
X101602000Y-70646267D02*
X101602000Y-70303733D01*
X100582000Y-70646267D02*
X100582000Y-70303733D01*
%TO.C,C3*%
X107919733Y-84330000D02*
X108262267Y-84330000D01*
X107919733Y-83310000D02*
X108262267Y-83310000D01*
%TO.C,C2*%
X116334000Y-64038267D02*
X116334000Y-63695733D01*
X115314000Y-64038267D02*
X115314000Y-63695733D01*
%TO.C,C1*%
X116334000Y-73436267D02*
X116334000Y-73093733D01*
X115314000Y-73436267D02*
X115314000Y-73093733D01*
%TO.C,J3*%
X64710000Y-82610000D02*
X69910000Y-82610000D01*
X64710000Y-26670000D02*
X64710000Y-82610000D01*
X69910000Y-24070000D02*
X69910000Y-82610000D01*
X64710000Y-26670000D02*
X67310000Y-26670000D01*
X67310000Y-26670000D02*
X67310000Y-24070000D01*
X67310000Y-24070000D02*
X69910000Y-24070000D01*
X64710000Y-25400000D02*
X64710000Y-24070000D01*
X64710000Y-24070000D02*
X66040000Y-24070000D01*
%TO.C,J1*%
X73533000Y-33909000D02*
X73533000Y-35019000D01*
X74863000Y-35052000D02*
X73533000Y-35052000D01*
X88833000Y-21279000D02*
X73473000Y-21279000D01*
X73473000Y-21279000D02*
X73473000Y-29909000D01*
X88833000Y-29909000D02*
X73473000Y-29909000D01*
X88833000Y-21279000D02*
X88833000Y-29909000D01*
X76073000Y-21279000D02*
X76073000Y-29909000D01*
X78613000Y-21279000D02*
X78613000Y-29909000D01*
X81153000Y-21279000D02*
X81153000Y-29909000D01*
X83693000Y-21279000D02*
X83693000Y-29909000D01*
X86233000Y-21279000D02*
X86233000Y-29909000D01*
X74443000Y-32419000D02*
X74443000Y-32859000D01*
X74443000Y-29909000D02*
X74443000Y-30319000D01*
X75163000Y-32419000D02*
X75163000Y-32859000D01*
X75163000Y-29909000D02*
X75163000Y-30319000D01*
X76983000Y-32419000D02*
X76983000Y-32859000D01*
X76983000Y-29909000D02*
X76983000Y-30319000D01*
X77703000Y-32419000D02*
X77703000Y-32859000D01*
X77703000Y-29909000D02*
X77703000Y-30319000D01*
X79523000Y-32419000D02*
X79523000Y-32859000D01*
X79523000Y-29909000D02*
X79523000Y-30319000D01*
X80243000Y-32419000D02*
X80243000Y-32859000D01*
X80243000Y-29909000D02*
X80243000Y-30319000D01*
X82063000Y-32419000D02*
X82063000Y-32859000D01*
X82063000Y-29909000D02*
X82063000Y-30319000D01*
X82783000Y-32419000D02*
X82783000Y-32859000D01*
X82783000Y-29909000D02*
X82783000Y-30319000D01*
X84603000Y-32419000D02*
X84603000Y-32859000D01*
X84603000Y-29909000D02*
X84603000Y-30319000D01*
X85323000Y-32419000D02*
X85323000Y-32859000D01*
X85323000Y-29909000D02*
X85323000Y-30319000D01*
X87143000Y-32419000D02*
X87143000Y-32799000D01*
X87143000Y-29909000D02*
X87143000Y-30319000D01*
X87863000Y-32419000D02*
X87863000Y-32799000D01*
X87863000Y-29909000D02*
X87863000Y-30319000D01*
X86351100Y-21279000D02*
X86351100Y-29909000D01*
X86469195Y-21279000D02*
X86469195Y-29909000D01*
X86587290Y-21279000D02*
X86587290Y-29909000D01*
X86705385Y-21279000D02*
X86705385Y-29909000D01*
X86823480Y-21279000D02*
X86823480Y-29909000D01*
X86941575Y-21279000D02*
X86941575Y-29909000D01*
X87059670Y-21279000D02*
X87059670Y-29909000D01*
X87177765Y-21279000D02*
X87177765Y-29909000D01*
X87295860Y-21279000D02*
X87295860Y-29909000D01*
X87413955Y-21279000D02*
X87413955Y-29909000D01*
X87532050Y-21279000D02*
X87532050Y-29909000D01*
X87650145Y-21279000D02*
X87650145Y-29909000D01*
X87768240Y-21279000D02*
X87768240Y-29909000D01*
X87886335Y-21279000D02*
X87886335Y-29909000D01*
X88004430Y-21279000D02*
X88004430Y-29909000D01*
X88122525Y-21279000D02*
X88122525Y-29909000D01*
X88240620Y-21279000D02*
X88240620Y-29909000D01*
X88358715Y-21279000D02*
X88358715Y-29909000D01*
X88476810Y-21279000D02*
X88476810Y-29909000D01*
X88594905Y-21279000D02*
X88594905Y-29909000D01*
X88713000Y-21279000D02*
X88713000Y-29909000D01*
%TO.C,J8*%
D10*
X96059666Y-62781380D02*
X96059666Y-63495666D01*
X96012047Y-63638523D01*
X95916809Y-63733761D01*
X95773952Y-63781380D01*
X95678714Y-63781380D01*
X96678714Y-63209952D02*
X96583476Y-63162333D01*
X96535857Y-63114714D01*
X96488238Y-63019476D01*
X96488238Y-62971857D01*
X96535857Y-62876619D01*
X96583476Y-62829000D01*
X96678714Y-62781380D01*
X96869190Y-62781380D01*
X96964428Y-62829000D01*
X97012047Y-62876619D01*
X97059666Y-62971857D01*
X97059666Y-63019476D01*
X97012047Y-63114714D01*
X96964428Y-63162333D01*
X96869190Y-63209952D01*
X96678714Y-63209952D01*
X96583476Y-63257571D01*
X96535857Y-63305190D01*
X96488238Y-63400428D01*
X96488238Y-63590904D01*
X96535857Y-63686142D01*
X96583476Y-63733761D01*
X96678714Y-63781380D01*
X96869190Y-63781380D01*
X96964428Y-63733761D01*
X97012047Y-63686142D01*
X97059666Y-63590904D01*
X97059666Y-63400428D01*
X97012047Y-63305190D01*
X96964428Y-63257571D01*
X96869190Y-63209952D01*
%TO.C,C19*%
X84685142Y-49791857D02*
X84732761Y-49839476D01*
X84780380Y-49982333D01*
X84780380Y-50077571D01*
X84732761Y-50220428D01*
X84637523Y-50315666D01*
X84542285Y-50363285D01*
X84351809Y-50410904D01*
X84208952Y-50410904D01*
X84018476Y-50363285D01*
X83923238Y-50315666D01*
X83828000Y-50220428D01*
X83780380Y-50077571D01*
X83780380Y-49982333D01*
X83828000Y-49839476D01*
X83875619Y-49791857D01*
X84780380Y-48839476D02*
X84780380Y-49410904D01*
X84780380Y-49125190D02*
X83780380Y-49125190D01*
X83923238Y-49220428D01*
X84018476Y-49315666D01*
X84066095Y-49410904D01*
X84780380Y-48363285D02*
X84780380Y-48172809D01*
X84732761Y-48077571D01*
X84685142Y-48029952D01*
X84542285Y-47934714D01*
X84351809Y-47887095D01*
X83970857Y-47887095D01*
X83875619Y-47934714D01*
X83828000Y-47982333D01*
X83780380Y-48077571D01*
X83780380Y-48268047D01*
X83828000Y-48363285D01*
X83875619Y-48410904D01*
X83970857Y-48458523D01*
X84208952Y-48458523D01*
X84304190Y-48410904D01*
X84351809Y-48363285D01*
X84399428Y-48268047D01*
X84399428Y-48077571D01*
X84351809Y-47982333D01*
X84304190Y-47934714D01*
X84208952Y-47887095D01*
%TO.C,C18*%
X73763142Y-45219857D02*
X73810761Y-45267476D01*
X73858380Y-45410333D01*
X73858380Y-45505571D01*
X73810761Y-45648428D01*
X73715523Y-45743666D01*
X73620285Y-45791285D01*
X73429809Y-45838904D01*
X73286952Y-45838904D01*
X73096476Y-45791285D01*
X73001238Y-45743666D01*
X72906000Y-45648428D01*
X72858380Y-45505571D01*
X72858380Y-45410333D01*
X72906000Y-45267476D01*
X72953619Y-45219857D01*
X73858380Y-44267476D02*
X73858380Y-44838904D01*
X73858380Y-44553190D02*
X72858380Y-44553190D01*
X73001238Y-44648428D01*
X73096476Y-44743666D01*
X73144095Y-44838904D01*
X73286952Y-43696047D02*
X73239333Y-43791285D01*
X73191714Y-43838904D01*
X73096476Y-43886523D01*
X73048857Y-43886523D01*
X72953619Y-43838904D01*
X72906000Y-43791285D01*
X72858380Y-43696047D01*
X72858380Y-43505571D01*
X72906000Y-43410333D01*
X72953619Y-43362714D01*
X73048857Y-43315095D01*
X73096476Y-43315095D01*
X73191714Y-43362714D01*
X73239333Y-43410333D01*
X73286952Y-43505571D01*
X73286952Y-43696047D01*
X73334571Y-43791285D01*
X73382190Y-43838904D01*
X73477428Y-43886523D01*
X73667904Y-43886523D01*
X73763142Y-43838904D01*
X73810761Y-43791285D01*
X73858380Y-43696047D01*
X73858380Y-43505571D01*
X73810761Y-43410333D01*
X73763142Y-43362714D01*
X73667904Y-43315095D01*
X73477428Y-43315095D01*
X73382190Y-43362714D01*
X73334571Y-43410333D01*
X73286952Y-43505571D01*
%TO.C,U4*%
X78003095Y-41561380D02*
X78003095Y-42370904D01*
X78050714Y-42466142D01*
X78098333Y-42513761D01*
X78193571Y-42561380D01*
X78384047Y-42561380D01*
X78479285Y-42513761D01*
X78526904Y-42466142D01*
X78574523Y-42370904D01*
X78574523Y-41561380D01*
X79479285Y-41894714D02*
X79479285Y-42561380D01*
X79241190Y-41513761D02*
X79003095Y-42228047D01*
X79622142Y-42228047D01*
%TO.C,J7*%
X86915666Y-41445380D02*
X86915666Y-42159666D01*
X86868047Y-42302523D01*
X86772809Y-42397761D01*
X86629952Y-42445380D01*
X86534714Y-42445380D01*
X87296619Y-41445380D02*
X87963285Y-41445380D01*
X87534714Y-42445380D01*
%TO.C,J4*%
X58888380Y-54181333D02*
X59602666Y-54181333D01*
X59745523Y-54228952D01*
X59840761Y-54324190D01*
X59888380Y-54467047D01*
X59888380Y-54562285D01*
X59221714Y-53276571D02*
X59888380Y-53276571D01*
X58840761Y-53514666D02*
X59555047Y-53752761D01*
X59555047Y-53133714D01*
D15*
X44317654Y-41982594D02*
X45318540Y-41982594D01*
X45518717Y-42049320D01*
X45652168Y-42182771D01*
X45718894Y-42382948D01*
X45718894Y-42516400D01*
X44317654Y-41048434D02*
X44317654Y-40781531D01*
X44384380Y-40648080D01*
X44517831Y-40514628D01*
X44784734Y-40447902D01*
X45251814Y-40447902D01*
X45518717Y-40514628D01*
X45652168Y-40648080D01*
X45718894Y-40781531D01*
X45718894Y-41048434D01*
X45652168Y-41181885D01*
X45518717Y-41315337D01*
X45251814Y-41382062D01*
X44784734Y-41382062D01*
X44517831Y-41315337D01*
X44384380Y-41181885D01*
X44317654Y-41048434D01*
X45051637Y-39580468D02*
X45718894Y-39580468D01*
X44317654Y-40047548D02*
X45051637Y-39580468D01*
X44317654Y-39113388D01*
X44317654Y-38379405D02*
X44317654Y-38245954D01*
X44384380Y-38112502D01*
X44451105Y-38045777D01*
X44584557Y-37979051D01*
X44851460Y-37912325D01*
X45185088Y-37912325D01*
X45451991Y-37979051D01*
X45585442Y-38045777D01*
X45652168Y-38112502D01*
X45718894Y-38245954D01*
X45718894Y-38379405D01*
X45652168Y-38512857D01*
X45585442Y-38579582D01*
X45451991Y-38646308D01*
X45185088Y-38713034D01*
X44851460Y-38713034D01*
X44584557Y-38646308D01*
X44451105Y-38579582D01*
X44384380Y-38512857D01*
X44317654Y-38379405D01*
%TO.C,R14*%
D10*
X62730142Y-74493380D02*
X62396809Y-74017190D01*
X62158714Y-74493380D02*
X62158714Y-73493380D01*
X62539666Y-73493380D01*
X62634904Y-73541000D01*
X62682523Y-73588619D01*
X62730142Y-73683857D01*
X62730142Y-73826714D01*
X62682523Y-73921952D01*
X62634904Y-73969571D01*
X62539666Y-74017190D01*
X62158714Y-74017190D01*
X63682523Y-74493380D02*
X63111095Y-74493380D01*
X63396809Y-74493380D02*
X63396809Y-73493380D01*
X63301571Y-73636238D01*
X63206333Y-73731476D01*
X63111095Y-73779095D01*
X64539666Y-73826714D02*
X64539666Y-74493380D01*
X64301571Y-73445761D02*
X64063476Y-74160047D01*
X64682523Y-74160047D01*
%TO.C,J6*%
X58634380Y-83137333D02*
X59348666Y-83137333D01*
X59491523Y-83184952D01*
X59586761Y-83280190D01*
X59634380Y-83423047D01*
X59634380Y-83518285D01*
X58634380Y-82232571D02*
X58634380Y-82423047D01*
X58682000Y-82518285D01*
X58729619Y-82565904D01*
X58872476Y-82661142D01*
X59062952Y-82708761D01*
X59443904Y-82708761D01*
X59539142Y-82661142D01*
X59586761Y-82613523D01*
X59634380Y-82518285D01*
X59634380Y-82327809D01*
X59586761Y-82232571D01*
X59539142Y-82184952D01*
X59443904Y-82137333D01*
X59205809Y-82137333D01*
X59110571Y-82184952D01*
X59062952Y-82232571D01*
X59015333Y-82327809D01*
X59015333Y-82518285D01*
X59062952Y-82613523D01*
X59110571Y-82661142D01*
X59205809Y-82708761D01*
D15*
X44317654Y-73719594D02*
X45318540Y-73719594D01*
X45518717Y-73786320D01*
X45652168Y-73919771D01*
X45718894Y-74119948D01*
X45718894Y-74253400D01*
X44317654Y-72785434D02*
X44317654Y-72518531D01*
X44384380Y-72385080D01*
X44517831Y-72251628D01*
X44784734Y-72184902D01*
X45251814Y-72184902D01*
X45518717Y-72251628D01*
X45652168Y-72385080D01*
X45718894Y-72518531D01*
X45718894Y-72785434D01*
X45652168Y-72918885D01*
X45518717Y-73052337D01*
X45251814Y-73119062D01*
X44784734Y-73119062D01*
X44517831Y-73052337D01*
X44384380Y-72918885D01*
X44317654Y-72785434D01*
X45051637Y-71317468D02*
X45718894Y-71317468D01*
X44317654Y-71784548D02*
X45051637Y-71317468D01*
X44317654Y-70850388D01*
X45718894Y-69649325D02*
X45718894Y-70450034D01*
X45718894Y-70049680D02*
X44317654Y-70049680D01*
X44517831Y-70183131D01*
X44651282Y-70316582D01*
X44718008Y-70450034D01*
%TO.C,R32*%
D10*
X62730142Y-60904380D02*
X62396809Y-60428190D01*
X62158714Y-60904380D02*
X62158714Y-59904380D01*
X62539666Y-59904380D01*
X62634904Y-59952000D01*
X62682523Y-59999619D01*
X62730142Y-60094857D01*
X62730142Y-60237714D01*
X62682523Y-60332952D01*
X62634904Y-60380571D01*
X62539666Y-60428190D01*
X62158714Y-60428190D01*
X63063476Y-59904380D02*
X63682523Y-59904380D01*
X63349190Y-60285333D01*
X63492047Y-60285333D01*
X63587285Y-60332952D01*
X63634904Y-60380571D01*
X63682523Y-60475809D01*
X63682523Y-60713904D01*
X63634904Y-60809142D01*
X63587285Y-60856761D01*
X63492047Y-60904380D01*
X63206333Y-60904380D01*
X63111095Y-60856761D01*
X63063476Y-60809142D01*
X64063476Y-59999619D02*
X64111095Y-59952000D01*
X64206333Y-59904380D01*
X64444428Y-59904380D01*
X64539666Y-59952000D01*
X64587285Y-59999619D01*
X64634904Y-60094857D01*
X64634904Y-60190095D01*
X64587285Y-60332952D01*
X64015857Y-60904380D01*
X64634904Y-60904380D01*
%TO.C,R31*%
X62730142Y-32583380D02*
X62396809Y-32107190D01*
X62158714Y-32583380D02*
X62158714Y-31583380D01*
X62539666Y-31583380D01*
X62634904Y-31631000D01*
X62682523Y-31678619D01*
X62730142Y-31773857D01*
X62730142Y-31916714D01*
X62682523Y-32011952D01*
X62634904Y-32059571D01*
X62539666Y-32107190D01*
X62158714Y-32107190D01*
X63063476Y-31583380D02*
X63682523Y-31583380D01*
X63349190Y-31964333D01*
X63492047Y-31964333D01*
X63587285Y-32011952D01*
X63634904Y-32059571D01*
X63682523Y-32154809D01*
X63682523Y-32392904D01*
X63634904Y-32488142D01*
X63587285Y-32535761D01*
X63492047Y-32583380D01*
X63206333Y-32583380D01*
X63111095Y-32535761D01*
X63063476Y-32488142D01*
X64634904Y-32583380D02*
X64063476Y-32583380D01*
X64349190Y-32583380D02*
X64349190Y-31583380D01*
X64253952Y-31726238D01*
X64158714Y-31821476D01*
X64063476Y-31869095D01*
%TO.C,R30*%
X62730142Y-63825380D02*
X62396809Y-63349190D01*
X62158714Y-63825380D02*
X62158714Y-62825380D01*
X62539666Y-62825380D01*
X62634904Y-62873000D01*
X62682523Y-62920619D01*
X62730142Y-63015857D01*
X62730142Y-63158714D01*
X62682523Y-63253952D01*
X62634904Y-63301571D01*
X62539666Y-63349190D01*
X62158714Y-63349190D01*
X63063476Y-62825380D02*
X63682523Y-62825380D01*
X63349190Y-63206333D01*
X63492047Y-63206333D01*
X63587285Y-63253952D01*
X63634904Y-63301571D01*
X63682523Y-63396809D01*
X63682523Y-63634904D01*
X63634904Y-63730142D01*
X63587285Y-63777761D01*
X63492047Y-63825380D01*
X63206333Y-63825380D01*
X63111095Y-63777761D01*
X63063476Y-63730142D01*
X64301571Y-62825380D02*
X64396809Y-62825380D01*
X64492047Y-62873000D01*
X64539666Y-62920619D01*
X64587285Y-63015857D01*
X64634904Y-63206333D01*
X64634904Y-63444428D01*
X64587285Y-63634904D01*
X64539666Y-63730142D01*
X64492047Y-63777761D01*
X64396809Y-63825380D01*
X64301571Y-63825380D01*
X64206333Y-63777761D01*
X64158714Y-63730142D01*
X64111095Y-63634904D01*
X64063476Y-63444428D01*
X64063476Y-63206333D01*
X64111095Y-63015857D01*
X64158714Y-62920619D01*
X64206333Y-62873000D01*
X64301571Y-62825380D01*
%TO.C,R29*%
X62730142Y-35504380D02*
X62396809Y-35028190D01*
X62158714Y-35504380D02*
X62158714Y-34504380D01*
X62539666Y-34504380D01*
X62634904Y-34552000D01*
X62682523Y-34599619D01*
X62730142Y-34694857D01*
X62730142Y-34837714D01*
X62682523Y-34932952D01*
X62634904Y-34980571D01*
X62539666Y-35028190D01*
X62158714Y-35028190D01*
X63111095Y-34599619D02*
X63158714Y-34552000D01*
X63253952Y-34504380D01*
X63492047Y-34504380D01*
X63587285Y-34552000D01*
X63634904Y-34599619D01*
X63682523Y-34694857D01*
X63682523Y-34790095D01*
X63634904Y-34932952D01*
X63063476Y-35504380D01*
X63682523Y-35504380D01*
X64158714Y-35504380D02*
X64349190Y-35504380D01*
X64444428Y-35456761D01*
X64492047Y-35409142D01*
X64587285Y-35266285D01*
X64634904Y-35075809D01*
X64634904Y-34694857D01*
X64587285Y-34599619D01*
X64539666Y-34552000D01*
X64444428Y-34504380D01*
X64253952Y-34504380D01*
X64158714Y-34552000D01*
X64111095Y-34599619D01*
X64063476Y-34694857D01*
X64063476Y-34932952D01*
X64111095Y-35028190D01*
X64158714Y-35075809D01*
X64253952Y-35123428D01*
X64444428Y-35123428D01*
X64539666Y-35075809D01*
X64587285Y-35028190D01*
X64634904Y-34932952D01*
%TO.C,R28*%
X62730142Y-66873380D02*
X62396809Y-66397190D01*
X62158714Y-66873380D02*
X62158714Y-65873380D01*
X62539666Y-65873380D01*
X62634904Y-65921000D01*
X62682523Y-65968619D01*
X62730142Y-66063857D01*
X62730142Y-66206714D01*
X62682523Y-66301952D01*
X62634904Y-66349571D01*
X62539666Y-66397190D01*
X62158714Y-66397190D01*
X63111095Y-65968619D02*
X63158714Y-65921000D01*
X63253952Y-65873380D01*
X63492047Y-65873380D01*
X63587285Y-65921000D01*
X63634904Y-65968619D01*
X63682523Y-66063857D01*
X63682523Y-66159095D01*
X63634904Y-66301952D01*
X63063476Y-66873380D01*
X63682523Y-66873380D01*
X64253952Y-66301952D02*
X64158714Y-66254333D01*
X64111095Y-66206714D01*
X64063476Y-66111476D01*
X64063476Y-66063857D01*
X64111095Y-65968619D01*
X64158714Y-65921000D01*
X64253952Y-65873380D01*
X64444428Y-65873380D01*
X64539666Y-65921000D01*
X64587285Y-65968619D01*
X64634904Y-66063857D01*
X64634904Y-66111476D01*
X64587285Y-66206714D01*
X64539666Y-66254333D01*
X64444428Y-66301952D01*
X64253952Y-66301952D01*
X64158714Y-66349571D01*
X64111095Y-66397190D01*
X64063476Y-66492428D01*
X64063476Y-66682904D01*
X64111095Y-66778142D01*
X64158714Y-66825761D01*
X64253952Y-66873380D01*
X64444428Y-66873380D01*
X64539666Y-66825761D01*
X64587285Y-66778142D01*
X64634904Y-66682904D01*
X64634904Y-66492428D01*
X64587285Y-66397190D01*
X64539666Y-66349571D01*
X64444428Y-66301952D01*
%TO.C,R27*%
X62730142Y-38552380D02*
X62396809Y-38076190D01*
X62158714Y-38552380D02*
X62158714Y-37552380D01*
X62539666Y-37552380D01*
X62634904Y-37600000D01*
X62682523Y-37647619D01*
X62730142Y-37742857D01*
X62730142Y-37885714D01*
X62682523Y-37980952D01*
X62634904Y-38028571D01*
X62539666Y-38076190D01*
X62158714Y-38076190D01*
X63111095Y-37647619D02*
X63158714Y-37600000D01*
X63253952Y-37552380D01*
X63492047Y-37552380D01*
X63587285Y-37600000D01*
X63634904Y-37647619D01*
X63682523Y-37742857D01*
X63682523Y-37838095D01*
X63634904Y-37980952D01*
X63063476Y-38552380D01*
X63682523Y-38552380D01*
X64015857Y-37552380D02*
X64682523Y-37552380D01*
X64253952Y-38552380D01*
%TO.C,R26*%
X62730142Y-69921380D02*
X62396809Y-69445190D01*
X62158714Y-69921380D02*
X62158714Y-68921380D01*
X62539666Y-68921380D01*
X62634904Y-68969000D01*
X62682523Y-69016619D01*
X62730142Y-69111857D01*
X62730142Y-69254714D01*
X62682523Y-69349952D01*
X62634904Y-69397571D01*
X62539666Y-69445190D01*
X62158714Y-69445190D01*
X63111095Y-69016619D02*
X63158714Y-68969000D01*
X63253952Y-68921380D01*
X63492047Y-68921380D01*
X63587285Y-68969000D01*
X63634904Y-69016619D01*
X63682523Y-69111857D01*
X63682523Y-69207095D01*
X63634904Y-69349952D01*
X63063476Y-69921380D01*
X63682523Y-69921380D01*
X64539666Y-68921380D02*
X64349190Y-68921380D01*
X64253952Y-68969000D01*
X64206333Y-69016619D01*
X64111095Y-69159476D01*
X64063476Y-69349952D01*
X64063476Y-69730904D01*
X64111095Y-69826142D01*
X64158714Y-69873761D01*
X64253952Y-69921380D01*
X64444428Y-69921380D01*
X64539666Y-69873761D01*
X64587285Y-69826142D01*
X64634904Y-69730904D01*
X64634904Y-69492809D01*
X64587285Y-69397571D01*
X64539666Y-69349952D01*
X64444428Y-69302333D01*
X64253952Y-69302333D01*
X64158714Y-69349952D01*
X64111095Y-69397571D01*
X64063476Y-69492809D01*
%TO.C,R25*%
X62730142Y-41600380D02*
X62396809Y-41124190D01*
X62158714Y-41600380D02*
X62158714Y-40600380D01*
X62539666Y-40600380D01*
X62634904Y-40648000D01*
X62682523Y-40695619D01*
X62730142Y-40790857D01*
X62730142Y-40933714D01*
X62682523Y-41028952D01*
X62634904Y-41076571D01*
X62539666Y-41124190D01*
X62158714Y-41124190D01*
X63111095Y-40695619D02*
X63158714Y-40648000D01*
X63253952Y-40600380D01*
X63492047Y-40600380D01*
X63587285Y-40648000D01*
X63634904Y-40695619D01*
X63682523Y-40790857D01*
X63682523Y-40886095D01*
X63634904Y-41028952D01*
X63063476Y-41600380D01*
X63682523Y-41600380D01*
X64587285Y-40600380D02*
X64111095Y-40600380D01*
X64063476Y-41076571D01*
X64111095Y-41028952D01*
X64206333Y-40981333D01*
X64444428Y-40981333D01*
X64539666Y-41028952D01*
X64587285Y-41076571D01*
X64634904Y-41171809D01*
X64634904Y-41409904D01*
X64587285Y-41505142D01*
X64539666Y-41552761D01*
X64444428Y-41600380D01*
X64206333Y-41600380D01*
X64111095Y-41552761D01*
X64063476Y-41505142D01*
%TO.C,R24*%
X62730142Y-72969380D02*
X62396809Y-72493190D01*
X62158714Y-72969380D02*
X62158714Y-71969380D01*
X62539666Y-71969380D01*
X62634904Y-72017000D01*
X62682523Y-72064619D01*
X62730142Y-72159857D01*
X62730142Y-72302714D01*
X62682523Y-72397952D01*
X62634904Y-72445571D01*
X62539666Y-72493190D01*
X62158714Y-72493190D01*
X63111095Y-72064619D02*
X63158714Y-72017000D01*
X63253952Y-71969380D01*
X63492047Y-71969380D01*
X63587285Y-72017000D01*
X63634904Y-72064619D01*
X63682523Y-72159857D01*
X63682523Y-72255095D01*
X63634904Y-72397952D01*
X63063476Y-72969380D01*
X63682523Y-72969380D01*
X64539666Y-72302714D02*
X64539666Y-72969380D01*
X64301571Y-71921761D02*
X64063476Y-72636047D01*
X64682523Y-72636047D01*
%TO.C,R23*%
X62730142Y-44648380D02*
X62396809Y-44172190D01*
X62158714Y-44648380D02*
X62158714Y-43648380D01*
X62539666Y-43648380D01*
X62634904Y-43696000D01*
X62682523Y-43743619D01*
X62730142Y-43838857D01*
X62730142Y-43981714D01*
X62682523Y-44076952D01*
X62634904Y-44124571D01*
X62539666Y-44172190D01*
X62158714Y-44172190D01*
X63111095Y-43743619D02*
X63158714Y-43696000D01*
X63253952Y-43648380D01*
X63492047Y-43648380D01*
X63587285Y-43696000D01*
X63634904Y-43743619D01*
X63682523Y-43838857D01*
X63682523Y-43934095D01*
X63634904Y-44076952D01*
X63063476Y-44648380D01*
X63682523Y-44648380D01*
X64015857Y-43648380D02*
X64634904Y-43648380D01*
X64301571Y-44029333D01*
X64444428Y-44029333D01*
X64539666Y-44076952D01*
X64587285Y-44124571D01*
X64634904Y-44219809D01*
X64634904Y-44457904D01*
X64587285Y-44553142D01*
X64539666Y-44600761D01*
X64444428Y-44648380D01*
X64158714Y-44648380D01*
X64063476Y-44600761D01*
X64015857Y-44553142D01*
%TO.C,R22*%
X62730142Y-76017380D02*
X62396809Y-75541190D01*
X62158714Y-76017380D02*
X62158714Y-75017380D01*
X62539666Y-75017380D01*
X62634904Y-75065000D01*
X62682523Y-75112619D01*
X62730142Y-75207857D01*
X62730142Y-75350714D01*
X62682523Y-75445952D01*
X62634904Y-75493571D01*
X62539666Y-75541190D01*
X62158714Y-75541190D01*
X63111095Y-75112619D02*
X63158714Y-75065000D01*
X63253952Y-75017380D01*
X63492047Y-75017380D01*
X63587285Y-75065000D01*
X63634904Y-75112619D01*
X63682523Y-75207857D01*
X63682523Y-75303095D01*
X63634904Y-75445952D01*
X63063476Y-76017380D01*
X63682523Y-76017380D01*
X64063476Y-75112619D02*
X64111095Y-75065000D01*
X64206333Y-75017380D01*
X64444428Y-75017380D01*
X64539666Y-75065000D01*
X64587285Y-75112619D01*
X64634904Y-75207857D01*
X64634904Y-75303095D01*
X64587285Y-75445952D01*
X64015857Y-76017380D01*
X64634904Y-76017380D01*
%TO.C,R21*%
X62730142Y-47696380D02*
X62396809Y-47220190D01*
X62158714Y-47696380D02*
X62158714Y-46696380D01*
X62539666Y-46696380D01*
X62634904Y-46744000D01*
X62682523Y-46791619D01*
X62730142Y-46886857D01*
X62730142Y-47029714D01*
X62682523Y-47124952D01*
X62634904Y-47172571D01*
X62539666Y-47220190D01*
X62158714Y-47220190D01*
X63111095Y-46791619D02*
X63158714Y-46744000D01*
X63253952Y-46696380D01*
X63492047Y-46696380D01*
X63587285Y-46744000D01*
X63634904Y-46791619D01*
X63682523Y-46886857D01*
X63682523Y-46982095D01*
X63634904Y-47124952D01*
X63063476Y-47696380D01*
X63682523Y-47696380D01*
X64634904Y-47696380D02*
X64063476Y-47696380D01*
X64349190Y-47696380D02*
X64349190Y-46696380D01*
X64253952Y-46839238D01*
X64158714Y-46934476D01*
X64063476Y-46982095D01*
%TO.C,R20*%
X62730142Y-79065380D02*
X62396809Y-78589190D01*
X62158714Y-79065380D02*
X62158714Y-78065380D01*
X62539666Y-78065380D01*
X62634904Y-78113000D01*
X62682523Y-78160619D01*
X62730142Y-78255857D01*
X62730142Y-78398714D01*
X62682523Y-78493952D01*
X62634904Y-78541571D01*
X62539666Y-78589190D01*
X62158714Y-78589190D01*
X63111095Y-78160619D02*
X63158714Y-78113000D01*
X63253952Y-78065380D01*
X63492047Y-78065380D01*
X63587285Y-78113000D01*
X63634904Y-78160619D01*
X63682523Y-78255857D01*
X63682523Y-78351095D01*
X63634904Y-78493952D01*
X63063476Y-79065380D01*
X63682523Y-79065380D01*
X64301571Y-78065380D02*
X64396809Y-78065380D01*
X64492047Y-78113000D01*
X64539666Y-78160619D01*
X64587285Y-78255857D01*
X64634904Y-78446333D01*
X64634904Y-78684428D01*
X64587285Y-78874904D01*
X64539666Y-78970142D01*
X64492047Y-79017761D01*
X64396809Y-79065380D01*
X64301571Y-79065380D01*
X64206333Y-79017761D01*
X64158714Y-78970142D01*
X64111095Y-78874904D01*
X64063476Y-78684428D01*
X64063476Y-78446333D01*
X64111095Y-78255857D01*
X64158714Y-78160619D01*
X64206333Y-78113000D01*
X64301571Y-78065380D01*
%TO.C,R19*%
X62730142Y-50744380D02*
X62396809Y-50268190D01*
X62158714Y-50744380D02*
X62158714Y-49744380D01*
X62539666Y-49744380D01*
X62634904Y-49792000D01*
X62682523Y-49839619D01*
X62730142Y-49934857D01*
X62730142Y-50077714D01*
X62682523Y-50172952D01*
X62634904Y-50220571D01*
X62539666Y-50268190D01*
X62158714Y-50268190D01*
X63682523Y-50744380D02*
X63111095Y-50744380D01*
X63396809Y-50744380D02*
X63396809Y-49744380D01*
X63301571Y-49887238D01*
X63206333Y-49982476D01*
X63111095Y-50030095D01*
X64158714Y-50744380D02*
X64349190Y-50744380D01*
X64444428Y-50696761D01*
X64492047Y-50649142D01*
X64587285Y-50506285D01*
X64634904Y-50315809D01*
X64634904Y-49934857D01*
X64587285Y-49839619D01*
X64539666Y-49792000D01*
X64444428Y-49744380D01*
X64253952Y-49744380D01*
X64158714Y-49792000D01*
X64111095Y-49839619D01*
X64063476Y-49934857D01*
X64063476Y-50172952D01*
X64111095Y-50268190D01*
X64158714Y-50315809D01*
X64253952Y-50363428D01*
X64444428Y-50363428D01*
X64539666Y-50315809D01*
X64587285Y-50268190D01*
X64634904Y-50172952D01*
%TO.C,R18*%
X62730142Y-62301380D02*
X62396809Y-61825190D01*
X62158714Y-62301380D02*
X62158714Y-61301380D01*
X62539666Y-61301380D01*
X62634904Y-61349000D01*
X62682523Y-61396619D01*
X62730142Y-61491857D01*
X62730142Y-61634714D01*
X62682523Y-61729952D01*
X62634904Y-61777571D01*
X62539666Y-61825190D01*
X62158714Y-61825190D01*
X63682523Y-62301380D02*
X63111095Y-62301380D01*
X63396809Y-62301380D02*
X63396809Y-61301380D01*
X63301571Y-61444238D01*
X63206333Y-61539476D01*
X63111095Y-61587095D01*
X64253952Y-61729952D02*
X64158714Y-61682333D01*
X64111095Y-61634714D01*
X64063476Y-61539476D01*
X64063476Y-61491857D01*
X64111095Y-61396619D01*
X64158714Y-61349000D01*
X64253952Y-61301380D01*
X64444428Y-61301380D01*
X64539666Y-61349000D01*
X64587285Y-61396619D01*
X64634904Y-61491857D01*
X64634904Y-61539476D01*
X64587285Y-61634714D01*
X64539666Y-61682333D01*
X64444428Y-61729952D01*
X64253952Y-61729952D01*
X64158714Y-61777571D01*
X64111095Y-61825190D01*
X64063476Y-61920428D01*
X64063476Y-62110904D01*
X64111095Y-62206142D01*
X64158714Y-62253761D01*
X64253952Y-62301380D01*
X64444428Y-62301380D01*
X64539666Y-62253761D01*
X64587285Y-62206142D01*
X64634904Y-62110904D01*
X64634904Y-61920428D01*
X64587285Y-61825190D01*
X64539666Y-61777571D01*
X64444428Y-61729952D01*
%TO.C,R17*%
X62730142Y-65349380D02*
X62396809Y-64873190D01*
X62158714Y-65349380D02*
X62158714Y-64349380D01*
X62539666Y-64349380D01*
X62634904Y-64397000D01*
X62682523Y-64444619D01*
X62730142Y-64539857D01*
X62730142Y-64682714D01*
X62682523Y-64777952D01*
X62634904Y-64825571D01*
X62539666Y-64873190D01*
X62158714Y-64873190D01*
X63682523Y-65349380D02*
X63111095Y-65349380D01*
X63396809Y-65349380D02*
X63396809Y-64349380D01*
X63301571Y-64492238D01*
X63206333Y-64587476D01*
X63111095Y-64635095D01*
X64015857Y-64349380D02*
X64682523Y-64349380D01*
X64253952Y-65349380D01*
%TO.C,R16*%
X62730142Y-68397380D02*
X62396809Y-67921190D01*
X62158714Y-68397380D02*
X62158714Y-67397380D01*
X62539666Y-67397380D01*
X62634904Y-67445000D01*
X62682523Y-67492619D01*
X62730142Y-67587857D01*
X62730142Y-67730714D01*
X62682523Y-67825952D01*
X62634904Y-67873571D01*
X62539666Y-67921190D01*
X62158714Y-67921190D01*
X63682523Y-68397380D02*
X63111095Y-68397380D01*
X63396809Y-68397380D02*
X63396809Y-67397380D01*
X63301571Y-67540238D01*
X63206333Y-67635476D01*
X63111095Y-67683095D01*
X64539666Y-67397380D02*
X64349190Y-67397380D01*
X64253952Y-67445000D01*
X64206333Y-67492619D01*
X64111095Y-67635476D01*
X64063476Y-67825952D01*
X64063476Y-68206904D01*
X64111095Y-68302142D01*
X64158714Y-68349761D01*
X64253952Y-68397380D01*
X64444428Y-68397380D01*
X64539666Y-68349761D01*
X64587285Y-68302142D01*
X64634904Y-68206904D01*
X64634904Y-67968809D01*
X64587285Y-67873571D01*
X64539666Y-67825952D01*
X64444428Y-67778333D01*
X64253952Y-67778333D01*
X64158714Y-67825952D01*
X64111095Y-67873571D01*
X64063476Y-67968809D01*
%TO.C,R15*%
X62730142Y-71445380D02*
X62396809Y-70969190D01*
X62158714Y-71445380D02*
X62158714Y-70445380D01*
X62539666Y-70445380D01*
X62634904Y-70493000D01*
X62682523Y-70540619D01*
X62730142Y-70635857D01*
X62730142Y-70778714D01*
X62682523Y-70873952D01*
X62634904Y-70921571D01*
X62539666Y-70969190D01*
X62158714Y-70969190D01*
X63682523Y-71445380D02*
X63111095Y-71445380D01*
X63396809Y-71445380D02*
X63396809Y-70445380D01*
X63301571Y-70588238D01*
X63206333Y-70683476D01*
X63111095Y-70731095D01*
X64587285Y-70445380D02*
X64111095Y-70445380D01*
X64063476Y-70921571D01*
X64111095Y-70873952D01*
X64206333Y-70826333D01*
X64444428Y-70826333D01*
X64539666Y-70873952D01*
X64587285Y-70921571D01*
X64634904Y-71016809D01*
X64634904Y-71254904D01*
X64587285Y-71350142D01*
X64539666Y-71397761D01*
X64444428Y-71445380D01*
X64206333Y-71445380D01*
X64111095Y-71397761D01*
X64063476Y-71350142D01*
%TO.C,R13*%
X62730142Y-77541380D02*
X62396809Y-77065190D01*
X62158714Y-77541380D02*
X62158714Y-76541380D01*
X62539666Y-76541380D01*
X62634904Y-76589000D01*
X62682523Y-76636619D01*
X62730142Y-76731857D01*
X62730142Y-76874714D01*
X62682523Y-76969952D01*
X62634904Y-77017571D01*
X62539666Y-77065190D01*
X62158714Y-77065190D01*
X63682523Y-77541380D02*
X63111095Y-77541380D01*
X63396809Y-77541380D02*
X63396809Y-76541380D01*
X63301571Y-76684238D01*
X63206333Y-76779476D01*
X63111095Y-76827095D01*
X64015857Y-76541380D02*
X64634904Y-76541380D01*
X64301571Y-76922333D01*
X64444428Y-76922333D01*
X64539666Y-76969952D01*
X64587285Y-77017571D01*
X64634904Y-77112809D01*
X64634904Y-77350904D01*
X64587285Y-77446142D01*
X64539666Y-77493761D01*
X64444428Y-77541380D01*
X64158714Y-77541380D01*
X64063476Y-77493761D01*
X64015857Y-77446142D01*
%TO.C,R12*%
X62730142Y-80589380D02*
X62396809Y-80113190D01*
X62158714Y-80589380D02*
X62158714Y-79589380D01*
X62539666Y-79589380D01*
X62634904Y-79637000D01*
X62682523Y-79684619D01*
X62730142Y-79779857D01*
X62730142Y-79922714D01*
X62682523Y-80017952D01*
X62634904Y-80065571D01*
X62539666Y-80113190D01*
X62158714Y-80113190D01*
X63682523Y-80589380D02*
X63111095Y-80589380D01*
X63396809Y-80589380D02*
X63396809Y-79589380D01*
X63301571Y-79732238D01*
X63206333Y-79827476D01*
X63111095Y-79875095D01*
X64063476Y-79684619D02*
X64111095Y-79637000D01*
X64206333Y-79589380D01*
X64444428Y-79589380D01*
X64539666Y-79637000D01*
X64587285Y-79684619D01*
X64634904Y-79779857D01*
X64634904Y-79875095D01*
X64587285Y-80017952D01*
X64015857Y-80589380D01*
X64634904Y-80589380D01*
%TO.C,R11*%
X62730142Y-33980380D02*
X62396809Y-33504190D01*
X62158714Y-33980380D02*
X62158714Y-32980380D01*
X62539666Y-32980380D01*
X62634904Y-33028000D01*
X62682523Y-33075619D01*
X62730142Y-33170857D01*
X62730142Y-33313714D01*
X62682523Y-33408952D01*
X62634904Y-33456571D01*
X62539666Y-33504190D01*
X62158714Y-33504190D01*
X63682523Y-33980380D02*
X63111095Y-33980380D01*
X63396809Y-33980380D02*
X63396809Y-32980380D01*
X63301571Y-33123238D01*
X63206333Y-33218476D01*
X63111095Y-33266095D01*
X64634904Y-33980380D02*
X64063476Y-33980380D01*
X64349190Y-33980380D02*
X64349190Y-32980380D01*
X64253952Y-33123238D01*
X64158714Y-33218476D01*
X64063476Y-33266095D01*
%TO.C,R10*%
X62730142Y-37028380D02*
X62396809Y-36552190D01*
X62158714Y-37028380D02*
X62158714Y-36028380D01*
X62539666Y-36028380D01*
X62634904Y-36076000D01*
X62682523Y-36123619D01*
X62730142Y-36218857D01*
X62730142Y-36361714D01*
X62682523Y-36456952D01*
X62634904Y-36504571D01*
X62539666Y-36552190D01*
X62158714Y-36552190D01*
X63682523Y-37028380D02*
X63111095Y-37028380D01*
X63396809Y-37028380D02*
X63396809Y-36028380D01*
X63301571Y-36171238D01*
X63206333Y-36266476D01*
X63111095Y-36314095D01*
X64301571Y-36028380D02*
X64396809Y-36028380D01*
X64492047Y-36076000D01*
X64539666Y-36123619D01*
X64587285Y-36218857D01*
X64634904Y-36409333D01*
X64634904Y-36647428D01*
X64587285Y-36837904D01*
X64539666Y-36933142D01*
X64492047Y-36980761D01*
X64396809Y-37028380D01*
X64301571Y-37028380D01*
X64206333Y-36980761D01*
X64158714Y-36933142D01*
X64111095Y-36837904D01*
X64063476Y-36647428D01*
X64063476Y-36409333D01*
X64111095Y-36218857D01*
X64158714Y-36123619D01*
X64206333Y-36076000D01*
X64301571Y-36028380D01*
%TO.C,R9*%
X62698333Y-40076380D02*
X62365000Y-39600190D01*
X62126904Y-40076380D02*
X62126904Y-39076380D01*
X62507857Y-39076380D01*
X62603095Y-39124000D01*
X62650714Y-39171619D01*
X62698333Y-39266857D01*
X62698333Y-39409714D01*
X62650714Y-39504952D01*
X62603095Y-39552571D01*
X62507857Y-39600190D01*
X62126904Y-39600190D01*
X63174523Y-40076380D02*
X63365000Y-40076380D01*
X63460238Y-40028761D01*
X63507857Y-39981142D01*
X63603095Y-39838285D01*
X63650714Y-39647809D01*
X63650714Y-39266857D01*
X63603095Y-39171619D01*
X63555476Y-39124000D01*
X63460238Y-39076380D01*
X63269761Y-39076380D01*
X63174523Y-39124000D01*
X63126904Y-39171619D01*
X63079285Y-39266857D01*
X63079285Y-39504952D01*
X63126904Y-39600190D01*
X63174523Y-39647809D01*
X63269761Y-39695428D01*
X63460238Y-39695428D01*
X63555476Y-39647809D01*
X63603095Y-39600190D01*
X63650714Y-39504952D01*
%TO.C,R8*%
X62698333Y-43124380D02*
X62365000Y-42648190D01*
X62126904Y-43124380D02*
X62126904Y-42124380D01*
X62507857Y-42124380D01*
X62603095Y-42172000D01*
X62650714Y-42219619D01*
X62698333Y-42314857D01*
X62698333Y-42457714D01*
X62650714Y-42552952D01*
X62603095Y-42600571D01*
X62507857Y-42648190D01*
X62126904Y-42648190D01*
X63269761Y-42552952D02*
X63174523Y-42505333D01*
X63126904Y-42457714D01*
X63079285Y-42362476D01*
X63079285Y-42314857D01*
X63126904Y-42219619D01*
X63174523Y-42172000D01*
X63269761Y-42124380D01*
X63460238Y-42124380D01*
X63555476Y-42172000D01*
X63603095Y-42219619D01*
X63650714Y-42314857D01*
X63650714Y-42362476D01*
X63603095Y-42457714D01*
X63555476Y-42505333D01*
X63460238Y-42552952D01*
X63269761Y-42552952D01*
X63174523Y-42600571D01*
X63126904Y-42648190D01*
X63079285Y-42743428D01*
X63079285Y-42933904D01*
X63126904Y-43029142D01*
X63174523Y-43076761D01*
X63269761Y-43124380D01*
X63460238Y-43124380D01*
X63555476Y-43076761D01*
X63603095Y-43029142D01*
X63650714Y-42933904D01*
X63650714Y-42743428D01*
X63603095Y-42648190D01*
X63555476Y-42600571D01*
X63460238Y-42552952D01*
%TO.C,R7*%
X62698333Y-46172380D02*
X62365000Y-45696190D01*
X62126904Y-46172380D02*
X62126904Y-45172380D01*
X62507857Y-45172380D01*
X62603095Y-45220000D01*
X62650714Y-45267619D01*
X62698333Y-45362857D01*
X62698333Y-45505714D01*
X62650714Y-45600952D01*
X62603095Y-45648571D01*
X62507857Y-45696190D01*
X62126904Y-45696190D01*
X63031666Y-45172380D02*
X63698333Y-45172380D01*
X63269761Y-46172380D01*
%TO.C,R6*%
X62698333Y-49220380D02*
X62365000Y-48744190D01*
X62126904Y-49220380D02*
X62126904Y-48220380D01*
X62507857Y-48220380D01*
X62603095Y-48268000D01*
X62650714Y-48315619D01*
X62698333Y-48410857D01*
X62698333Y-48553714D01*
X62650714Y-48648952D01*
X62603095Y-48696571D01*
X62507857Y-48744190D01*
X62126904Y-48744190D01*
X63555476Y-48220380D02*
X63365000Y-48220380D01*
X63269761Y-48268000D01*
X63222142Y-48315619D01*
X63126904Y-48458476D01*
X63079285Y-48648952D01*
X63079285Y-49029904D01*
X63126904Y-49125142D01*
X63174523Y-49172761D01*
X63269761Y-49220380D01*
X63460238Y-49220380D01*
X63555476Y-49172761D01*
X63603095Y-49125142D01*
X63650714Y-49029904D01*
X63650714Y-48791809D01*
X63603095Y-48696571D01*
X63555476Y-48648952D01*
X63460238Y-48601333D01*
X63269761Y-48601333D01*
X63174523Y-48648952D01*
X63126904Y-48696571D01*
X63079285Y-48791809D01*
%TO.C,R5*%
X62698333Y-52268380D02*
X62365000Y-51792190D01*
X62126904Y-52268380D02*
X62126904Y-51268380D01*
X62507857Y-51268380D01*
X62603095Y-51316000D01*
X62650714Y-51363619D01*
X62698333Y-51458857D01*
X62698333Y-51601714D01*
X62650714Y-51696952D01*
X62603095Y-51744571D01*
X62507857Y-51792190D01*
X62126904Y-51792190D01*
X63603095Y-51268380D02*
X63126904Y-51268380D01*
X63079285Y-51744571D01*
X63126904Y-51696952D01*
X63222142Y-51649333D01*
X63460238Y-51649333D01*
X63555476Y-51696952D01*
X63603095Y-51744571D01*
X63650714Y-51839809D01*
X63650714Y-52077904D01*
X63603095Y-52173142D01*
X63555476Y-52220761D01*
X63460238Y-52268380D01*
X63222142Y-52268380D01*
X63126904Y-52220761D01*
X63079285Y-52173142D01*
%TO.C,R4*%
X115333333Y-30352380D02*
X115000000Y-29876190D01*
X114761904Y-30352380D02*
X114761904Y-29352380D01*
X115142857Y-29352380D01*
X115238095Y-29400000D01*
X115285714Y-29447619D01*
X115333333Y-29542857D01*
X115333333Y-29685714D01*
X115285714Y-29780952D01*
X115238095Y-29828571D01*
X115142857Y-29876190D01*
X114761904Y-29876190D01*
X116190476Y-29685714D02*
X116190476Y-30352380D01*
X115952380Y-29304761D02*
X115714285Y-30019047D01*
X116333333Y-30019047D01*
%TO.C,R3*%
X115333333Y-31852380D02*
X115000000Y-31376190D01*
X114761904Y-31852380D02*
X114761904Y-30852380D01*
X115142857Y-30852380D01*
X115238095Y-30900000D01*
X115285714Y-30947619D01*
X115333333Y-31042857D01*
X115333333Y-31185714D01*
X115285714Y-31280952D01*
X115238095Y-31328571D01*
X115142857Y-31376190D01*
X114761904Y-31376190D01*
X115666666Y-30852380D02*
X116285714Y-30852380D01*
X115952380Y-31233333D01*
X116095238Y-31233333D01*
X116190476Y-31280952D01*
X116238095Y-31328571D01*
X116285714Y-31423809D01*
X116285714Y-31661904D01*
X116238095Y-31757142D01*
X116190476Y-31804761D01*
X116095238Y-31852380D01*
X115809523Y-31852380D01*
X115714285Y-31804761D01*
X115666666Y-31757142D01*
%TO.C,R2*%
X115333333Y-28852380D02*
X115000000Y-28376190D01*
X114761904Y-28852380D02*
X114761904Y-27852380D01*
X115142857Y-27852380D01*
X115238095Y-27900000D01*
X115285714Y-27947619D01*
X115333333Y-28042857D01*
X115333333Y-28185714D01*
X115285714Y-28280952D01*
X115238095Y-28328571D01*
X115142857Y-28376190D01*
X114761904Y-28376190D01*
X115714285Y-27947619D02*
X115761904Y-27900000D01*
X115857142Y-27852380D01*
X116095238Y-27852380D01*
X116190476Y-27900000D01*
X116238095Y-27947619D01*
X116285714Y-28042857D01*
X116285714Y-28138095D01*
X116238095Y-28280952D01*
X115666666Y-28852380D01*
X116285714Y-28852380D01*
%TO.C,R1*%
X115333333Y-33452380D02*
X115000000Y-32976190D01*
X114761904Y-33452380D02*
X114761904Y-32452380D01*
X115142857Y-32452380D01*
X115238095Y-32500000D01*
X115285714Y-32547619D01*
X115333333Y-32642857D01*
X115333333Y-32785714D01*
X115285714Y-32880952D01*
X115238095Y-32928571D01*
X115142857Y-32976190D01*
X114761904Y-32976190D01*
X116285714Y-33452380D02*
X115714285Y-33452380D01*
X116000000Y-33452380D02*
X116000000Y-32452380D01*
X115904761Y-32595238D01*
X115809523Y-32690476D01*
X115714285Y-32738095D01*
%TO.C,J5*%
X107616666Y-23328380D02*
X107616666Y-24042666D01*
X107569047Y-24185523D01*
X107473809Y-24280761D01*
X107330952Y-24328380D01*
X107235714Y-24328380D01*
X108569047Y-23328380D02*
X108092857Y-23328380D01*
X108045238Y-23804571D01*
X108092857Y-23756952D01*
X108188095Y-23709333D01*
X108426190Y-23709333D01*
X108521428Y-23756952D01*
X108569047Y-23804571D01*
X108616666Y-23899809D01*
X108616666Y-24137904D01*
X108569047Y-24233142D01*
X108521428Y-24280761D01*
X108426190Y-24328380D01*
X108188095Y-24328380D01*
X108092857Y-24280761D01*
X108045238Y-24233142D01*
X96247619Y-32652380D02*
X96247619Y-31652380D01*
X96580952Y-32366666D01*
X96914285Y-31652380D01*
X96914285Y-32652380D01*
X97390476Y-32652380D02*
X97390476Y-31652380D01*
X97628571Y-31652380D01*
X97771428Y-31700000D01*
X97866666Y-31795238D01*
X97914285Y-31890476D01*
X97961904Y-32080952D01*
X97961904Y-32223809D01*
X97914285Y-32414285D01*
X97866666Y-32509523D01*
X97771428Y-32604761D01*
X97628571Y-32652380D01*
X97390476Y-32652380D01*
X98390476Y-32271428D02*
X99152380Y-32271428D01*
X100057142Y-31652380D02*
X99866666Y-31652380D01*
X99771428Y-31700000D01*
X99723809Y-31747619D01*
X99628571Y-31890476D01*
X99580952Y-32080952D01*
X99580952Y-32461904D01*
X99628571Y-32557142D01*
X99676190Y-32604761D01*
X99771428Y-32652380D01*
X99961904Y-32652380D01*
X100057142Y-32604761D01*
X100104761Y-32557142D01*
X100152380Y-32461904D01*
X100152380Y-32223809D01*
X100104761Y-32128571D01*
X100057142Y-32080952D01*
X99961904Y-32033333D01*
X99771428Y-32033333D01*
X99676190Y-32080952D01*
X99628571Y-32128571D01*
X99580952Y-32223809D01*
X100771428Y-31652380D02*
X100866666Y-31652380D01*
X100961904Y-31700000D01*
X101009523Y-31747619D01*
X101057142Y-31842857D01*
X101104761Y-32033333D01*
X101104761Y-32271428D01*
X101057142Y-32461904D01*
X101009523Y-32557142D01*
X100961904Y-32604761D01*
X100866666Y-32652380D01*
X100771428Y-32652380D01*
X100676190Y-32604761D01*
X100628571Y-32557142D01*
X100580952Y-32461904D01*
X100533333Y-32271428D01*
X100533333Y-32033333D01*
X100580952Y-31842857D01*
X100628571Y-31747619D01*
X100676190Y-31700000D01*
X100771428Y-31652380D01*
X101485714Y-32604761D02*
X101628571Y-32652380D01*
X101866666Y-32652380D01*
X101961904Y-32604761D01*
X102009523Y-32557142D01*
X102057142Y-32461904D01*
X102057142Y-32366666D01*
X102009523Y-32271428D01*
X101961904Y-32223809D01*
X101866666Y-32176190D01*
X101676190Y-32128571D01*
X101580952Y-32080952D01*
X101533333Y-32033333D01*
X101485714Y-31938095D01*
X101485714Y-31842857D01*
X101533333Y-31747619D01*
X101580952Y-31700000D01*
X101676190Y-31652380D01*
X101914285Y-31652380D01*
X102057142Y-31700000D01*
X102485714Y-32652380D02*
X102485714Y-31652380D01*
X102819047Y-32366666D01*
X103152380Y-31652380D01*
X103152380Y-32652380D01*
X98260000Y-25852381D02*
X98260000Y-26090477D01*
X98021904Y-25995239D02*
X98260000Y-26090477D01*
X98498095Y-25995239D01*
X98117142Y-26280953D02*
X98260000Y-26090477D01*
X98402857Y-26280953D01*
X98260000Y-25852381D02*
X98260000Y-26090477D01*
X98021904Y-25995239D02*
X98260000Y-26090477D01*
X98498095Y-25995239D01*
X98117142Y-26280953D02*
X98260000Y-26090477D01*
X98402857Y-26280953D01*
%TO.C,U2*%
X107696095Y-71080380D02*
X107696095Y-71889904D01*
X107743714Y-71985142D01*
X107791333Y-72032761D01*
X107886571Y-72080380D01*
X108077047Y-72080380D01*
X108172285Y-72032761D01*
X108219904Y-71985142D01*
X108267523Y-71889904D01*
X108267523Y-71080380D01*
X108696095Y-71175619D02*
X108743714Y-71128000D01*
X108838952Y-71080380D01*
X109077047Y-71080380D01*
X109172285Y-71128000D01*
X109219904Y-71175619D01*
X109267523Y-71270857D01*
X109267523Y-71366095D01*
X109219904Y-71508952D01*
X108648476Y-72080380D01*
X109267523Y-72080380D01*
X104179666Y-78881952D02*
X104179666Y-78405761D01*
X104465380Y-78977190D02*
X103465380Y-78643857D01*
X104465380Y-78310523D01*
X104417761Y-78024809D02*
X104465380Y-77881952D01*
X104465380Y-77643857D01*
X104417761Y-77548619D01*
X104370142Y-77501000D01*
X104274904Y-77453380D01*
X104179666Y-77453380D01*
X104084428Y-77501000D01*
X104036809Y-77548619D01*
X103989190Y-77643857D01*
X103941571Y-77834333D01*
X103893952Y-77929571D01*
X103846333Y-77977190D01*
X103751095Y-78024809D01*
X103655857Y-78024809D01*
X103560619Y-77977190D01*
X103513000Y-77929571D01*
X103465380Y-77834333D01*
X103465380Y-77596238D01*
X103513000Y-77453380D01*
X103798714Y-76596238D02*
X104465380Y-76596238D01*
X103417761Y-76834333D02*
X104132047Y-77072428D01*
X104132047Y-76453380D01*
X104370142Y-75501000D02*
X104417761Y-75548619D01*
X104465380Y-75691476D01*
X104465380Y-75786714D01*
X104417761Y-75929571D01*
X104322523Y-76024809D01*
X104227285Y-76072428D01*
X104036809Y-76120047D01*
X103893952Y-76120047D01*
X103703476Y-76072428D01*
X103608238Y-76024809D01*
X103513000Y-75929571D01*
X103465380Y-75786714D01*
X103465380Y-75691476D01*
X103513000Y-75548619D01*
X103560619Y-75501000D01*
X103465380Y-75167666D02*
X103465380Y-74548619D01*
X103846333Y-74881952D01*
X103846333Y-74739095D01*
X103893952Y-74643857D01*
X103941571Y-74596238D01*
X104036809Y-74548619D01*
X104274904Y-74548619D01*
X104370142Y-74596238D01*
X104417761Y-74643857D01*
X104465380Y-74739095D01*
X104465380Y-75024809D01*
X104417761Y-75120047D01*
X104370142Y-75167666D01*
X103560619Y-74167666D02*
X103513000Y-74120047D01*
X103465380Y-74024809D01*
X103465380Y-73786714D01*
X103513000Y-73691476D01*
X103560619Y-73643857D01*
X103655857Y-73596238D01*
X103751095Y-73596238D01*
X103893952Y-73643857D01*
X104465380Y-74215285D01*
X104465380Y-73596238D01*
X104465380Y-73167666D02*
X103465380Y-73167666D01*
X104179666Y-72834333D01*
X103465380Y-72501000D01*
X104465380Y-72501000D01*
X104465380Y-71501000D02*
X104465380Y-72072428D01*
X104465380Y-71786714D02*
X103465380Y-71786714D01*
X103608238Y-71881952D01*
X103703476Y-71977190D01*
X103751095Y-72072428D01*
X103465380Y-70643857D02*
X103465380Y-70834333D01*
X103513000Y-70929571D01*
X103560619Y-70977190D01*
X103703476Y-71072428D01*
X103893952Y-71120047D01*
X104274904Y-71120047D01*
X104370142Y-71072428D01*
X104417761Y-71024809D01*
X104465380Y-70929571D01*
X104465380Y-70739095D01*
X104417761Y-70643857D01*
X104370142Y-70596238D01*
X104274904Y-70548619D01*
X104036809Y-70548619D01*
X103941571Y-70596238D01*
X103893952Y-70643857D01*
X103846333Y-70739095D01*
X103846333Y-70929571D01*
X103893952Y-71024809D01*
X103941571Y-71072428D01*
X104036809Y-71120047D01*
X104417761Y-70167666D02*
X104465380Y-70024809D01*
X104465380Y-69786714D01*
X104417761Y-69691476D01*
X104370142Y-69643857D01*
X104274904Y-69596238D01*
X104179666Y-69596238D01*
X104084428Y-69643857D01*
X104036809Y-69691476D01*
X103989190Y-69786714D01*
X103941571Y-69977190D01*
X103893952Y-70072428D01*
X103846333Y-70120047D01*
X103751095Y-70167666D01*
X103655857Y-70167666D01*
X103560619Y-70120047D01*
X103513000Y-70072428D01*
X103465380Y-69977190D01*
X103465380Y-69739095D01*
X103513000Y-69596238D01*
X103941571Y-68834333D02*
X103989190Y-68691476D01*
X104036809Y-68643857D01*
X104132047Y-68596238D01*
X104274904Y-68596238D01*
X104370142Y-68643857D01*
X104417761Y-68691476D01*
X104465380Y-68786714D01*
X104465380Y-69167666D01*
X103465380Y-69167666D01*
X103465380Y-68834333D01*
X103513000Y-68739095D01*
X103560619Y-68691476D01*
X103655857Y-68643857D01*
X103751095Y-68643857D01*
X103846333Y-68691476D01*
X103893952Y-68739095D01*
X103941571Y-68834333D01*
X103941571Y-69167666D01*
X104084428Y-68167666D02*
X104084428Y-67405761D01*
X103465380Y-67024809D02*
X103465380Y-66358142D01*
X104465380Y-66786714D01*
X103465380Y-66120047D02*
X103465380Y-65548619D01*
X104465380Y-65834333D02*
X103465380Y-65834333D01*
X104465380Y-65215285D02*
X103465380Y-65215285D01*
X104465380Y-64739095D02*
X103465380Y-64739095D01*
X104465380Y-64167666D01*
X103465380Y-64167666D01*
X102463600Y-59029381D02*
X102463600Y-59267477D01*
X102225504Y-59172239D02*
X102463600Y-59267477D01*
X102701695Y-59172239D01*
X102320742Y-59457953D02*
X102463600Y-59267477D01*
X102606457Y-59457953D01*
X102463600Y-59029381D02*
X102463600Y-59267477D01*
X102225504Y-59172239D02*
X102463600Y-59267477D01*
X102701695Y-59172239D01*
X102320742Y-59457953D02*
X102463600Y-59267477D01*
X102606457Y-59457953D01*
%TO.C,U1*%
X107696095Y-46442380D02*
X107696095Y-47251904D01*
X107743714Y-47347142D01*
X107791333Y-47394761D01*
X107886571Y-47442380D01*
X108077047Y-47442380D01*
X108172285Y-47394761D01*
X108219904Y-47347142D01*
X108267523Y-47251904D01*
X108267523Y-46442380D01*
X109267523Y-47442380D02*
X108696095Y-47442380D01*
X108981809Y-47442380D02*
X108981809Y-46442380D01*
X108886571Y-46585238D01*
X108791333Y-46680476D01*
X108696095Y-46728095D01*
X104179666Y-53608952D02*
X104179666Y-53132761D01*
X104465380Y-53704190D02*
X103465380Y-53370857D01*
X104465380Y-53037523D01*
X104417761Y-52751809D02*
X104465380Y-52608952D01*
X104465380Y-52370857D01*
X104417761Y-52275619D01*
X104370142Y-52228000D01*
X104274904Y-52180380D01*
X104179666Y-52180380D01*
X104084428Y-52228000D01*
X104036809Y-52275619D01*
X103989190Y-52370857D01*
X103941571Y-52561333D01*
X103893952Y-52656571D01*
X103846333Y-52704190D01*
X103751095Y-52751809D01*
X103655857Y-52751809D01*
X103560619Y-52704190D01*
X103513000Y-52656571D01*
X103465380Y-52561333D01*
X103465380Y-52323238D01*
X103513000Y-52180380D01*
X103798714Y-51323238D02*
X104465380Y-51323238D01*
X103417761Y-51561333D02*
X104132047Y-51799428D01*
X104132047Y-51180380D01*
X104370142Y-50228000D02*
X104417761Y-50275619D01*
X104465380Y-50418476D01*
X104465380Y-50513714D01*
X104417761Y-50656571D01*
X104322523Y-50751809D01*
X104227285Y-50799428D01*
X104036809Y-50847047D01*
X103893952Y-50847047D01*
X103703476Y-50799428D01*
X103608238Y-50751809D01*
X103513000Y-50656571D01*
X103465380Y-50513714D01*
X103465380Y-50418476D01*
X103513000Y-50275619D01*
X103560619Y-50228000D01*
X103465380Y-49894666D02*
X103465380Y-49275619D01*
X103846333Y-49608952D01*
X103846333Y-49466095D01*
X103893952Y-49370857D01*
X103941571Y-49323238D01*
X104036809Y-49275619D01*
X104274904Y-49275619D01*
X104370142Y-49323238D01*
X104417761Y-49370857D01*
X104465380Y-49466095D01*
X104465380Y-49751809D01*
X104417761Y-49847047D01*
X104370142Y-49894666D01*
X103560619Y-48894666D02*
X103513000Y-48847047D01*
X103465380Y-48751809D01*
X103465380Y-48513714D01*
X103513000Y-48418476D01*
X103560619Y-48370857D01*
X103655857Y-48323238D01*
X103751095Y-48323238D01*
X103893952Y-48370857D01*
X104465380Y-48942285D01*
X104465380Y-48323238D01*
X104465380Y-47894666D02*
X103465380Y-47894666D01*
X104179666Y-47561333D01*
X103465380Y-47228000D01*
X104465380Y-47228000D01*
X104465380Y-46228000D02*
X104465380Y-46799428D01*
X104465380Y-46513714D02*
X103465380Y-46513714D01*
X103608238Y-46608952D01*
X103703476Y-46704190D01*
X103751095Y-46799428D01*
X103465380Y-45370857D02*
X103465380Y-45561333D01*
X103513000Y-45656571D01*
X103560619Y-45704190D01*
X103703476Y-45799428D01*
X103893952Y-45847047D01*
X104274904Y-45847047D01*
X104370142Y-45799428D01*
X104417761Y-45751809D01*
X104465380Y-45656571D01*
X104465380Y-45466095D01*
X104417761Y-45370857D01*
X104370142Y-45323238D01*
X104274904Y-45275619D01*
X104036809Y-45275619D01*
X103941571Y-45323238D01*
X103893952Y-45370857D01*
X103846333Y-45466095D01*
X103846333Y-45656571D01*
X103893952Y-45751809D01*
X103941571Y-45799428D01*
X104036809Y-45847047D01*
X104417761Y-44894666D02*
X104465380Y-44751809D01*
X104465380Y-44513714D01*
X104417761Y-44418476D01*
X104370142Y-44370857D01*
X104274904Y-44323238D01*
X104179666Y-44323238D01*
X104084428Y-44370857D01*
X104036809Y-44418476D01*
X103989190Y-44513714D01*
X103941571Y-44704190D01*
X103893952Y-44799428D01*
X103846333Y-44847047D01*
X103751095Y-44894666D01*
X103655857Y-44894666D01*
X103560619Y-44847047D01*
X103513000Y-44799428D01*
X103465380Y-44704190D01*
X103465380Y-44466095D01*
X103513000Y-44323238D01*
X103941571Y-43561333D02*
X103989190Y-43418476D01*
X104036809Y-43370857D01*
X104132047Y-43323238D01*
X104274904Y-43323238D01*
X104370142Y-43370857D01*
X104417761Y-43418476D01*
X104465380Y-43513714D01*
X104465380Y-43894666D01*
X103465380Y-43894666D01*
X103465380Y-43561333D01*
X103513000Y-43466095D01*
X103560619Y-43418476D01*
X103655857Y-43370857D01*
X103751095Y-43370857D01*
X103846333Y-43418476D01*
X103893952Y-43466095D01*
X103941571Y-43561333D01*
X103941571Y-43894666D01*
X104084428Y-42894666D02*
X104084428Y-42132761D01*
X103465380Y-41751809D02*
X103465380Y-41085142D01*
X104465380Y-41513714D01*
X103465380Y-40847047D02*
X103465380Y-40275619D01*
X104465380Y-40561333D02*
X103465380Y-40561333D01*
X104465380Y-39942285D02*
X103465380Y-39942285D01*
X104465380Y-39466095D02*
X103465380Y-39466095D01*
X104465380Y-38894666D01*
X103465380Y-38894666D01*
X102463600Y-34391381D02*
X102463600Y-34629477D01*
X102225504Y-34534239D02*
X102463600Y-34629477D01*
X102701695Y-34534239D01*
X102320742Y-34819953D02*
X102463600Y-34629477D01*
X102606457Y-34819953D01*
X102463600Y-34391381D02*
X102463600Y-34629477D01*
X102225504Y-34534239D02*
X102463600Y-34629477D01*
X102701695Y-34534239D01*
X102320742Y-34819953D02*
X102463600Y-34629477D01*
X102606457Y-34819953D01*
%TO.C,C5*%
X100052142Y-67241666D02*
X100099761Y-67289285D01*
X100147380Y-67432142D01*
X100147380Y-67527380D01*
X100099761Y-67670238D01*
X100004523Y-67765476D01*
X99909285Y-67813095D01*
X99718809Y-67860714D01*
X99575952Y-67860714D01*
X99385476Y-67813095D01*
X99290238Y-67765476D01*
X99195000Y-67670238D01*
X99147380Y-67527380D01*
X99147380Y-67432142D01*
X99195000Y-67289285D01*
X99242619Y-67241666D01*
X99147380Y-66336904D02*
X99147380Y-66813095D01*
X99623571Y-66860714D01*
X99575952Y-66813095D01*
X99528333Y-66717857D01*
X99528333Y-66479761D01*
X99575952Y-66384523D01*
X99623571Y-66336904D01*
X99718809Y-66289285D01*
X99956904Y-66289285D01*
X100052142Y-66336904D01*
X100099761Y-66384523D01*
X100147380Y-66479761D01*
X100147380Y-66717857D01*
X100099761Y-66813095D01*
X100052142Y-66860714D01*
%TO.C,U3*%
X97155095Y-51395380D02*
X97155095Y-52204904D01*
X97202714Y-52300142D01*
X97250333Y-52347761D01*
X97345571Y-52395380D01*
X97536047Y-52395380D01*
X97631285Y-52347761D01*
X97678904Y-52300142D01*
X97726523Y-52204904D01*
X97726523Y-51395380D01*
X98107476Y-51395380D02*
X98726523Y-51395380D01*
X98393190Y-51776333D01*
X98536047Y-51776333D01*
X98631285Y-51823952D01*
X98678904Y-51871571D01*
X98726523Y-51966809D01*
X98726523Y-52204904D01*
X98678904Y-52300142D01*
X98631285Y-52347761D01*
X98536047Y-52395380D01*
X98250333Y-52395380D01*
X98155095Y-52347761D01*
X98107476Y-52300142D01*
%TO.C,C17*%
X96131142Y-61444142D02*
X96083523Y-61491761D01*
X95940666Y-61539380D01*
X95845428Y-61539380D01*
X95702571Y-61491761D01*
X95607333Y-61396523D01*
X95559714Y-61301285D01*
X95512095Y-61110809D01*
X95512095Y-60967952D01*
X95559714Y-60777476D01*
X95607333Y-60682238D01*
X95702571Y-60587000D01*
X95845428Y-60539380D01*
X95940666Y-60539380D01*
X96083523Y-60587000D01*
X96131142Y-60634619D01*
X97083523Y-61539380D02*
X96512095Y-61539380D01*
X96797809Y-61539380D02*
X96797809Y-60539380D01*
X96702571Y-60682238D01*
X96607333Y-60777476D01*
X96512095Y-60825095D01*
X97416857Y-60539380D02*
X98083523Y-60539380D01*
X97654952Y-61539380D01*
%TO.C,C16*%
X117959142Y-48775857D02*
X118006761Y-48823476D01*
X118054380Y-48966333D01*
X118054380Y-49061571D01*
X118006761Y-49204428D01*
X117911523Y-49299666D01*
X117816285Y-49347285D01*
X117625809Y-49394904D01*
X117482952Y-49394904D01*
X117292476Y-49347285D01*
X117197238Y-49299666D01*
X117102000Y-49204428D01*
X117054380Y-49061571D01*
X117054380Y-48966333D01*
X117102000Y-48823476D01*
X117149619Y-48775857D01*
X118054380Y-47823476D02*
X118054380Y-48394904D01*
X118054380Y-48109190D02*
X117054380Y-48109190D01*
X117197238Y-48204428D01*
X117292476Y-48299666D01*
X117340095Y-48394904D01*
X117054380Y-46966333D02*
X117054380Y-47156809D01*
X117102000Y-47252047D01*
X117149619Y-47299666D01*
X117292476Y-47394904D01*
X117482952Y-47442523D01*
X117863904Y-47442523D01*
X117959142Y-47394904D01*
X118006761Y-47347285D01*
X118054380Y-47252047D01*
X118054380Y-47061571D01*
X118006761Y-46966333D01*
X117959142Y-46918714D01*
X117863904Y-46871095D01*
X117625809Y-46871095D01*
X117530571Y-46918714D01*
X117482952Y-46966333D01*
X117435333Y-47061571D01*
X117435333Y-47252047D01*
X117482952Y-47347285D01*
X117530571Y-47394904D01*
X117625809Y-47442523D01*
%TO.C,C15*%
X111244142Y-33377142D02*
X111196523Y-33424761D01*
X111053666Y-33472380D01*
X110958428Y-33472380D01*
X110815571Y-33424761D01*
X110720333Y-33329523D01*
X110672714Y-33234285D01*
X110625095Y-33043809D01*
X110625095Y-32900952D01*
X110672714Y-32710476D01*
X110720333Y-32615238D01*
X110815571Y-32520000D01*
X110958428Y-32472380D01*
X111053666Y-32472380D01*
X111196523Y-32520000D01*
X111244142Y-32567619D01*
X112196523Y-33472380D02*
X111625095Y-33472380D01*
X111910809Y-33472380D02*
X111910809Y-32472380D01*
X111815571Y-32615238D01*
X111720333Y-32710476D01*
X111625095Y-32758095D01*
X113101285Y-32472380D02*
X112625095Y-32472380D01*
X112577476Y-32948571D01*
X112625095Y-32900952D01*
X112720333Y-32853333D01*
X112958428Y-32853333D01*
X113053666Y-32900952D01*
X113101285Y-32948571D01*
X113148904Y-33043809D01*
X113148904Y-33281904D01*
X113101285Y-33377142D01*
X113053666Y-33424761D01*
X112958428Y-33472380D01*
X112720333Y-33472380D01*
X112625095Y-33424761D01*
X112577476Y-33377142D01*
%TO.C,J2*%
X118538666Y-23836380D02*
X118538666Y-24550666D01*
X118491047Y-24693523D01*
X118395809Y-24788761D01*
X118252952Y-24836380D01*
X118157714Y-24836380D01*
X118967238Y-23931619D02*
X119014857Y-23884000D01*
X119110095Y-23836380D01*
X119348190Y-23836380D01*
X119443428Y-23884000D01*
X119491047Y-23931619D01*
X119538666Y-24026857D01*
X119538666Y-24122095D01*
X119491047Y-24264952D01*
X118919619Y-24836380D01*
X119538666Y-24836380D01*
%TO.C,C14*%
X117832142Y-69603857D02*
X117879761Y-69651476D01*
X117927380Y-69794333D01*
X117927380Y-69889571D01*
X117879761Y-70032428D01*
X117784523Y-70127666D01*
X117689285Y-70175285D01*
X117498809Y-70222904D01*
X117355952Y-70222904D01*
X117165476Y-70175285D01*
X117070238Y-70127666D01*
X116975000Y-70032428D01*
X116927380Y-69889571D01*
X116927380Y-69794333D01*
X116975000Y-69651476D01*
X117022619Y-69603857D01*
X117927380Y-68651476D02*
X117927380Y-69222904D01*
X117927380Y-68937190D02*
X116927380Y-68937190D01*
X117070238Y-69032428D01*
X117165476Y-69127666D01*
X117213095Y-69222904D01*
X117260714Y-67794333D02*
X117927380Y-67794333D01*
X116879761Y-68032428D02*
X117594047Y-68270523D01*
X117594047Y-67651476D01*
%TO.C,C13*%
X117959142Y-40153857D02*
X118006761Y-40201476D01*
X118054380Y-40344333D01*
X118054380Y-40439571D01*
X118006761Y-40582428D01*
X117911523Y-40677666D01*
X117816285Y-40725285D01*
X117625809Y-40772904D01*
X117482952Y-40772904D01*
X117292476Y-40725285D01*
X117197238Y-40677666D01*
X117102000Y-40582428D01*
X117054380Y-40439571D01*
X117054380Y-40344333D01*
X117102000Y-40201476D01*
X117149619Y-40153857D01*
X118054380Y-39201476D02*
X118054380Y-39772904D01*
X118054380Y-39487190D02*
X117054380Y-39487190D01*
X117197238Y-39582428D01*
X117292476Y-39677666D01*
X117340095Y-39772904D01*
X117054380Y-38868142D02*
X117054380Y-38249095D01*
X117435333Y-38582428D01*
X117435333Y-38439571D01*
X117482952Y-38344333D01*
X117530571Y-38296714D01*
X117625809Y-38249095D01*
X117863904Y-38249095D01*
X117959142Y-38296714D01*
X118006761Y-38344333D01*
X118054380Y-38439571D01*
X118054380Y-38725285D01*
X118006761Y-38820523D01*
X117959142Y-38868142D01*
%TO.C,C12*%
X117959142Y-44584857D02*
X118006761Y-44632476D01*
X118054380Y-44775333D01*
X118054380Y-44870571D01*
X118006761Y-45013428D01*
X117911523Y-45108666D01*
X117816285Y-45156285D01*
X117625809Y-45203904D01*
X117482952Y-45203904D01*
X117292476Y-45156285D01*
X117197238Y-45108666D01*
X117102000Y-45013428D01*
X117054380Y-44870571D01*
X117054380Y-44775333D01*
X117102000Y-44632476D01*
X117149619Y-44584857D01*
X118054380Y-43632476D02*
X118054380Y-44203904D01*
X118054380Y-43918190D02*
X117054380Y-43918190D01*
X117197238Y-44013428D01*
X117292476Y-44108666D01*
X117340095Y-44203904D01*
X117149619Y-43251523D02*
X117102000Y-43203904D01*
X117054380Y-43108666D01*
X117054380Y-42870571D01*
X117102000Y-42775333D01*
X117149619Y-42727714D01*
X117244857Y-42680095D01*
X117340095Y-42680095D01*
X117482952Y-42727714D01*
X118054380Y-43299142D01*
X118054380Y-42680095D01*
%TO.C,C11*%
X99798142Y-39250857D02*
X99845761Y-39298476D01*
X99893380Y-39441333D01*
X99893380Y-39536571D01*
X99845761Y-39679428D01*
X99750523Y-39774666D01*
X99655285Y-39822285D01*
X99464809Y-39869904D01*
X99321952Y-39869904D01*
X99131476Y-39822285D01*
X99036238Y-39774666D01*
X98941000Y-39679428D01*
X98893380Y-39536571D01*
X98893380Y-39441333D01*
X98941000Y-39298476D01*
X98988619Y-39250857D01*
X99893380Y-38298476D02*
X99893380Y-38869904D01*
X99893380Y-38584190D02*
X98893380Y-38584190D01*
X99036238Y-38679428D01*
X99131476Y-38774666D01*
X99179095Y-38869904D01*
X99893380Y-37346095D02*
X99893380Y-37917523D01*
X99893380Y-37631809D02*
X98893380Y-37631809D01*
X99036238Y-37727047D01*
X99131476Y-37822285D01*
X99179095Y-37917523D01*
%TO.C,C10*%
X99765142Y-46117857D02*
X99812761Y-46165476D01*
X99860380Y-46308333D01*
X99860380Y-46403571D01*
X99812761Y-46546428D01*
X99717523Y-46641666D01*
X99622285Y-46689285D01*
X99431809Y-46736904D01*
X99288952Y-46736904D01*
X99098476Y-46689285D01*
X99003238Y-46641666D01*
X98908000Y-46546428D01*
X98860380Y-46403571D01*
X98860380Y-46308333D01*
X98908000Y-46165476D01*
X98955619Y-46117857D01*
X99860380Y-45165476D02*
X99860380Y-45736904D01*
X99860380Y-45451190D02*
X98860380Y-45451190D01*
X99003238Y-45546428D01*
X99098476Y-45641666D01*
X99146095Y-45736904D01*
X98860380Y-44546428D02*
X98860380Y-44451190D01*
X98908000Y-44355952D01*
X98955619Y-44308333D01*
X99050857Y-44260714D01*
X99241333Y-44213095D01*
X99479428Y-44213095D01*
X99669904Y-44260714D01*
X99765142Y-44308333D01*
X99812761Y-44355952D01*
X99860380Y-44451190D01*
X99860380Y-44546428D01*
X99812761Y-44641666D01*
X99765142Y-44689285D01*
X99669904Y-44736904D01*
X99479428Y-44784523D01*
X99241333Y-44784523D01*
X99050857Y-44736904D01*
X98955619Y-44689285D01*
X98908000Y-44641666D01*
X98860380Y-44546428D01*
%TO.C,C9*%
X100052142Y-58459666D02*
X100099761Y-58507285D01*
X100147380Y-58650142D01*
X100147380Y-58745380D01*
X100099761Y-58888238D01*
X100004523Y-58983476D01*
X99909285Y-59031095D01*
X99718809Y-59078714D01*
X99575952Y-59078714D01*
X99385476Y-59031095D01*
X99290238Y-58983476D01*
X99195000Y-58888238D01*
X99147380Y-58745380D01*
X99147380Y-58650142D01*
X99195000Y-58507285D01*
X99242619Y-58459666D01*
X100147380Y-57983476D02*
X100147380Y-57793000D01*
X100099761Y-57697761D01*
X100052142Y-57650142D01*
X99909285Y-57554904D01*
X99718809Y-57507285D01*
X99337857Y-57507285D01*
X99242619Y-57554904D01*
X99195000Y-57602523D01*
X99147380Y-57697761D01*
X99147380Y-57888238D01*
X99195000Y-57983476D01*
X99242619Y-58031095D01*
X99337857Y-58078714D01*
X99575952Y-58078714D01*
X99671190Y-58031095D01*
X99718809Y-57983476D01*
X99766428Y-57888238D01*
X99766428Y-57697761D01*
X99718809Y-57602523D01*
X99671190Y-57554904D01*
X99575952Y-57507285D01*
%TO.C,C8*%
X111339333Y-35028142D02*
X111291714Y-35075761D01*
X111148857Y-35123380D01*
X111053619Y-35123380D01*
X110910761Y-35075761D01*
X110815523Y-34980523D01*
X110767904Y-34885285D01*
X110720285Y-34694809D01*
X110720285Y-34551952D01*
X110767904Y-34361476D01*
X110815523Y-34266238D01*
X110910761Y-34171000D01*
X111053619Y-34123380D01*
X111148857Y-34123380D01*
X111291714Y-34171000D01*
X111339333Y-34218619D01*
X111910761Y-34551952D02*
X111815523Y-34504333D01*
X111767904Y-34456714D01*
X111720285Y-34361476D01*
X111720285Y-34313857D01*
X111767904Y-34218619D01*
X111815523Y-34171000D01*
X111910761Y-34123380D01*
X112101238Y-34123380D01*
X112196476Y-34171000D01*
X112244095Y-34218619D01*
X112291714Y-34313857D01*
X112291714Y-34361476D01*
X112244095Y-34456714D01*
X112196476Y-34504333D01*
X112101238Y-34551952D01*
X111910761Y-34551952D01*
X111815523Y-34599571D01*
X111767904Y-34647190D01*
X111720285Y-34742428D01*
X111720285Y-34932904D01*
X111767904Y-35028142D01*
X111815523Y-35075761D01*
X111910761Y-35123380D01*
X112101238Y-35123380D01*
X112196476Y-35075761D01*
X112244095Y-35028142D01*
X112291714Y-34932904D01*
X112291714Y-34742428D01*
X112244095Y-34647190D01*
X112196476Y-34599571D01*
X112101238Y-34551952D01*
%TO.C,C7*%
X100052142Y-63779666D02*
X100099761Y-63827285D01*
X100147380Y-63970142D01*
X100147380Y-64065380D01*
X100099761Y-64208238D01*
X100004523Y-64303476D01*
X99909285Y-64351095D01*
X99718809Y-64398714D01*
X99575952Y-64398714D01*
X99385476Y-64351095D01*
X99290238Y-64303476D01*
X99195000Y-64208238D01*
X99147380Y-64065380D01*
X99147380Y-63970142D01*
X99195000Y-63827285D01*
X99242619Y-63779666D01*
X99147380Y-63446333D02*
X99147380Y-62779666D01*
X100147380Y-63208238D01*
%TO.C,C6*%
X99765142Y-42241666D02*
X99812761Y-42289285D01*
X99860380Y-42432142D01*
X99860380Y-42527380D01*
X99812761Y-42670238D01*
X99717523Y-42765476D01*
X99622285Y-42813095D01*
X99431809Y-42860714D01*
X99288952Y-42860714D01*
X99098476Y-42813095D01*
X99003238Y-42765476D01*
X98908000Y-42670238D01*
X98860380Y-42527380D01*
X98860380Y-42432142D01*
X98908000Y-42289285D01*
X98955619Y-42241666D01*
X98860380Y-41384523D02*
X98860380Y-41575000D01*
X98908000Y-41670238D01*
X98955619Y-41717857D01*
X99098476Y-41813095D01*
X99288952Y-41860714D01*
X99669904Y-41860714D01*
X99765142Y-41813095D01*
X99812761Y-41765476D01*
X99860380Y-41670238D01*
X99860380Y-41479761D01*
X99812761Y-41384523D01*
X99765142Y-41336904D01*
X99669904Y-41289285D01*
X99431809Y-41289285D01*
X99336571Y-41336904D01*
X99288952Y-41384523D01*
X99241333Y-41479761D01*
X99241333Y-41670238D01*
X99288952Y-41765476D01*
X99336571Y-41813095D01*
X99431809Y-41860714D01*
%TO.C,C4*%
X99925142Y-70524666D02*
X99972761Y-70572285D01*
X100020380Y-70715142D01*
X100020380Y-70810380D01*
X99972761Y-70953238D01*
X99877523Y-71048476D01*
X99782285Y-71096095D01*
X99591809Y-71143714D01*
X99448952Y-71143714D01*
X99258476Y-71096095D01*
X99163238Y-71048476D01*
X99068000Y-70953238D01*
X99020380Y-70810380D01*
X99020380Y-70715142D01*
X99068000Y-70572285D01*
X99115619Y-70524666D01*
X99353714Y-69667523D02*
X100020380Y-69667523D01*
X98972761Y-69905619D02*
X99687047Y-70143714D01*
X99687047Y-69524666D01*
%TO.C,C3*%
X110577333Y-84177142D02*
X110529714Y-84224761D01*
X110386857Y-84272380D01*
X110291619Y-84272380D01*
X110148761Y-84224761D01*
X110053523Y-84129523D01*
X110005904Y-84034285D01*
X109958285Y-83843809D01*
X109958285Y-83700952D01*
X110005904Y-83510476D01*
X110053523Y-83415238D01*
X110148761Y-83320000D01*
X110291619Y-83272380D01*
X110386857Y-83272380D01*
X110529714Y-83320000D01*
X110577333Y-83367619D01*
X110910666Y-83272380D02*
X111529714Y-83272380D01*
X111196380Y-83653333D01*
X111339238Y-83653333D01*
X111434476Y-83700952D01*
X111482095Y-83748571D01*
X111529714Y-83843809D01*
X111529714Y-84081904D01*
X111482095Y-84177142D01*
X111434476Y-84224761D01*
X111339238Y-84272380D01*
X111053523Y-84272380D01*
X110958285Y-84224761D01*
X110910666Y-84177142D01*
%TO.C,C2*%
X117578142Y-64047666D02*
X117625761Y-64095285D01*
X117673380Y-64238142D01*
X117673380Y-64333380D01*
X117625761Y-64476238D01*
X117530523Y-64571476D01*
X117435285Y-64619095D01*
X117244809Y-64666714D01*
X117101952Y-64666714D01*
X116911476Y-64619095D01*
X116816238Y-64571476D01*
X116721000Y-64476238D01*
X116673380Y-64333380D01*
X116673380Y-64238142D01*
X116721000Y-64095285D01*
X116768619Y-64047666D01*
X116768619Y-63666714D02*
X116721000Y-63619095D01*
X116673380Y-63523857D01*
X116673380Y-63285761D01*
X116721000Y-63190523D01*
X116768619Y-63142904D01*
X116863857Y-63095285D01*
X116959095Y-63095285D01*
X117101952Y-63142904D01*
X117673380Y-63714333D01*
X117673380Y-63095285D01*
%TO.C,C1*%
X117705142Y-73191666D02*
X117752761Y-73239285D01*
X117800380Y-73382142D01*
X117800380Y-73477380D01*
X117752761Y-73620238D01*
X117657523Y-73715476D01*
X117562285Y-73763095D01*
X117371809Y-73810714D01*
X117228952Y-73810714D01*
X117038476Y-73763095D01*
X116943238Y-73715476D01*
X116848000Y-73620238D01*
X116800380Y-73477380D01*
X116800380Y-73382142D01*
X116848000Y-73239285D01*
X116895619Y-73191666D01*
X117800380Y-72239285D02*
X117800380Y-72810714D01*
X117800380Y-72525000D02*
X116800380Y-72525000D01*
X116943238Y-72620238D01*
X117038476Y-72715476D01*
X117086095Y-72810714D01*
%TO.C,J3*%
X70572380Y-24844333D02*
X71286666Y-24844333D01*
X71429523Y-24891952D01*
X71524761Y-24987190D01*
X71572380Y-25130047D01*
X71572380Y-25225285D01*
X70572380Y-24463380D02*
X70572380Y-23844333D01*
X70953333Y-24177666D01*
X70953333Y-24034809D01*
X71000952Y-23939571D01*
X71048571Y-23891952D01*
X71143809Y-23844333D01*
X71381904Y-23844333D01*
X71477142Y-23891952D01*
X71524761Y-23939571D01*
X71572380Y-24034809D01*
X71572380Y-24320523D01*
X71524761Y-24415761D01*
X71477142Y-24463380D01*
%TO.C,J1*%
X73580666Y-36155380D02*
X73580666Y-36869666D01*
X73533047Y-37012523D01*
X73437809Y-37107761D01*
X73294952Y-37155380D01*
X73199714Y-37155380D01*
X74580666Y-37155380D02*
X74009238Y-37155380D01*
X74294952Y-37155380D02*
X74294952Y-36155380D01*
X74199714Y-36298238D01*
X74104476Y-36393476D01*
X74009238Y-36441095D01*
%TD*%
M02*
